<svg width="173" height="70" viewBox="0 0 173 70" fill="none" xmlns="http://www.w3.org/2000/svg">
<path d="M74.2006 0H0V70H74.2006V0Z" fill="#E4032C"/>
<path d="M47.1266 16.0663L45.7123 17.6073C44.4748 16.8495 43.1615 16.2684 41.7725 15.839C42.909 16.8495 43.8687 18.0115 44.6516 19.3504L42.2018 22.3312L46.369 21.927L48.945 26.7268L48.642 21.826L51.7736 22.0281C50.6119 20.8913 49.3996 19.9314 48.1621 19.123L47.1266 16.0663Z" fill="white"/>
<path d="M57.0015 43.6016L56.4459 42.6164L56.2943 44.4099C56.0418 44.8141 55.5619 45.193 54.9053 45.5972C55.4356 45.4962 55.7892 45.4962 56.0418 45.5467C55.9407 46.1782 55.764 46.7845 55.5619 47.315L56.6479 45.4962L57.5571 45.3446L57.2288 44.1573L58.0875 42.2627C57.7591 42.7427 57.4308 43.1974 57.0015 43.6016Z" fill="white"/>
<path d="M55.4609 33.7243C56.2186 34.4822 56.8247 35.5179 57.2541 36.781C56.85 38.2714 56.3449 39.4587 55.7135 40.3429L57.9865 38.7261C57.9865 38.7261 58.5674 40.5955 58.5926 41.6565C58.9462 40.5197 59.0977 39.1556 59.0977 37.5388L60.4363 35.6947L59.0472 34.8864C58.9462 33.1433 58.6936 31.6529 58.239 30.4656C58.3148 31.7792 57.8602 34.3811 57.8602 34.3811C57.1531 34.0527 56.3701 33.8254 55.4609 33.7243Z" fill="white"/>
<path d="M51.1675 28.7982C51.319 29.8339 51.3443 30.8444 51.2938 31.7791L49.0713 32.5622L51.2433 33.7748L50.9402 36.7809L52.5818 34.6084L54.3749 36.0988L53.39 33.1685L54.678 30.9455L52.7333 31.4002L51.1675 28.7982Z" fill="white"/>
<path d="M54.8553 26.7268L55.4615 28.6467L55.714 27.5099L56.8253 28.4193L55.9161 26.4742L56.2696 25.1858L55.1079 25.4637L53.7441 24.0491L54.527 25.6658L53.1885 26.0195L54.8553 26.7268Z" fill="white"/>
<path d="M45.9646 28.3688L46.7223 30.2887L47.1264 29.1014C47.783 29.4803 48.3891 29.8845 48.8942 30.314L47.3284 28.4699L47.5304 27.4594H46.394L44.6008 25.9185L45.5858 27.4594L44.0957 27.5099L45.9646 28.3688Z" fill="white"/>
<path d="M37.3523 39.1302H35.3066V47.1887H37.3523V39.1302Z" fill="white"/>
<path d="M38.9688 47.1887H41.0144V35.0631L38.9688 35.9725V47.1887Z" fill="white"/>
<path d="M37.3523 36.7556L35.3066 37.6398V38.4987H37.3523V36.7556Z" fill="white"/>
<path d="M29.9273 38.2713C28.8666 38.2713 27.8311 38.6503 27.326 39.2818V35.0631L25.2803 35.9725V47.1887H27.326V42.0858C27.326 40.6712 28.1089 39.8628 29.4727 39.8628C30.8112 39.8628 31.6194 40.4944 31.6194 42.2627V47.1887H33.6651V42.1869C33.6398 39.6102 32.3518 38.2713 29.9273 38.2713Z" fill="white"/>
<path d="M19.1688 45.6224C16.7443 45.6224 15.4563 43.9804 15.4563 41.3532C15.4563 38.7513 16.7696 37.084 19.1688 37.084C20.5831 37.084 21.3408 37.5387 22.048 38.4734L23.8916 37.5134C22.9319 36.0988 21.4418 35.3409 19.1688 35.3409C15.5826 35.3409 13.3096 37.8166 13.3096 41.3532C13.3096 44.8898 15.5826 47.3655 19.1688 47.3655C21.265 47.3655 22.9572 46.5571 23.9421 45.1425L22.2248 44.1825C21.4923 45.1172 20.6084 45.6224 19.1688 45.6224Z" fill="white"/>
<path d="M51.2179 42.6416C51.2179 40.2923 49.7784 38.2714 46.8487 38.2714C44.1464 38.2714 42.3027 39.8628 42.3027 42.8185C42.3027 45.7235 44.3737 47.3656 46.7982 47.3656C48.3893 47.3656 49.4753 46.9614 50.3845 46.2035L49.1722 45.1173C48.4651 45.5467 47.7832 45.8246 46.9245 45.8246C45.6617 45.8246 44.5252 45.1173 44.2979 43.4247H51.1674C51.1674 43.2479 51.2179 42.97 51.2179 42.6416ZM44.3232 42.0101C44.5 40.6207 45.3334 39.8123 46.6972 39.8123C48.3893 39.8123 49.0459 40.7975 49.147 42.0101H44.3232Z" fill="white"/>
<path d="M173.001 39.7366H165.475V47.2645H173.001V39.7366Z" fill="#E4032C"/>
<path d="M87.7379 41.1006C86.3488 41.1006 85.4396 42.3637 85.4396 44.031C85.4396 45.1678 85.97 45.8246 86.9297 45.8246C87.8642 45.8246 88.4955 45.3193 88.7986 44.9657C88.8744 45.1678 88.9501 45.572 88.9501 46.0014C88.9501 46.734 87.8642 47.4413 86.5761 47.4413C84.783 47.4413 83.6465 46.3045 83.6465 44.2331C83.6465 41.5554 85.2881 39.5344 87.7631 39.5344C88.7733 39.5344 89.6573 39.9386 89.6573 40.5449C89.6573 40.848 89.4805 41.328 89.329 41.6059C89.0512 41.328 88.445 41.1006 87.7379 41.1006Z" fill="#000100"/>
<path d="M94.2787 42.1364C94.2787 42.3132 94.0766 43.1974 94.0009 43.3742C93.8999 43.1469 93.6473 42.9953 93.2685 42.9953C92.7634 42.9953 92.2077 43.5258 91.9804 44.031L91.4753 47.2898H89.7832L90.6419 41.8838C90.8944 41.8333 91.349 41.7827 91.7026 41.7827C92.0309 41.7827 92.2582 41.8333 92.3088 41.8585L92.1067 42.9953H92.132C92.435 42.4395 92.9401 41.6817 93.622 41.6817C94.0261 41.6564 94.2787 41.909 94.2787 42.1364Z" fill="#000100"/>
<path d="M99.1285 45.3951C99.2042 45.5972 99.3052 45.9509 99.3052 46.1277C99.3052 46.7592 98.093 47.416 96.8302 47.416C95.5422 47.416 94.4814 46.7592 94.4814 45.0667C94.4814 43.1468 95.8452 41.7069 97.8152 41.7069C99.0274 41.7069 99.6841 42.2121 99.6841 42.9953C99.6841 44.1826 98.1182 44.8899 96.1483 44.9151C96.1483 44.9909 96.1483 45.0667 96.1736 45.1678C96.2241 45.8246 96.6029 46.1782 97.2343 46.1782C98.1182 46.1782 98.8759 45.6225 99.1285 45.3951ZM96.2241 44.2331C97.5879 44.2078 98.2698 43.8289 98.2698 43.3994C98.2698 43.1216 98.0425 42.9447 97.6636 42.9447C96.9312 42.9195 96.4009 43.5005 96.2241 44.2331Z" fill="#000100"/>
<path d="M106.149 41.7574L105.265 47.2645H103.75L103.826 46.0772H103.801C103.396 46.8603 102.74 47.416 101.881 47.416C100.972 47.416 100.29 46.734 100.29 45.4204C100.29 43.4247 101.629 41.6564 103.472 41.6564C103.952 41.6564 104.381 41.7827 104.609 41.8837L104.735 41.8332C104.912 41.7827 105.164 41.7069 105.518 41.7069C105.796 41.7069 106.074 41.7322 106.149 41.7574ZM103.952 44.9656L104.255 43.0458C104.104 42.97 103.826 42.8942 103.573 42.8942C102.614 42.8942 102.007 43.8541 102.007 44.9656C102.007 45.774 102.285 46.0519 102.715 46.0519C103.119 46.0519 103.573 45.7235 103.952 44.9656Z" fill="#000100"/>
<path d="M112.665 42.9447C112.665 43.3742 112.008 47.1381 112.008 47.2645H110.316C110.316 47.1129 110.872 43.9299 110.872 43.6268C110.872 43.2479 110.67 42.97 110.215 42.97C109.71 42.97 109.23 43.4752 109.003 44.031L108.498 47.2897H106.806L107.664 41.8837C107.917 41.8332 108.372 41.7574 108.725 41.7574C109.053 41.7574 109.281 41.8079 109.331 41.8332L109.129 42.97H109.154C109.508 42.3637 110.215 41.6564 111.276 41.6564C112.135 41.6564 112.665 42.1869 112.665 42.9447Z" fill="#000100"/>
<path d="M119.686 39.686L118.474 47.2645H116.983L117.084 46.0014C116.655 46.8603 115.948 47.4161 115.089 47.4161C114.205 47.4161 113.523 46.7593 113.523 45.3699C113.523 43.3237 114.736 41.6564 116.908 41.6564C117.211 41.6564 117.489 41.7069 117.691 41.7575L118.019 39.7365C118.271 39.6608 118.726 39.6102 119.054 39.6102C119.383 39.6102 119.635 39.6608 119.686 39.686ZM117.185 44.991L117.514 43.0458C117.362 42.97 117.11 42.8942 116.857 42.8942C115.897 42.8942 115.266 43.8289 115.266 44.9404C115.266 45.7235 115.544 46.0267 115.973 46.0267C116.352 46.0519 116.807 45.7741 117.185 44.991Z" fill="#000100"/>
<path d="M120.064 45.0667C120.064 42.7931 121.681 41.6564 123.322 41.6564C124.61 41.6564 125.696 42.3132 125.696 43.9804C125.696 46.1024 124.181 47.4413 122.438 47.4413C121.049 47.416 120.064 46.6582 120.064 45.0667ZM123.954 44.1067C123.954 43.1973 123.6 42.8942 123.12 42.8942C122.312 42.8942 121.782 43.7531 121.782 44.9151C121.782 45.7993 122.135 46.1529 122.641 46.1529C123.423 46.1529 123.954 45.2435 123.954 44.1067Z" fill="#000100"/>
<path d="M133.652 39.7618C133.652 39.7618 133.652 40.0397 133.652 40.3681C133.652 40.9239 133.602 41.227 133.476 41.227H130.647V43.1722H133.173C133.173 43.8037 133.097 44.5363 132.996 44.5363H130.647V47.2645C130.647 47.2645 130.091 47.2898 129.511 47.2898C129.132 47.2898 128.93 47.2645 128.93 47.214V39.7366H133.652V39.7618Z" fill="#000100"/>
<path d="M134.309 45.7993V41.8332C134.309 41.8332 135.243 41.7827 135.925 41.7827C136.026 41.7827 136.051 41.808 136.051 41.8332V45.2436C136.051 45.7993 136.304 46.0519 136.809 46.0519C137.339 46.0519 137.743 45.673 137.87 45.5214V41.8332C137.87 41.8332 138.981 41.7827 139.486 41.7827C139.562 41.7827 139.587 41.8332 139.587 41.8332V47.2898C139.587 47.2898 139.183 47.315 138.45 47.315C138.097 47.315 137.895 47.2898 137.895 47.2898L137.945 46.5066C137.743 46.7593 137.137 47.4413 136.026 47.4413C134.915 47.4161 134.309 46.734 134.309 45.7993Z" fill="#000100"/>
<path d="M144.84 46.4309C144.84 46.9614 144.108 47.4161 143.123 47.4161C142.113 47.4161 141.279 46.8603 141.279 45.4709V43.0711H140.547V42.0354C140.547 41.9343 140.572 41.8838 140.698 41.8838H141.279V40.9491C141.279 40.9491 142.037 40.5449 142.719 40.5449C142.946 40.5449 142.997 40.5954 142.997 40.6965V41.8585H144.739V42.9448C144.739 43.0458 144.689 43.1216 144.613 43.1216L142.971 43.0963V45.1678C142.971 45.7236 143.274 45.9509 143.704 45.9509C144.057 45.9509 144.411 45.7993 144.562 45.6225C144.638 45.673 144.84 46.0772 144.84 46.4309Z" fill="#000100"/>
<path d="M145.825 45.7993V41.8332C145.825 41.8332 146.76 41.7827 147.442 41.7827C147.543 41.7827 147.568 41.808 147.568 41.8332V45.2436C147.568 45.7993 147.82 46.0519 148.325 46.0519C148.856 46.0519 149.26 45.673 149.386 45.5214V41.8332C149.386 41.8332 150.497 41.7827 151.003 41.7827C151.078 41.7827 151.104 41.8332 151.104 41.8332V47.2898C151.104 47.2898 150.7 47.315 149.967 47.315C149.614 47.315 149.411 47.2898 149.411 47.2898L149.462 46.5066C149.26 46.7593 148.654 47.4413 147.543 47.4413C146.431 47.4161 145.825 46.734 145.825 45.7993Z" fill="#000100"/>
<path d="M152.417 41.7574C152.417 41.7574 152.771 41.6564 153.402 41.6564C153.907 41.6564 154.084 41.8079 154.084 42.0353C154.084 42.2879 154.059 42.6163 154.059 42.7679C154.311 42.2121 154.917 41.7069 155.953 41.7069V43.1721C155.953 43.2731 155.877 43.2984 155.801 43.2984C154.816 43.2984 154.134 43.9299 154.134 44.9151V47.2645C153.781 47.2645 153.351 47.2645 152.922 47.2645C152.745 47.2645 152.569 47.2645 152.417 47.2645V41.7574Z" fill="#000100"/>
<path d="M162.393 44.4604C162.393 46.5066 161.029 47.4413 159.413 47.4413C157.998 47.4413 156.584 46.5824 156.584 44.5362C156.584 42.6163 157.948 41.6564 159.589 41.6564C160.953 41.6311 162.393 42.4142 162.393 44.4604ZM160.625 44.4604C160.625 43.3741 160.12 42.8942 159.514 42.8942C158.857 42.8942 158.352 43.4499 158.352 44.4857C158.352 45.5466 158.857 46.1024 159.488 46.1024C160.069 46.1277 160.625 45.5972 160.625 44.4604Z" fill="#000100"/>
</svg>
