<svg width="146" height="79" viewBox="0 0 146 79" fill="none" xmlns="http://www.w3.org/2000/svg">
<path d="M99.8644 32.4385C98.225 32.4385 97.1607 33.923 97.1607 35.8642C97.1607 37.206 97.7935 37.9767 98.9153 37.9767C100.037 37.9767 100.756 37.4058 101.101 36.949C101.188 37.206 101.274 37.6627 101.274 38.148C101.274 39.0045 100.008 39.8324 98.4838 39.8324C96.3841 39.8324 95.0323 38.4906 95.0323 36.064C95.0323 32.9523 96.9594 30.5829 99.8932 30.5829C101.072 30.5829 102.108 31.0396 102.108 31.7533C102.108 32.0959 101.907 32.6668 101.705 32.9809C101.389 32.7239 100.67 32.4385 99.8644 32.4385Z" fill="#000100"/>
<path d="M107.544 33.666C107.544 33.8659 107.314 34.8936 107.228 35.0934C107.113 34.8365 106.796 34.6652 106.365 34.6652C105.761 34.6652 105.128 35.2932 104.84 35.8642L104.236 39.6611H102.252L103.258 33.352C103.546 33.2949 104.093 33.2378 104.495 33.2378C104.869 33.2378 105.128 33.2949 105.214 33.3234L104.955 34.6366H104.984C105.329 33.98 105.933 33.0951 106.739 33.0951C107.256 33.0951 107.544 33.4091 107.544 33.666Z" fill="#000100"/>
<path d="M113.239 37.4914C113.354 37.7484 113.44 38.148 113.44 38.3479C113.44 39.0616 112.031 39.8324 110.535 39.8324C109.011 39.8324 107.774 39.0616 107.774 37.0918C107.774 34.8365 109.385 33.1522 111.686 33.1522C113.124 33.1522 113.901 33.7517 113.901 34.6652C113.901 36.0355 112.031 36.8634 109.73 36.9205C109.73 37.0061 109.73 37.1203 109.759 37.206C109.816 37.9767 110.248 38.3764 110.996 38.3764C112.06 38.3764 112.98 37.7484 113.239 37.4914ZM109.816 36.1211C111.427 36.0926 112.204 35.6644 112.204 35.122C112.204 34.7794 111.916 34.5796 111.485 34.5796C110.65 34.5796 110.046 35.2647 109.816 36.1211Z" fill="#000100"/>
<path d="M121.552 33.2378L120.516 39.6896H118.733L118.819 38.3193H118.79C118.33 39.2328 117.525 39.8609 116.518 39.8609C115.454 39.8609 114.649 39.0616 114.649 37.52C114.649 35.179 116.23 33.1236 118.416 33.1236C118.963 33.1236 119.481 33.2663 119.768 33.3805L119.912 33.3234C120.113 33.2663 120.43 33.1807 120.833 33.1807C121.091 33.1521 121.465 33.2092 121.552 33.2378ZM118.963 36.9776L119.337 34.7223C119.136 34.6081 118.819 34.551 118.532 34.551C117.41 34.551 116.662 35.6644 116.662 36.9776C116.662 37.9196 117.007 38.2337 117.496 38.2337C117.956 38.2337 118.503 37.8625 118.963 36.9776Z" fill="#000100"/>
<path d="M129.203 34.6081C129.203 35.122 128.426 39.5183 128.426 39.6611H126.441C126.441 39.4898 127.103 35.7786 127.103 35.4074C127.103 34.9792 126.873 34.6366 126.326 34.6366C125.722 34.6366 125.147 35.2362 124.888 35.8642L124.284 39.6611H122.299L123.306 33.352C123.594 33.2949 124.14 33.2093 124.543 33.2093C124.917 33.2093 125.176 33.2664 125.262 33.3234L125.003 34.6366H125.032C125.435 33.923 126.297 33.0951 127.534 33.0951C128.598 33.0951 129.203 33.7517 129.203 34.6081Z" fill="#000100"/>
<path d="M137.486 30.8112L136.048 39.6611H134.294L134.409 38.2051C133.92 39.2329 133.057 39.8324 132.079 39.8324C131.043 39.8324 130.238 39.0616 130.238 37.4343C130.238 35.0363 131.676 33.0951 134.207 33.0951C134.552 33.0951 134.869 33.1522 135.128 33.2093L135.502 30.8398C135.789 30.7541 136.336 30.6971 136.71 30.6971C137.112 30.7256 137.429 30.7827 137.486 30.8112ZM134.524 37.0061L134.898 34.7223C134.696 34.6081 134.409 34.551 134.121 34.551C132.999 34.551 132.251 35.6358 132.251 36.949C132.251 37.8626 132.568 38.2337 133.085 38.2337C133.546 38.2337 134.063 37.9197 134.524 37.0061Z" fill="#000100"/>
<path d="M137.918 37.0918C137.918 34.4368 139.816 33.0951 141.743 33.0951C143.239 33.0951 144.533 33.8659 144.533 35.8071C144.533 38.2908 142.75 39.8324 140.679 39.8324C139.068 39.8324 137.918 38.9759 137.918 37.0918ZM142.491 35.9784C142.491 34.9221 142.059 34.5796 141.513 34.5796C140.564 34.5796 139.931 35.5787 139.931 36.949C139.931 37.9767 140.334 38.3764 140.938 38.3764C141.858 38.3764 142.491 37.3201 142.491 35.9784Z" fill="#000100"/>
<path d="M146 45.0281H138.061V52.9073H146V45.0281Z" fill="#E4032C"/>
<path d="M100.584 44.1431C100.584 44.1431 100.584 44.4571 100.584 44.8568C100.584 45.4848 100.526 45.856 100.382 45.856H97.0457V48.1398H100.037C100.037 48.882 99.9507 49.7385 99.8357 49.7385H97.0744V52.9358C97.0744 52.9358 96.4417 52.9644 95.7226 52.9644C95.2624 52.9644 95.0323 52.9358 95.0323 52.8787V44.1431H100.584Z" fill="#000100"/>
<path d="M101.36 51.1944V46.5411C101.36 46.5411 102.453 46.484 103.258 46.484C103.374 46.484 103.402 46.5126 103.402 46.5411V50.5378C103.402 51.1944 103.719 51.4799 104.294 51.4799C104.927 51.4799 105.416 51.0517 105.531 50.8518V46.5411C105.531 46.5411 106.825 46.484 107.429 46.484C107.515 46.484 107.544 46.5411 107.544 46.5411V52.9073C107.544 52.9073 107.084 52.9358 106.221 52.9358C105.79 52.9358 105.559 52.9073 105.559 52.9073L105.617 51.9937C105.387 52.2792 104.668 53.0786 103.374 53.0786C102.079 53.0786 101.36 52.2792 101.36 51.1944Z" fill="#000100"/>
<path d="M113.786 51.9081C113.786 52.5361 112.923 53.05 111.772 53.05C110.564 53.05 109.586 52.422 109.586 50.7662V47.9685H108.723V46.7695C108.723 46.6553 108.752 46.5982 108.896 46.5982H109.586V45.5134C109.586 45.5134 110.478 45.0566 111.283 45.0566C111.542 45.0566 111.628 45.1137 111.628 45.2564V46.6267H113.699V47.8828C113.699 47.997 113.642 48.0827 113.556 48.0827L111.628 48.0541V50.4807C111.628 51.1373 112.002 51.3942 112.491 51.3942C112.923 51.3942 113.325 51.1944 113.527 50.9946C113.527 51.0517 113.786 51.537 113.786 51.9081Z" fill="#000100"/>
<path d="M114.936 51.1944V46.5411C114.936 46.5411 116.029 46.484 116.835 46.484C116.95 46.484 116.978 46.5126 116.978 46.5411V50.5378C116.978 51.1944 117.295 51.4799 117.87 51.4799C118.503 51.4799 118.992 51.0517 119.107 50.8518V46.5411C119.107 46.5411 120.401 46.484 121.005 46.484C121.091 46.484 121.12 46.5411 121.12 46.5411V52.9073C121.12 52.9073 120.66 52.9358 119.797 52.9358C119.366 52.9358 119.136 52.9073 119.136 52.9073L119.193 51.9937C118.963 52.2792 118.244 53.0786 116.95 53.0786C115.655 53.0786 114.936 52.2792 114.936 51.1944Z" fill="#000100"/>
<path d="M122.702 46.4555C122.702 46.4555 123.105 46.3413 123.853 46.3413C124.457 46.3413 124.658 46.5126 124.658 46.7695C124.658 47.055 124.629 47.4261 124.629 47.6259C124.917 46.9693 125.636 46.3984 126.873 46.3984V48.1112C126.873 48.2254 126.786 48.254 126.7 48.254C125.55 48.254 124.744 48.9962 124.744 50.1381V52.9073C124.313 52.9073 123.824 52.9073 123.306 52.9073C123.105 52.9073 122.875 52.9073 122.702 52.9073V46.4555Z" fill="#000100"/>
<path d="M134.437 49.6243C134.437 52.0223 132.855 53.1071 130.928 53.1071C129.26 53.1071 127.592 52.0794 127.592 49.7099C127.592 47.4546 129.203 46.3413 131.13 46.3413C132.74 46.3127 134.437 47.2262 134.437 49.6243ZM132.366 49.6243C132.366 48.3396 131.762 47.7972 131.043 47.7972C130.267 47.7972 129.663 48.4252 129.663 49.6528C129.663 50.9089 130.267 51.537 131.015 51.537C131.705 51.5655 132.366 50.966 132.366 49.6243Z" fill="#000100"/>
<path d="M64.5739 49.7163L63.9415 48.6492L63.7833 50.6265C63.4987 51.0659 62.9612 51.5054 62.2338 51.9448C62.8347 51.8192 63.2141 51.8192 63.4987 51.882C63.3723 52.6039 63.2141 53.2316 62.9612 53.828L64.1628 51.8192L65.1748 51.6623L64.8269 50.3441L65.7756 48.2411C65.4277 48.7747 65.0483 49.2455 64.5739 49.7163Z" fill="#E4032C"/>
<path d="M62.8663 38.7938C63.7201 39.6412 64.3842 40.7712 64.8901 42.1522C64.4474 43.7843 63.8782 45.1025 63.1825 46.0755L65.7123 44.2864C65.7123 44.2864 66.3448 46.358 66.3764 47.5193C66.7559 46.2638 66.9456 44.7572 66.9456 42.9682L68.4319 40.9281L66.8824 40.0179C66.7875 38.1033 66.4713 36.4398 65.9653 35.153C66.0286 36.5967 65.5542 39.4843 65.5542 39.4843C64.7636 39.1391 63.8782 38.9193 62.8663 38.7938Z" fill="#E4032C"/>
<path d="M58.0912 33.3639C58.2493 34.4938 58.281 35.5923 58.2493 36.6595L55.7511 37.5069L58.1861 38.8565L57.8382 42.1521L59.6724 39.7354L61.6646 41.3989L60.5578 38.166L62.0125 35.7179L59.8305 36.2201L58.0912 33.3639Z" fill="#E4032C"/>
<path d="M62.2022 31.1041L62.8979 33.207L63.1509 31.9515L64.3842 32.9559L63.4039 30.8216L63.7517 29.3778L62.4868 29.6917L60.9373 28.1224L61.8227 29.9114L60.3365 30.3194L62.2022 31.1041Z" fill="#E4032C"/>
<path d="M52.2726 32.8931L53.0948 35.0274L53.5375 33.7092C54.2649 34.1172 54.9289 34.5566 55.4981 35.0274L53.7273 32.9873L53.9486 31.8887H52.6837L50.6915 30.1625L51.7983 31.8573L50.1223 31.9201L52.2726 32.8931Z" fill="#E4032C"/>
<path d="M53.5691 19.3341L51.988 21.029C50.6282 20.1816 49.1419 19.5538 47.5924 19.0516C48.8573 20.1502 49.9325 21.4684 50.8179 22.9122L48.0668 26.2078L52.7153 25.7684L55.593 31.0727L55.2768 25.6428L58.7869 25.8625C57.4904 24.6071 56.1306 23.5399 54.7708 22.6611L53.5691 19.3341Z" fill="#E4032C"/>
<path d="M42.6593 44.7572H40.3824V53.6396H42.6593V44.7572Z" fill="#E4032C"/>
<path d="M44.4934 53.6396H46.7703V40.269L44.4934 41.2733V53.6396Z" fill="#E4032C"/>
<path d="M42.6593 42.1522L40.3824 43.1251V44.0667H42.6593V42.1522Z" fill="#E4032C"/>
<path d="M34.3741 43.8156C33.1724 43.8156 32.034 44.2237 31.4647 44.9455V40.269L29.1879 41.2733V53.671H31.4647V48.0528C31.4647 46.4835 32.3186 45.6047 33.8365 45.6047C35.3544 45.6047 36.2082 46.2952 36.2082 48.2411V53.671H38.485V48.1156C38.5167 45.2908 37.0936 43.8156 34.3741 43.8156Z" fill="#E4032C"/>
<path d="M22.389 51.9448C19.7011 51.9448 18.2464 50.1243 18.2464 47.2368C18.2464 44.3492 19.7011 42.5288 22.389 42.5288C23.9702 42.5288 24.7924 43.031 25.5829 44.0667L27.6384 42.9996C26.5632 41.4303 24.8872 40.5828 22.389 40.5828C18.4045 40.5828 15.8431 43.3135 15.8431 47.2054C15.8431 51.0973 18.3729 53.828 22.389 53.828C24.7291 53.828 26.6265 52.9491 27.7017 51.3798L25.7727 50.3127C24.9821 51.3798 24.0018 51.9448 22.389 51.9448Z" fill="#E4032C"/>
<path d="M58.1229 48.6492C58.1229 46.0441 56.5417 43.8156 53.2529 43.8156C50.2488 43.8156 48.1617 45.5733 48.1617 48.8375C48.1617 52.0389 50.4701 53.8593 53.1897 53.8593C54.9606 53.8593 56.1622 53.3885 57.1742 52.6039L55.8144 51.3798C55.0554 51.8506 54.2649 52.1645 53.2846 52.1645C51.8615 52.1645 50.5966 51.3798 50.3753 49.528H58.0596C58.0912 49.3083 58.1229 48.9944 58.1229 48.6492ZM50.4385 47.9587C50.6282 46.4207 51.5769 45.5419 53.0948 45.5419C54.9606 45.5419 55.7195 46.6404 55.846 47.9587H50.4385Z" fill="#E4032C"/>
<path d="M0 0V79H84.275V0H0ZM83.0101 77.7759H1.29654V1.19269H83.0101V77.7759Z" fill="#E4032C"/>
</svg>
