<svg width="145" height="79" viewBox="0 0 145 79" fill="none" xmlns="http://www.w3.org/2000/svg">
<path d="M99.1804 32.4384C97.5521 32.4384 96.4952 33.9229 96.4952 35.8642C96.4952 37.2059 97.1237 37.9767 98.2377 37.9767C99.3518 37.9767 100.066 37.4058 100.409 36.949C100.494 37.2059 100.58 37.6627 100.58 38.148C100.58 39.0044 99.3232 39.8323 97.8092 39.8323C95.7239 39.8323 94.3813 38.4906 94.3813 36.064C94.3813 32.9523 96.2953 30.5828 99.209 30.5828C100.38 30.5828 101.409 31.0396 101.409 31.7533C101.409 32.0959 101.209 32.6668 101.009 32.9808C100.694 32.7239 99.9802 32.4384 99.1804 32.4384Z" fill="white"/>
<path d="M106.808 33.666C106.808 33.8658 106.579 34.8935 106.493 35.0934C106.379 34.8365 106.065 34.6652 105.636 34.6652C105.036 34.6652 104.408 35.2932 104.122 35.8642L103.522 39.661H101.551L102.551 33.352C102.837 33.2949 103.38 33.2378 103.78 33.2378C104.151 33.2378 104.408 33.2949 104.494 33.3234L104.237 34.6366H104.265C104.608 33.98 105.208 33.095 106.008 33.095C106.522 33.095 106.808 33.4091 106.808 33.666Z" fill="white"/>
<path d="M112.464 37.4914C112.578 37.7483 112.663 38.148 112.663 38.3478C112.663 39.0615 111.264 39.8323 109.778 39.8323C108.264 39.8323 107.036 39.0615 107.036 37.0917C107.036 34.8364 108.636 33.1521 110.921 33.1521C112.349 33.1521 113.121 33.7516 113.121 34.6651C113.121 36.0354 111.264 36.8633 108.978 36.9204C108.978 37.0061 108.978 37.1202 109.007 37.2059C109.064 37.9767 109.493 38.3764 110.235 38.3764C111.292 38.3764 112.206 37.7483 112.464 37.4914ZM109.064 36.1211C110.664 36.0925 111.435 35.6643 111.435 35.1219C111.435 34.7793 111.149 34.5795 110.721 34.5795C109.893 34.5795 109.293 35.2646 109.064 36.1211Z" fill="white"/>
<path d="M120.719 33.2378L119.691 39.6896H117.92L118.005 38.3193H117.977C117.52 39.2328 116.72 39.8609 115.72 39.8609C114.663 39.8609 113.863 39.0616 113.863 37.52C113.863 35.179 115.434 33.1236 117.605 33.1236C118.148 33.1236 118.662 33.2663 118.948 33.3805L119.091 33.3234C119.291 33.2663 119.605 33.1807 120.005 33.1807C120.262 33.1521 120.633 33.2092 120.719 33.2378ZM118.148 36.9776L118.52 34.7223C118.32 34.6081 118.005 34.551 117.72 34.551C116.606 34.551 115.863 35.6644 115.863 36.9776C115.863 37.9196 116.206 38.2337 116.691 38.2337C117.148 38.2337 117.691 37.8625 118.148 36.9776Z" fill="white"/>
<path d="M128.317 34.6081C128.317 35.1219 127.546 39.5183 127.546 39.661H125.575C125.575 39.4898 126.232 35.7785 126.232 35.4074C126.232 34.9792 126.004 34.6366 125.461 34.6366C124.861 34.6366 124.29 35.2361 124.033 35.8642L123.433 39.661H121.462L122.461 33.352C122.747 33.2949 123.29 33.2092 123.69 33.2092C124.061 33.2092 124.318 33.2663 124.404 33.3234L124.147 34.6366H124.175C124.575 33.9229 125.432 33.095 126.661 33.095C127.718 33.095 128.317 33.7516 128.317 34.6081Z" fill="white"/>
<path d="M136.545 30.8112L135.116 39.661H133.374L133.488 38.2051C133.002 39.2328 132.145 39.8323 131.174 39.8323C130.146 39.8323 129.346 39.0615 129.346 37.4343C129.346 35.0363 130.774 33.095 133.288 33.095C133.631 33.095 133.945 33.1521 134.202 33.2092L134.573 30.8398C134.859 30.7541 135.402 30.697 135.773 30.697C136.173 30.7256 136.487 30.7827 136.545 30.8112ZM133.602 37.0061L133.974 34.7223C133.774 34.6081 133.488 34.551 133.202 34.551C132.088 34.551 131.346 35.6358 131.346 36.949C131.346 37.8625 131.66 38.2337 132.174 38.2337C132.631 38.2337 133.145 37.9196 133.602 37.0061Z" fill="white"/>
<path d="M136.973 37.0917C136.973 34.4368 138.858 33.095 140.772 33.095C142.258 33.095 143.543 33.8658 143.543 35.8071C143.543 38.2907 141.772 39.8323 139.715 39.8323C138.116 39.8323 136.973 38.9759 136.973 37.0917ZM141.515 35.9784C141.515 34.9221 141.086 34.5795 140.544 34.5795C139.601 34.5795 138.973 35.5787 138.973 36.949C138.973 37.9767 139.373 38.3764 139.972 38.3764C140.887 38.3764 141.515 37.3201 141.515 35.9784Z" fill="white"/>
<path d="M145 45.028H137.116V52.9073H145V45.028Z" fill="white"/>
<path d="M99.8945 44.1431C99.8945 44.1431 99.8945 44.4571 99.8945 44.8568C99.8945 45.4848 99.8374 45.8559 99.6946 45.8559H96.381V48.1398H99.3518C99.3518 48.882 99.2661 49.7384 99.1518 49.7384H96.4095V52.9358C96.4095 52.9358 95.7811 52.9644 95.0669 52.9644C94.6099 52.9644 94.3813 52.9358 94.3813 52.8787V44.1431H99.8945Z" fill="white"/>
<path d="M100.666 51.1944V46.5411C100.666 46.5411 101.751 46.484 102.551 46.484C102.665 46.484 102.694 46.5125 102.694 46.5411V50.5378C102.694 51.1944 103.008 51.4799 103.579 51.4799C104.208 51.4799 104.694 51.0516 104.808 50.8518V46.5411C104.808 46.5411 106.093 46.484 106.693 46.484C106.779 46.484 106.807 46.5411 106.807 46.5411V52.9072C106.807 52.9072 106.35 52.9358 105.493 52.9358C105.065 52.9358 104.836 52.9072 104.836 52.9072L104.894 51.9937C104.665 52.2792 103.951 53.0785 102.665 53.0785C101.38 53.0785 100.666 52.2792 100.666 51.1944Z" fill="white"/>
<path d="M113.006 51.9081C113.006 52.5361 112.149 53.05 111.007 53.05C109.807 53.05 108.836 52.4219 108.836 50.7662V47.9685H107.979V46.7695C107.979 46.6553 108.007 46.5982 108.15 46.5982H108.836V45.5133C108.836 45.5133 109.721 45.0566 110.521 45.0566C110.778 45.0566 110.864 45.1137 110.864 45.2564V46.6267H112.921V47.8828C112.921 47.997 112.863 48.0827 112.778 48.0827L110.864 48.0541V50.4807C110.864 51.1373 111.235 51.3942 111.721 51.3942C112.149 51.3942 112.549 51.1944 112.749 50.9945C112.749 51.0516 113.006 51.5369 113.006 51.9081Z" fill="white"/>
<path d="M114.149 51.1944V46.5411C114.149 46.5411 115.234 46.484 116.034 46.484C116.149 46.484 116.177 46.5125 116.177 46.5411V50.5378C116.177 51.1944 116.491 51.4799 117.063 51.4799C117.691 51.4799 118.177 51.0516 118.291 50.8518V46.5411C118.291 46.5411 119.576 46.484 120.176 46.484C120.262 46.484 120.291 46.5411 120.291 46.5411V52.9072C120.291 52.9072 119.834 52.9358 118.977 52.9358C118.548 52.9358 118.32 52.9072 118.32 52.9072L118.377 51.9937C118.148 52.2792 117.434 53.0785 116.149 53.0785C114.863 53.0785 114.149 52.2792 114.149 51.1944Z" fill="white"/>
<path d="M121.862 46.4554C121.862 46.4554 122.262 46.3412 123.004 46.3412C123.604 46.3412 123.804 46.5125 123.804 46.7695C123.804 47.0549 123.776 47.4261 123.776 47.6259C124.061 46.9693 124.775 46.3983 126.004 46.3983V48.1112C126.004 48.2254 125.918 48.254 125.832 48.254C124.69 48.254 123.89 48.9962 123.89 50.1381V52.9073C123.461 52.9073 122.976 52.9073 122.462 52.9073C122.262 52.9073 122.033 52.9073 121.862 52.9073V46.4554Z" fill="white"/>
<path d="M133.516 49.6242C133.516 52.0222 131.945 53.1071 130.031 53.1071C128.375 53.1071 126.718 52.0793 126.718 49.7099C126.718 47.4546 128.317 46.3412 130.231 46.3412C131.831 46.3127 133.516 47.2262 133.516 49.6242ZM131.46 49.6242C131.46 48.3396 130.86 47.7972 130.146 47.7972C129.374 47.7972 128.775 48.4252 128.775 49.6528C128.775 50.9089 129.374 51.5369 130.117 51.5369C130.803 51.5655 131.46 50.966 131.46 49.6242Z" fill="white"/>
<path d="M64.1317 49.7163L63.5036 48.6492L63.3465 50.6265C63.0639 51.0659 62.53 51.5054 61.8076 51.9448C62.4043 51.8192 62.7812 51.8192 63.0639 51.882C62.9382 52.6039 62.7812 53.2316 62.53 53.828L63.7234 51.8192L64.7284 51.6623L64.3829 50.3441L65.3251 48.2411C64.9797 48.7747 64.6028 49.2455 64.1317 49.7163Z" fill="white"/>
<path d="M62.4358 38.7938C63.2838 39.6412 63.9433 40.7712 64.4458 42.1522C64.0061 43.7843 63.4408 45.1025 62.7499 46.0755L65.2624 44.2864C65.2624 44.2864 65.8905 46.358 65.9219 47.5193C66.2988 46.2638 66.4872 44.7572 66.4872 42.9682L67.9633 40.9281L66.4244 40.0179C66.3302 38.1033 66.0161 36.4398 65.5136 35.153C65.5764 36.5967 65.1053 39.4843 65.1053 39.4843C64.3202 39.1391 63.4408 38.9193 62.4358 38.7938Z" fill="white"/>
<path d="M57.6934 33.3639C57.8505 34.4938 57.8819 35.5923 57.8505 36.6595L55.3694 37.5069L57.7877 38.8565L57.4422 42.1521L59.2638 39.7354L61.2424 41.3989L60.1431 38.166L61.5878 35.7179L59.4208 36.2201L57.6934 33.3639Z" fill="white"/>
<path d="M61.7762 31.1041L62.4671 33.207L62.7184 31.9515L63.9432 32.9559L62.9696 30.8216L63.3151 29.3778L62.0588 29.6917L60.5199 28.1224L61.3993 29.9114L59.9232 30.3194L61.7762 31.1041Z" fill="white"/>
<path d="M51.9147 32.8931L52.7312 35.0274L53.1709 33.7092C53.8933 34.1172 54.5528 34.5566 55.1181 35.0274L53.3594 32.9873L53.5792 31.8887H52.323L50.3444 30.1625L51.4436 31.8573L49.7791 31.9201L51.9147 32.8931Z" fill="white"/>
<path d="M53.2023 19.3341L51.632 21.029C50.2815 20.1816 48.8054 19.5538 47.2665 19.0516C48.5227 20.1502 49.5905 21.4684 50.4699 22.9122L47.7376 26.2078L52.3543 25.7684L55.2123 31.0727L54.8982 25.6428L58.3843 25.8625C57.0967 24.6071 55.7462 23.5399 54.3957 22.6611L53.2023 19.3341Z" fill="white"/>
<path d="M42.3672 44.7572H40.106V53.6396H42.3672V44.7572Z" fill="white"/>
<path d="M44.1888 53.6396H46.4501V40.2689L44.1888 41.2733V53.6396Z" fill="white"/>
<path d="M42.3672 42.1521L40.106 43.1251V44.0667H42.3672V42.1521Z" fill="white"/>
<path d="M34.1388 43.8156C32.9454 43.8156 31.8147 44.2236 31.2494 44.9455V40.2689L28.9882 41.2733V53.671H31.2494V48.0528C31.2494 46.4835 32.0974 45.6046 33.6049 45.6046C35.1124 45.6046 35.9604 46.2951 35.9604 48.2411V53.671H38.2216V48.1156C38.253 45.2908 36.8397 43.8156 34.1388 43.8156Z" fill="white"/>
<path d="M22.2357 51.9447C19.5662 51.9447 18.1215 50.1243 18.1215 47.2367C18.1215 44.3492 19.5662 42.5287 22.2357 42.5287C23.806 42.5287 24.6226 43.0309 25.4078 44.0667L27.4492 42.9995C26.3814 41.4302 24.7168 40.5828 22.2357 40.5828C18.2785 40.5828 15.7346 43.3134 15.7346 47.2053C15.7346 51.0973 18.2471 53.8279 22.2357 53.8279C24.5598 53.8279 26.4442 52.9491 27.512 51.3797L25.5962 50.3126C24.811 51.3797 23.8374 51.9447 22.2357 51.9447Z" fill="white"/>
<path d="M57.7249 48.6491C57.7249 46.0441 56.1546 43.8156 52.8883 43.8156C49.9047 43.8156 47.8319 45.5733 47.8319 48.8375C47.8319 52.0389 50.1246 53.8593 52.8255 53.8593C54.5843 53.8593 55.7777 53.3885 56.7827 52.6039L55.4322 51.3798C54.6785 51.8506 53.8933 52.1644 52.9197 52.1644C51.5064 52.1644 50.2502 51.3798 50.0304 49.528H57.6621C57.6935 49.3083 57.7249 48.9944 57.7249 48.6491ZM50.0932 47.9586C50.2816 46.4207 51.2238 45.5419 52.7313 45.5419C54.5843 45.5419 55.338 46.6404 55.4636 47.9586H50.0932Z" fill="white"/>
<path d="M0 0V79H83.6978V0H0ZM82.4416 77.7759H1.28766V1.19269H82.4416V77.7759Z" fill="white"/>
</svg>
