<?xml version="1.0" encoding="utf-8"?>
<!-- Generator: Adobe Illustrator 28.2.0, SVG Export Plug-In . SVG Version: 6.00 Build 0)  -->
<svg version="1.1" id="Capa_1" xmlns="http://www.w3.org/2000/svg" xmlns:xlink="http://www.w3.org/1999/xlink" x="0px" y="0px"
	 viewBox="0 0 83.8 79" style="enable-background:new 0 0 83.8 79;" xml:space="preserve">
<style type="text/css">
	.st0{fill:#E4032C;}
	.st1{fill:#FFFFFF;}
</style>
<path class="st0" d="M83.8,0H0v79h83.8V0z"/>
<path class="st1" d="M64.5,49.9l-0.6-1.1l-0.2,2c-0.3,0.5-0.8,0.9-1.6,1.3c0.6-0.1,1-0.1,1.3-0.1c-0.1,0.7-0.3,1.4-0.5,2l1.2-2.1
	l1-0.2l-0.4-1.3l1-2.1C65.4,49,65,49.5,64.5,49.9z"/>
<path class="st1" d="M62.8,38.8c0.9,0.9,1.5,2,2,3.4c-0.5,1.7-1,3-1.7,4l2.6-1.8c0,0,0.7,2.1,0.7,3.3c0.4-1.3,0.6-2.8,0.6-4.6
	l1.5-2.1l-1.6-0.9c-0.1-2-0.4-3.6-0.9-5c0.1,1.5-0.4,4.4-0.4,4.4C64.7,39.1,63.8,38.9,62.8,38.8z"/>
<path class="st1" d="M57.9,33.2c0.2,1.2,0.2,2.3,0.1,3.4l-2.5,0.9l2.5,1.4l-0.3,3.4l1.9-2.5l2,1.7l-1.1-3.3l1.5-2.5l-2.2,0.5
	L57.9,33.2z"/>
<path class="st1" d="M62.1,30.9l0.7,2.2l0.3-1.3l1.2,1l-1-2.2l0.4-1.5l-1.3,0.3l-1.6-1.6l0.9,1.8l-1.5,0.4L62.1,30.9z"/>
<path class="st1" d="M52,32.7l0.9,2.2l0.5-1.3c0.7,0.4,1.4,0.9,2,1.4l-1.8-2.1l0.2-1.1h-1.3l-2-1.8l1.1,1.7l-1.7,0.1L52,32.7z"/>
<path class="st1" d="M53.3,18.9l-1.6,1.7c-1.4-0.9-2.9-1.5-4.4-2c1.3,1.1,2.4,2.5,3.2,4l-2.8,3.4l4.7-0.5l2.9,5.4l-0.3-5.6l3.5,0.2
	c-1.3-1.3-2.7-2.4-4.1-3.3L53.3,18.9z"/>
<path class="st1" d="M42.3,44.9H40V54h2.3V44.9z"/>
<path class="st1" d="M44.1,54h2.3V40.3l-2.3,1V54z"/>
<path class="st1" d="M42.3,42.2l-2.3,1v0.9h2.3V42.2z"/>
<path class="st1" d="M33.9,43.9c-1.2,0-2.4,0.4-2.9,1.1v-4.8l-2.3,1V54H31v-5.8c0-1.6,0.9-2.5,2.4-2.5c1.5,0,2.4,0.7,2.4,2.7V54h2.3
	v-5.6C38.1,45.4,36.7,43.9,33.9,43.9z"/>
<path class="st1" d="M21.8,52.2c-2.7,0-4.2-1.9-4.2-4.8c0-2.9,1.5-4.8,4.2-4.8c1.6,0,2.5,0.5,3.3,1.6l2.1-1.1
	c-1.1-1.6-2.8-2.5-5.3-2.5c-4,0-6.6,2.8-6.6,6.8c0,4,2.6,6.8,6.6,6.8c2.4,0,4.3-0.9,5.4-2.5l-1.9-1.1C24.4,51.7,23.4,52.2,21.8,52.2
	z"/>
<path class="st1" d="M58,48.9c0-2.7-1.6-4.9-4.9-4.9c-3.1,0-5.2,1.8-5.2,5.1c0,3.3,2.3,5.1,5.1,5.1c1.8,0,3-0.5,4-1.3l-1.4-1.2
	c-0.8,0.5-1.6,0.8-2.5,0.8c-1.4,0-2.7-0.8-3-2.7h7.8C57.9,49.5,58,49.2,58,48.9z M50.2,48.1c0.2-1.6,1.1-2.5,2.7-2.5
	c1.9,0,2.7,1.1,2.8,2.5H50.2z"/>
</svg>
