<svg width="510" height="72" viewBox="0 0 510 72" fill="none" xmlns="http://www.w3.org/2000/svg">
<path d="M38.7739 50.706C34.5619 53.622 29.1349 56.295 22.0879 56.295C7.42688 56.295 0.379883 44.388 0.379883 27.783C0.379883 9.80101 9.20888 0 22.3309 0C28.5679 0 34.6429 1.62001 38.3689 4.37401L36.6679 7.61401C33.3469 5.02201 27.5149 3.56401 22.2499 3.56401C10.0999 3.56401 4.51088 13.689 4.51088 27.54C4.51088 42.363 10.4239 52.731 22.0879 52.731C28.4059 52.731 33.5899 50.463 37.4779 47.466L38.7739 50.706ZM65.2432 15.957L64.7572 19.359C63.7852 18.954 61.9222 18.63 59.5732 18.63C55.3612 18.63 52.0402 21.303 49.7722 23.733V55.485H45.8032V15.795H48.3952L49.4482 20.655C51.2302 18.549 54.8752 15.228 59.9782 15.228C63.2992 15.228 65.2432 15.957 65.2432 15.957ZM100.939 36.774H73.1559C73.1559 48.276 78.9069 53.136 86.9259 53.136C92.5959 53.136 97.2939 50.301 99.6429 48.681L100.939 51.597C97.5369 53.703 92.5959 56.295 86.6829 56.295C76.3959 56.295 69.2679 49.248 69.2679 35.316C69.2679 22.518 75.3429 14.985 85.6299 14.985C96.4029 14.985 100.939 23.976 100.939 33.939V36.774ZM97.0509 33.615C97.0509 25.839 94.2969 18.063 85.3869 18.063C76.7199 18.063 73.1559 25.839 73.1559 33.615H97.0509ZM138.197 55.485H135.524L134.633 50.139C132.122 53.217 127.667 56.295 122.078 56.295C113.897 56.295 109.523 50.706 109.523 44.388C109.523 37.746 114.383 33.291 123.131 33.291H134.39V29.565C134.39 21.708 131.393 18.225 124.508 18.225C119.324 18.225 115.031 19.683 112.358 20.898L111.224 17.901C113.978 16.686 118.352 14.985 125.075 14.985C133.499 14.985 138.197 19.602 138.197 28.836V55.485ZM134.39 47.142V36.369H123.617C115.76 36.369 113.33 39.771 113.33 44.226C113.33 49.491 116.246 53.217 122.888 53.217C127.505 53.217 131.798 50.382 134.39 47.142ZM169.998 54.108C168.864 54.999 165.219 56.295 162.06 56.295C157.524 56.295 152.745 54.189 152.745 45.927V18.711H146.67V15.795H152.745V8.42401L156.714 7.12801V15.795H168.864V18.711H156.714V45.927C156.714 50.949 158.334 53.055 162.546 53.055C164.976 53.055 167.892 51.921 169.026 51.273L169.998 54.108ZM185.421 55.485H181.614V19.278L177.321 18.468V15.795H185.421V55.485ZM180.966 5.34601V0.40501H185.421V5.34601H180.966ZM225.889 55.485H221.839V31.266C221.839 22.923 219.409 18.225 211.795 18.225C206.935 18.225 203.371 21.06 200.698 23.733V55.485H196.729V15.795H199.321L200.374 20.574C202.561 18.387 206.773 14.985 212.767 14.985C221.677 14.985 225.889 20.412 225.889 30.132V55.485ZM250.613 14.985C251.99 14.985 258.713 15.39 269.648 15.795V18.225C267.218 18.63 262.682 18.306 258.956 17.901C262.115 20.169 265.031 23.571 265.031 28.755C265.031 38.313 256.85 42.039 250.694 42.039C249.155 42.039 247.292 41.715 245.51 41.067C241.541 41.715 240.245 42.849 240.245 44.55C240.245 49.653 266.57 44.793 266.57 58.725C266.57 66.906 258.47 71.847 250.451 71.847C242.999 71.847 235.142 67.473 235.142 59.778C235.142 54.432 239.435 50.706 244.943 50.058C240.164 49.491 236.6 47.952 236.6 44.55C236.6 41.877 239.192 40.014 242.837 39.69C239.111 37.665 236.195 34.425 236.195 28.755C236.195 18.468 245.186 14.985 250.613 14.985ZM250.613 39.042C255.149 39.042 261.143 36.936 261.143 28.755C261.143 20.007 254.906 17.982 250.613 17.982C246.32 17.982 240.083 20.007 240.083 28.755C240.083 36.936 246.077 39.042 250.613 39.042ZM262.601 58.887C262.601 54.27 259.199 51.759 250.37 50.787C243.161 50.868 239.111 54.432 239.111 59.859C239.111 65.529 244.943 68.85 250.451 68.85C257.174 68.85 262.601 65.691 262.601 58.887ZM328.422 9.80101H305.418V24.786H322.995L322.185 34.182H305.418V55.485H294.807V0.81001H328.422V9.80101ZM363.95 55.485H356.984L355.364 50.625C353.501 53.055 349.289 56.295 342.971 56.295C333.089 56.295 328.553 50.787 328.553 39.852V15.795H339.083V39.933C339.083 46.008 341.27 48.195 346.049 48.195C348.803 48.195 351.314 47.142 353.177 45.846V15.795H363.95V55.485ZM398.141 53.622C395.792 54.999 391.661 56.295 387.449 56.295C380.402 56.295 375.785 52.974 375.785 43.011V23.328H369.872V15.795H375.785V8.91001L386.234 5.50801V15.795H396.845V23.328H386.234V42.768C386.234 45.522 387.611 47.304 390.446 47.304C392.633 47.304 394.901 46.656 396.521 45.846L398.141 53.622ZM439.651 55.485H432.685L431.065 50.625C429.202 53.055 424.99 56.295 418.672 56.295C408.79 56.295 404.254 50.787 404.254 39.852V15.795H414.784V39.933C414.784 46.008 416.971 48.195 421.75 48.195C424.504 48.195 427.015 47.142 428.878 45.846V15.795H439.651V55.485ZM471.249 15.633L471.006 24.624C469.71 24.219 467.847 23.976 466.065 23.976C463.23 23.976 460.719 25.191 458.937 26.649V55.485H448.407V15.795H455.778L456.912 21.141H457.155C458.37 18.306 461.934 15.066 466.632 15.066C468.738 15.066 470.358 15.39 471.249 15.633ZM509.16 38.475H484.455C484.455 44.793 488.019 48.276 494.661 48.276C498.711 48.276 502.842 46.737 506.325 44.955L508.35 52.407C505.029 54.189 499.602 56.295 493.365 56.295C481.134 56.295 473.844 48.681 473.844 35.559C473.844 23.328 479.757 14.985 492.474 14.985C504.462 14.985 509.16 23.895 509.16 33.858V38.475ZM498.954 32.238C498.954 27.135 497.415 22.761 491.907 22.761C486.642 22.761 484.455 27.54 484.455 32.238H498.954Z" fill="white"/>
</svg>
