<svg width="548" height="68" viewBox="0 0 548 68" fill="none" xmlns="http://www.w3.org/2000/svg">
<path d="M0 67.1263V16.1627H8.93849V58.9722H35.6813V67.1263H0ZM93.0257 41.5717C93.0257 45.1633 92.3716 48.561 91.0635 51.7645C89.7555 54.9679 87.9146 57.7832 85.5406 60.2098C83.167 62.5883 80.3569 64.4812 77.1108 65.8886C73.8651 67.2961 70.2797 68 66.3555 68C62.4313 68 58.8464 67.3206 55.6003 65.9615C52.3546 64.554 49.5686 62.6611 47.2432 60.2827C44.9177 57.9042 43.1011 55.1135 41.793 51.9101C40.4849 48.7066 39.8309 45.3089 39.8309 41.7173C39.8309 38.1256 40.4849 34.7281 41.793 31.5246C43.1011 28.3212 44.9422 25.5304 47.3158 23.152C49.6899 20.7252 52.5 18.808 55.7456 17.4004C58.9917 15.9929 62.5767 15.2891 66.5009 15.2891C70.4251 15.2891 74.0105 15.9929 77.2561 17.4004C80.5022 18.7595 83.2878 20.6281 85.6133 23.0064C87.9387 25.3847 89.7555 28.1756 91.0635 31.379C92.3716 34.5824 93.0257 37.98 93.0257 41.5717ZM83.6511 41.7173C83.6511 39.242 83.2151 36.9122 82.3431 34.7281C81.5196 32.4953 80.3328 30.5539 78.7822 28.9036C77.2807 27.2534 75.4639 25.9429 73.3319 24.9722C71.2004 24.0014 68.8749 23.5161 66.3555 23.5161C63.8366 23.5161 61.5111 24.0014 59.3792 24.9722C57.2962 25.8944 55.5035 27.1806 54.0015 28.8308C52.5 30.4325 51.3127 32.3497 50.4407 34.5824C49.6172 36.7666 49.2053 39.0964 49.2053 41.5717C49.2053 44.0471 49.6172 46.401 50.4407 48.6338C51.3127 50.818 52.5 52.735 54.0015 54.3854C55.5521 56.0358 57.393 57.3463 59.5245 58.3169C61.6565 59.2875 63.9819 59.773 66.5009 59.773C69.0203 59.773 71.3217 59.3121 73.4046 58.3897C75.5366 57.4191 77.3533 56.1328 78.8549 54.531C80.3569 52.8806 81.5196 50.9636 82.3431 48.7794C83.2151 46.5466 83.6511 44.1927 83.6511 41.7173ZM111.028 29.4861C111.028 30.5054 111.198 31.379 111.537 32.1071C111.876 32.8351 112.482 33.5146 113.354 34.1456C114.274 34.7766 115.509 35.359 117.06 35.8929C118.659 36.4268 120.669 36.985 123.092 37.5675C125.756 38.2469 128.106 38.9993 130.141 39.8244C132.224 40.6495 133.944 41.6688 135.3 42.8822C136.657 44.0471 137.674 45.4304 138.353 47.0321C139.079 48.5851 139.443 50.4298 139.443 52.5653C139.443 54.992 138.982 57.152 138.062 59.045C137.19 60.9379 135.954 62.5396 134.356 63.8501C132.757 65.1606 130.843 66.1558 128.615 66.8351C126.386 67.5145 123.939 67.8544 121.275 67.8544C117.351 67.8544 113.596 67.1991 110.011 65.8886C106.426 64.5295 103.107 62.4668 100.055 59.7002L105.433 53.2934C107.904 55.4288 110.398 57.0792 112.918 58.2441C115.437 59.3603 118.295 59.9186 121.493 59.9186C124.254 59.9186 126.435 59.3362 128.033 58.1713C129.68 57.0064 130.504 55.4288 130.504 53.439C130.504 52.5166 130.334 51.6916 129.995 50.9636C129.705 50.2355 129.123 49.5803 128.251 48.9979C127.427 48.3667 126.265 47.7843 124.763 47.2505C123.31 46.7168 121.396 46.1585 119.022 45.576C116.309 44.9449 113.887 44.2413 111.755 43.4647C109.672 42.6881 107.904 41.7173 106.45 40.5525C105.045 39.3876 103.955 37.98 103.18 36.3298C102.453 34.6795 102.09 32.6653 102.09 30.2869C102.09 28.0542 102.526 26.04 103.398 24.2441C104.27 22.3997 105.457 20.8223 106.959 19.5118C108.509 18.2013 110.35 17.2063 112.482 16.5268C114.613 15.7987 116.939 15.4347 119.458 15.4347C123.188 15.4347 126.531 15.9929 129.487 17.1092C132.49 18.177 135.3 19.7544 137.917 21.8415L133.12 28.6124C130.795 26.9137 128.493 25.6274 126.217 24.7537C123.939 23.8315 121.638 23.3705 119.313 23.3705C116.697 23.3705 114.662 23.9771 113.209 25.1906C111.755 26.3555 111.028 27.7873 111.028 29.4861ZM222.683 41.5717C222.683 45.1633 222.029 48.561 220.721 51.7645C219.413 54.9679 217.572 57.7832 215.198 60.2098C212.824 62.5883 210.014 64.4812 206.768 65.8886C203.522 67.2961 199.937 68 196.013 68C192.089 68 188.504 67.3206 185.258 65.9615C182.012 64.554 179.226 62.6611 176.901 60.2827C174.575 57.9042 172.758 55.1135 171.45 51.9101C170.142 48.7066 169.488 45.3089 169.488 41.7173C169.488 38.1256 170.142 34.7281 171.45 31.5246C172.758 28.3212 174.599 25.5304 176.973 23.152C179.347 20.7252 182.157 18.808 185.403 17.4004C188.649 15.9929 192.234 15.2891 196.158 15.2891C200.083 15.2891 203.668 15.9929 206.914 17.4004C210.16 18.7595 212.945 20.6281 215.271 23.0064C217.596 25.3847 219.413 28.1756 220.721 31.379C222.029 34.5824 222.683 37.98 222.683 41.5717ZM213.309 41.7173C213.309 39.242 212.873 36.9122 212.001 34.7281C211.177 32.4953 209.99 30.5539 208.44 28.9036C206.938 27.2534 205.121 25.9429 202.989 24.9722C200.858 24.0014 198.533 23.5161 196.013 23.5161C193.494 23.5161 191.168 24.0014 189.037 24.9722C186.953 25.8944 185.161 27.1806 183.659 28.8308C182.157 30.4325 180.97 32.3497 180.098 34.5824C179.275 36.7666 178.863 39.0964 178.863 41.5717C178.863 44.0471 179.275 46.401 180.098 48.6338C180.97 50.818 182.157 52.735 183.659 54.3854C185.209 56.0358 187.051 57.3463 189.182 58.3169C191.314 59.2875 193.639 59.773 196.158 59.773C198.678 59.773 200.979 59.3121 203.062 58.3897C205.194 57.4191 207.01 56.1328 208.512 54.531C210.014 52.8806 211.177 50.9636 212.001 48.7794C212.873 46.5466 213.309 44.1927 213.309 41.7173ZM277.739 58.9722C276.431 60.3796 275.051 61.6418 273.597 62.758C272.192 63.826 270.666 64.7725 269.019 65.5974C267.372 66.3742 265.555 66.9566 263.569 67.3447C261.631 67.7816 259.475 68 257.101 68C253.37 68 249.931 67.3206 246.782 65.9615C243.632 64.6023 240.895 62.758 238.57 60.4283C236.293 58.0498 234.5 55.2591 233.192 52.0557C231.884 48.8522 231.23 45.4063 231.23 41.7173C231.23 38.0771 231.86 34.6552 233.12 31.4518C234.428 28.2484 236.244 25.4575 238.57 23.0792C240.895 20.6524 243.657 18.7595 246.854 17.4004C250.052 15.9929 253.588 15.2891 257.464 15.2891C259.79 15.2891 261.897 15.4832 263.787 15.8715C265.724 16.2598 267.493 16.818 269.092 17.546C270.69 18.2255 272.168 19.0507 273.524 20.0214C274.881 20.9921 276.165 22.06 277.376 23.2248L271.635 29.8501C269.6 27.9572 267.444 26.4283 265.167 25.2634C262.89 24.0985 260.298 23.5161 257.392 23.5161C254.969 23.5161 252.716 24.0014 250.633 24.9722C248.598 25.8944 246.83 27.1806 245.328 28.8308C243.826 30.4325 242.664 32.3255 241.84 34.5096C241.016 36.6938 240.605 39.0478 240.605 41.5717C240.605 44.0957 241.016 46.4738 241.84 48.7066C242.664 50.8908 243.826 52.8078 245.328 54.4582C246.83 56.1086 248.598 57.4191 250.633 58.3897C252.716 59.3121 254.969 59.773 257.392 59.773C260.492 59.773 263.157 59.1906 265.385 58.0257C267.614 56.8121 269.818 55.1863 271.998 53.1478L277.739 58.9722ZM324.85 16.1627V24.1713H296.073V37.4218H321.58V45.4304H296.073V59.1178H325.214V67.1263H287.134V16.1627H324.85ZM307.555 11.94H300.724L308.427 0L316.421 3.56746L307.555 11.94ZM362.124 15.7987L384.507 67.1263H375.06L369.9 54.8223H345.846L340.614 67.1263H331.457L353.84 15.7987H362.124ZM366.63 46.8865L357.837 26.5011L349.116 46.8865H366.63ZM428.766 51.4004V16.1627H437.559V67.1263H430.074L402.023 30.8694V67.1263H393.23V16.1627H401.515L428.766 51.4004ZM501.586 41.5717C501.586 45.1633 500.932 48.561 499.624 51.7645C498.316 54.9679 496.472 57.7832 494.101 60.2098C491.726 62.5883 488.914 64.4812 485.671 65.8886C482.424 67.2961 478.84 68 474.916 68C470.992 68 467.404 67.3206 464.161 65.9615C460.913 64.554 458.129 62.6611 455.804 60.2827C453.478 57.9042 451.661 55.1135 450.353 51.9101C449.044 48.7066 448.39 45.3089 448.39 41.7173C448.39 38.1256 449.044 34.7281 450.353 31.5246C451.661 28.3212 453.501 25.5304 455.876 23.152C458.247 20.7252 461.059 18.808 464.306 17.4004C467.549 15.9929 471.137 15.2891 475.061 15.2891C478.986 15.2891 482.569 15.9929 485.817 17.4004C489.06 18.7595 491.848 20.6281 494.174 23.0064C496.499 25.3847 498.316 28.1756 499.624 31.379C500.932 34.5824 501.586 37.98 501.586 41.5717ZM492.212 41.7173C492.212 39.242 491.776 36.9122 490.904 34.7281C490.077 32.4953 488.892 30.5539 487.343 28.9036C485.839 27.2534 484.023 25.9429 481.892 24.9722C479.758 24.0014 477.432 23.5161 474.916 23.5161C472.395 23.5161 470.07 24.0014 467.94 24.9722C465.855 25.8944 464.061 27.1806 462.562 28.8308C461.059 30.4325 459.873 32.3497 459.001 34.5824C458.175 36.7666 457.766 39.0964 457.766 41.5717C457.766 44.0471 458.175 46.401 459.001 48.6338C459.873 50.818 461.059 52.735 462.562 54.3854C464.111 56.0358 465.95 57.3463 468.085 58.3169C470.215 59.2875 472.541 59.773 475.061 59.773C477.578 59.773 479.88 59.3121 481.965 58.3897C484.095 57.4191 485.912 56.1328 487.415 54.531C488.914 52.8806 490.077 50.9636 490.904 48.7794C491.776 46.5466 492.212 44.1927 492.212 41.7173ZM519.586 29.4861C519.586 30.5054 519.758 31.379 520.094 32.1071C520.435 32.8351 521.039 33.5146 521.911 34.1456C522.833 34.7766 524.069 35.359 525.617 35.8929C527.216 36.4268 529.228 36.985 531.649 37.5675C534.315 38.2469 536.663 38.9993 538.698 39.8244C540.783 40.6495 542.504 41.6688 543.858 42.8822C545.216 44.0471 546.233 45.4304 546.91 47.0321C547.637 48.5851 548 50.4298 548 52.5653C548 54.992 547.541 57.152 546.619 59.045C545.747 60.9379 544.512 62.5396 542.913 63.8501C541.314 65.1606 539.402 66.1558 537.172 66.8351C534.947 67.5145 532.498 67.8544 529.832 67.8544C525.908 67.8544 522.156 67.1991 518.568 65.8886C514.985 64.5295 511.665 62.4668 508.612 59.7002L513.99 53.2934C516.461 55.4288 518.959 57.0792 521.475 58.2441C523.996 59.3603 526.853 59.9186 530.05 59.9186C532.812 59.9186 534.992 59.3362 536.591 58.1713C538.239 57.0064 539.062 55.4288 539.062 53.439C539.062 52.5166 538.893 51.6916 538.553 50.9636C538.262 50.2355 537.681 49.5803 536.809 48.9979C535.987 48.3667 534.824 47.7843 533.32 47.2505C531.867 46.7168 529.955 46.1585 527.58 45.576C524.868 44.9449 522.447 44.2413 520.312 43.4647C518.232 42.6881 516.461 41.7173 515.008 40.5525C513.604 39.3876 512.514 37.98 511.737 36.3298C511.011 34.6795 510.647 32.6653 510.647 30.2869C510.647 28.0542 511.083 26.04 511.955 24.2441C512.827 22.3997 514.017 20.8223 515.516 19.5118C517.07 18.2013 518.909 17.2063 521.039 16.5268C523.174 15.7987 525.499 15.4347 528.016 15.4347C531.749 15.4347 535.092 15.9929 538.044 17.1092C541.051 18.177 543.858 19.7544 546.474 21.8415L541.678 28.6124C539.352 26.9137 537.054 25.6274 534.774 24.7537C532.498 23.8315 530.196 23.3705 527.87 23.3705C525.254 23.3705 523.219 23.9771 521.766 25.1906C520.312 26.3555 519.586 27.7873 519.586 29.4861Z" fill="white"/>
</svg>
