<?xml version="1.0" encoding="utf-8"?>
<!-- Generator: Adobe Illustrator 27.2.0, SVG Export Plug-In . SVG Version: 6.00 Build 0)  -->
<svg version="1.1" id="Capa_1" xmlns="http://www.w3.org/2000/svg" xmlns:xlink="http://www.w3.org/1999/xlink" x="0px" y="0px"
	 viewBox="0 0 1077 154" style="enable-background:new 0 0 1077 154;" xml:space="preserve">
<style type="text/css">
	.st0{fill:#FFFFFF;}
	.st1{fill:#D9D9D9;filter:url(#Adobe_OpacityMaskFilter);}
	.st2{mask:url(#mask0_244_1060_00000058586066831876582360000008660218849501041846_);}
</style>
<path class="st0" d="M790.8,111.8l1.1,1.7l1.3-0.9l-0.6-1.5L790.8,111.8z M790.6,38.5l1.8,0.8l0.7-1.6l-1.4-0.9L790.6,38.5z M783,55
	l-1.2,1.6l2,1.5l1-2.2L783,55z M784.2,95l1.9-0.7l-0.9-2.4l-2.1,1.5L784.2,95z M789.6,110.2c-9,6.1-18.9,9.1-30.2,9.1v4
	c12.1,0,22.8-3.2,32.5-9.8L789.6,110.2z M759.4,119.3c-12,0-21.1-3.7-27.3-10.9c-6.2-7.2-9.6-18-9.6-32.8h-4
	c0,15.3,3.5,27.2,10.6,35.4c7.1,8.2,17.4,12.2,30.3,12.2V119.3z M722.5,75.7c0-13.1,3.1-23.8,9.2-31.1c6-7.3,15.1-11.6,27.7-11.6v-4
	c-13.6,0-23.9,4.7-30.8,13c-6.8,8.3-10.1,20-10.1,33.7H722.5z M759.4,33c12.3,0,23,2.6,30.1,7.2l2.2-3.3c-8-5.2-19.6-7.9-32.3-7.9
	V33z M788.8,37.6l-7.7,16.5l3.6,1.7l7.7-16.5L788.8,37.6z M784.2,53.4c-4.7-3.6-12.7-6.3-22.3-6.3v4c8.9,0,16,2.5,19.9,5.4
	L784.2,53.4z M761.9,47.2c-7,0-12.5,2.2-16.3,7.2c-3.7,4.8-5.3,12-5.3,21.2h4c0-8.9,1.6-15,4.5-18.8c2.8-3.7,7-5.6,13.1-5.6V47.2z
	 M740.3,75.5c0,9.7,1.6,17.1,5.2,22.1c3.7,5.1,9.2,7.4,16.1,7.4v-4c-6,0-10.1-1.9-12.9-5.7c-2.9-4-4.5-10.3-4.5-19.7H740.3z
	 M761.6,105c8.6,0,17.6-3.8,23.8-8.3l-2.3-3.3c-5.7,4.1-13.9,7.6-21.5,7.6V105z M782.4,95.8l6.5,16.8l3.7-1.4l-6.5-16.8L782.4,95.8z
	 M873.4,120v2h2v-2H873.4z M852.7,120h-2v2h2V120z M852.7,85.2h2v-2h-2V85.2z M823.8,85.2v-2h-2v2H823.8z M823.8,120v2h2v-2H823.8z
	 M803.2,120h-2v2h2V120z M803.2,32.2v-2h-2v2H803.2z M823.8,32.2h2v-2h-2V32.2z M823.8,66.6h-2v2h2V66.6z M852.7,66.6v2h2v-2H852.7z
	 M852.7,32.2v-2h-2v2H852.7z M873.4,32.2h2v-2h-2V32.2z M873.4,118h-20.7v4h20.7V118z M854.7,120V85.2h-4V120H854.7z M852.7,83.2
	h-28.9v4h28.9V83.2z M821.8,85.2V120h4V85.2H821.8z M823.8,118h-20.7v4h20.7V118z M805.2,120V32.2h-4V120H805.2z M803.2,34.2h20.7
	v-4h-20.7V34.2z M821.8,32.2v34.3h4V32.2H821.8z M823.8,68.6h28.9v-4h-28.9V68.6z M854.7,66.6V32.2h-4v34.3H854.7z M852.7,34.2h20.7
	v-4h-20.7V34.2z M871.4,32.2V120h4V32.2H871.4z M912.1,120v2h2v-2H912.1z M891.5,120h-2v2h2V120z M891.5,32.2v-2h-2v2H891.5z
	 M912.1,32.2h2v-2h-2V32.2z M912.1,118h-20.5v4h20.5V118z M893.5,120V32.2h-4V120H893.5z M891.5,34.2h20.5v-4h-20.5V34.2z
	 M910.1,32.2V120h4V32.2H910.1z M986.9,120v2h2v-2H986.9z M930.2,120h-2v2h2V120z M930.2,32.2v-2h-2v2H930.2z M950.8,32.2h2v-2h-2
	V32.2z M950.8,102.7h-2v2h2V102.7z M986.9,102.7h2v-2h-2V102.7z M986.9,118h-56.7v4h56.7V118z M932.2,120V32.2h-4V120H932.2z
	 M930.2,34.2h20.5v-4h-20.5V34.2z M948.8,32.2v70.5h4V32.2H948.8z M950.8,104.7h36.1v-4h-36.1V104.7z M984.9,102.7V120h4v-17.3
	H984.9z M1053.3,120v2h2v-2H1053.3z M996.6,120h-2v2h2V120z M996.6,32.2v-2h-2v2H996.6z M1053.3,32.2h2v-2h-2V32.2z M1053.3,49.5v2
	h2v-2H1053.3z M1017.2,49.5v-2h-2v2H1017.2z M1017.2,66.8h-2v2h2V66.8z M1044.2,66.8l2,0.1l0.2-2.1h-2.2V66.8z M1042.9,84.9v2h1.9
	l0.1-1.9L1042.9,84.9z M1017.2,84.9v-2h-2v2H1017.2z M1017.2,102.8h-2v2h2V102.8z M1053.3,102.8h2v-2h-2V102.8z M1053.3,118h-56.7v4
	h56.7V118z M998.6,120V32.2h-4V120H998.6z M996.6,34.2h56.7v-4h-56.7V34.2z M1051.3,32.2v17.3h4V32.2H1051.3z M1053.3,47.5h-36.1v4
	h36.1V47.5z M1015.2,49.5v17.3h4V49.5H1015.2z M1017.2,68.8h27v-4h-27V68.8z M1042.2,66.7l-1.3,18.1l4,0.3l1.3-18.1L1042.2,66.7z
	 M1042.9,82.9h-25.7v4h25.7V82.9z M1015.2,84.9v17.9h4V84.9H1015.2z M1017.2,104.8h36.1v-4h-36.1V104.8z M1051.3,102.8V120h4v-17.2
	H1051.3z"/>
<defs>
	<filter id="Adobe_OpacityMaskFilter" filterUnits="userSpaceOnUse" x="27.2" y="30.4" width="664.3" height="88.9">
		<feColorMatrix  type="matrix" values="1 0 0 0 0  0 1 0 0 0  0 0 1 0 0  0 0 0 1 0"/>
	</filter>
</defs>
<mask maskUnits="userSpaceOnUse" x="27.2" y="30.4" width="664.3" height="88.9" id="mask0_244_1060_00000058586066831876582360000008660218849501041846_">
	<rect x="21" class="st1" width="671" height="154"/>
</mask>
<g class="st2">
	<path class="st0" d="M59.5,101l13.2-68.7H102l10.8,68.7h0.5l8.4-68.7h20.7L126.7,118H95.6L85.3,50.1h-0.3L71.9,118H42.8L27.2,32.3
		h23.2l8.8,68.7H59.5z M200.2,92.2h-37c0,7.1,4.6,11.8,14.2,11.8c5.5,0,11.4-1.9,17.5-4.6l3.6,14c-5.2,2.7-14,5.8-24.1,5.8
		c-19.9,0-31.5-12.3-31.5-32.5c0-18.8,9-32.3,30.1-32.3c19.4,0,27.2,13.8,27.2,29.5V92.2z M181.2,80.8c0-6.6-1.9-11.7-8.8-11.7
		c-6.6,0-9.1,6-9.1,11.7H181.2z M211.7,30.4h19.9v68.3c0,3,1.5,4.7,4.2,4.8l5.1,0.4v14.2c0,0-5.6,1.1-10.5,1.1
		c-12.7,0-18.7-6.7-18.7-17.4V30.4z M302.5,59.6L297.4,73c-4.3-2.4-9.9-3.6-14.9-3.6c-7.4,0-12.2,4.3-12.2,17.3
		c0,12.4,4.2,17.3,12.3,17.3c5.8,0,12.3-2.3,16.3-4.4l3.6,14.2c-3.3,1.8-12.1,5.5-21.7,5.5c-19.8,0-31-11.2-31-32.5
		c0-19.9,11-32.3,30.9-32.3C289.4,54.5,296.3,56.2,302.5,59.6z M339.4,54.5c19.6,0,30.5,14,30.5,32.3c0,21.3-10.9,32.5-30.5,32.5
		s-30.5-11.2-30.5-32.5C308.9,68.5,319.8,54.5,339.4,54.5z M339.4,104.5c6.1,0,9.8-3.8,9.8-17.8c0-14.5-3.9-17.8-9.8-17.8
		s-9.8,3.3-9.8,17.8C329.6,100.7,333.3,104.5,339.4,104.5z M439.2,71.9c0.4,2.4,0.5,5.2,0.5,8V118h-20.3V81.3
		c0-8.1-3.4-11.6-9.7-11.6c-3.3,0-6,1-8.4,2.2V118h-20.1V55.8h13.5l3.2,7c3.7-4.6,9.7-8.3,18.3-8.3c10.5,0,16.6,2.9,19.9,8.3
		c3.7-4.6,10-8.3,18.4-8.3c19.2,0,23.5,9.5,23.5,25.4V118h-20.3V81.3c0-8.1-3.8-11.6-10-11.6C444.4,69.7,441.6,70.8,439.2,71.9z
		 M545.5,92.2h-37c0,7.1,4.6,11.8,14.2,11.8c5.5,0,11.4-1.9,17.5-4.6l3.6,14c-5.2,2.7-14,5.8-24.1,5.8c-19.9,0-31.5-12.3-31.5-32.5
		c0-18.8,9-32.3,30.1-32.3c19.4,0,27.2,13.8,27.2,29.5V92.2z M526.5,80.8c0-6.6-1.9-11.7-8.8-11.7c-6.6,0-9.1,6-9.1,11.7H526.5z
		 M624.4,100l2.9,14.9c-4.3,2.3-10.5,4.4-17.7,4.4c-11.7,0-20.3-7.5-20.3-22.4V70h-8.9V55.8h9.3V45.1l19.6-6.4v17h15.9V70h-15.9
		v26.3c0,3.7,1.8,5.8,5.7,5.8C618.1,102.1,621.6,101.4,624.4,100z M661,54.5c19.6,0,30.5,14,30.5,32.3c0,21.3-10.9,32.5-30.5,32.5
		c-19.6,0-30.5-11.2-30.5-32.5C630.5,68.5,641.4,54.5,661,54.5z M661,104.5c6.1,0,9.8-3.8,9.8-17.8c0-14.5-3.9-17.8-9.8-17.8
		c-5.8,0-9.8,3.3-9.8,17.8C651.2,100.7,654.9,104.5,661,104.5z"/>
</g>
</svg>
