<?xml version="1.0" encoding="utf-8"?>
<!-- Generator: Adobe Illustrator 27.2.0, SVG Export Plug-In . SVG Version: 6.00 Build 0)  -->
<svg version="1.1" id="Capa_1" xmlns="http://www.w3.org/2000/svg" xmlns:xlink="http://www.w3.org/1999/xlink" x="0px" y="0px"
	 viewBox="0 0 428.9 177" style="enable-background:new 0 0 428.9 177;" xml:space="preserve">
<style type="text/css">
	.st0{fill:#FFFFFF;}
</style>
<g>
	<path class="st0" d="M45.7,69.5l7.6-39.4H70l6.2,39.4h0.3l4.8-39.4h11.8l-8.9,49.2H66.4l-5.9-39h-0.1l-7.6,39H36.1l-8.9-49.2h13.3
		l5,39.4H45.7z M126.2,64.5h-21.1c0,4.1,2.6,6.8,8.1,6.8c3.1,0,6.5-1.1,10-2.6l2,8c-3,1.5-8,3.4-13.8,3.4c-11.4,0-18-7.1-18-18.7
		c0-10.8,5.2-18.5,17.2-18.5c11.1,0,15.5,7.9,15.5,16.9V64.5z M115.3,57.9c0-3.8-1.1-6.7-5-6.7c-3.8,0-5.2,3.4-5.2,6.7H115.3z
		 M132.8,29h11.4v39.2c0,1.7,0.9,2.7,2.4,2.8l2.9,0.2v8.2c0,0-3.2,0.7-6,0.7c-7.3,0-10.7-3.9-10.7-10V29z M184.7,45.8l-2.9,7.7
		c-2.5-1.4-5.7-2-8.5-2c-4.2,0-7,2.5-7,9.9c0,7.1,2.4,9.9,7,9.9c3.3,0,7-1.3,9.3-2.5l2,8.2c-1.9,1-6.9,3.1-12.4,3.1
		c-11.3,0-17.7-6.4-17.7-18.7c0-11.4,6.3-18.5,17.7-18.5C177.2,42.8,181.1,43.8,184.7,45.8z M205.8,42.8c11.2,0,17.4,8,17.4,18.5
		c0,12.2-6.2,18.7-17.4,18.7c-11.2,0-17.4-6.4-17.4-18.7C188.4,50.9,194.6,42.8,205.8,42.8z M205.8,71.5c3.5,0,5.6-2.2,5.6-10.2
		c0-8.3-2.3-10.2-5.6-10.2c-3.3,0-5.6,1.9-5.6,10.2C200.2,69.4,202.3,71.5,205.8,71.5z M262.9,52.8c0.2,1.4,0.3,3,0.3,4.6v21.9
		h-11.6V58.2c0-4.7-2-6.6-5.5-6.6c-1.9,0-3.4,0.6-4.8,1.2v26.4h-11.5V43.6h7.7l1.8,4c2.1-2.6,5.5-4.7,10.5-4.7c6,0,9.5,1.7,11.4,4.7
		c2.1-2.6,5.7-4.7,10.5-4.7c11,0,13.4,5.5,13.4,14.6v21.9h-11.6V58.2c0-4.7-2.2-6.6-5.7-6.6C265.9,51.6,264.3,52.2,262.9,52.8z
		 M323.7,64.5h-21.1c0,4.1,2.6,6.8,8.1,6.8c3.1,0,6.5-1.1,10-2.6l2,8c-3,1.5-8,3.4-13.8,3.4c-11.4,0-18-7.1-18-18.7
		c0-10.8,5.2-18.5,17.2-18.5c11.1,0,15.5,7.9,15.5,16.9V64.5z M312.8,57.9c0-3.8-1.1-6.7-5-6.7c-3.8,0-5.2,3.4-5.2,6.7H312.8z
		 M368.8,68.9l1.7,8.5c-2.5,1.3-6,2.6-10.1,2.6c-6.7,0-11.6-4.3-11.6-12.8V51.7h-5.1v-8.2h5.3v-6.1l11.2-3.6v9.8h9.1v8.2h-9.1v15.1
		c0,2.1,1,3.4,3.3,3.4C365.2,70.2,367.2,69.7,368.8,68.9z M389.8,42.8c11.2,0,17.4,8,17.4,18.5c0,12.2-6.2,18.7-17.4,18.7
		c-11.2,0-17.4-6.4-17.4-18.7C372.3,50.9,378.6,42.8,389.8,42.8z M389.8,71.5c3.5,0,5.6-2.2,5.6-10.2c0-8.3-2.3-10.2-5.6-10.2
		c-3.3,0-5.6,1.9-5.6,10.2C384.2,69.4,386.3,71.5,389.8,71.5z"/>
	<path class="st0" d="M162.4,141.4l0.6,0.9l0.7-0.5l-0.3-0.8L162.4,141.4z M162.3,99.5l1,0.5l0.4-0.9l-0.8-0.5L162.3,99.5z
		 M157.9,108.9l-0.7,0.9l1.1,0.9l0.6-1.3L157.9,108.9z M158.7,131.8l1.1-0.4l-0.5-1.4l-1.2,0.9L158.7,131.8z M161.7,140.5
		c-5.1,3.5-10.8,5.2-17.2,5.2v2.3c6.9,0,13-1.9,18.5-5.6L161.7,140.5z M144.5,145.7c-6.9,0-12.1-2.1-15.6-6.2
		c-3.5-4.1-5.5-10.3-5.5-18.8h-2.3c0,8.8,2,15.6,6,20.3c4,4.7,9.9,7,17.3,7V145.7z M123.5,120.7c0-7.5,1.8-13.6,5.2-17.8
		c3.4-4.2,8.6-6.6,15.8-6.6V94c-7.7,0-13.6,2.7-17.5,7.5c-3.9,4.8-5.8,11.4-5.8,19.3H123.5z M144.5,96.3c7,0,13.1,1.5,17.2,4.1
		l1.2-1.9c-4.6-3-11.2-4.5-18.4-4.5V96.3z M161.3,99l-4.4,9.4l2.1,1l4.4-9.4L161.3,99z M158.6,108c-2.7-2-7.2-3.6-12.7-3.6v2.3
		c5.1,0,9.1,1.4,11.3,3.1L158.6,108z M145.9,104.4c-4,0-7.1,1.3-9.3,4.1c-2.1,2.8-3,6.8-3,12.2h2.3c0-5.1,0.9-8.6,2.6-10.8
		c1.6-2.1,4-3.2,7.5-3.2V104.4z M133.6,120.7c0,5.6,0.9,9.8,3,12.6c2.1,2.9,5.3,4.2,9.2,4.2v-2.3c-3.4,0-5.8-1.1-7.3-3.3
		c-1.6-2.3-2.6-5.9-2.6-11.3H133.6z M145.8,137.5c4.9,0,10-2.2,13.6-4.8l-1.3-1.9c-3.3,2.4-7.9,4.3-12.2,4.3V137.5z M157.6,132.2
		l3.7,9.6l2.1-0.8l-3.7-9.6L157.6,132.2z M209.5,146.1v1.1h1.1v-1.1H209.5z M197.7,146.1h-1.1v1.1h1.1V146.1z M197.7,126.2h1.1V125
		h-1.1V126.2z M181.2,126.2V125h-1.1v1.1H181.2z M181.2,146.1v1.1h1.1v-1.1H181.2z M169.4,146.1h-1.1v1.1h1.1V146.1z M169.4,95.9
		v-1.1h-1.1v1.1H169.4z M181.2,95.9h1.1v-1.1h-1.1V95.9z M181.2,115.5h-1.1v1.1h1.1V115.5z M197.7,115.5v1.1h1.1v-1.1H197.7z
		 M197.7,95.9v-1.1h-1.1v1.1H197.7z M209.5,95.9h1.1v-1.1h-1.1V95.9z M209.5,145h-11.8v2.3h11.8V145z M198.8,146.1v-19.9h-2.3v19.9
		H198.8z M197.7,125h-16.5v2.3h16.5V125z M180.1,126.2v19.9h2.3v-19.9H180.1z M181.2,145h-11.8v2.3h11.8V145z M170.6,146.1V95.9
		h-2.3v50.2H170.6z M169.4,97h11.8v-2.3h-11.8V97z M180.1,95.9v19.6h2.3V95.9H180.1z M181.2,116.7h16.5v-2.3h-16.5V116.7z
		 M198.8,115.5V95.9h-2.3v19.6H198.8z M197.7,97h11.8v-2.3h-11.8V97z M208.3,95.9v50.2h2.3V95.9H208.3z M231.5,146.1v1.1h1.1v-1.1
		H231.5z M219.8,146.1h-1.1v1.1h1.1V146.1z M219.8,95.9v-1.1h-1.1v1.1H219.8z M231.5,95.9h1.1v-1.1h-1.1V95.9z M231.5,145h-11.7v2.3
		h11.7V145z M221,146.1V95.9h-2.3v50.2H221z M219.8,97h11.7v-2.3h-11.7V97z M230.4,95.9v50.2h2.3V95.9H230.4z M274.2,146.1v1.1h1.1
		v-1.1H274.2z M241.9,146.1h-1.1v1.1h1.1V146.1z M241.9,95.9v-1.1h-1.1v1.1H241.9z M253.6,95.9h1.1v-1.1h-1.1V95.9z M253.6,136.2
		h-1.1v1.1h1.1V136.2z M274.2,136.2h1.1v-1.1h-1.1V136.2z M274.2,145h-32.3v2.3h32.3V145z M243,146.1V95.9h-2.3v50.2H243z M241.9,97
		h11.7v-2.3h-11.7V97z M252.5,95.9v40.3h2.3V95.9H252.5z M253.6,137.4h20.6v-2.3h-20.6V137.4z M273.1,136.2v9.9h2.3v-9.9H273.1z
		 M312.1,146.1v1.1h1.1v-1.1H312.1z M279.7,146.1h-1.1v1.1h1.1V146.1z M279.7,95.9v-1.1h-1.1v1.1H279.7z M312.1,95.9h1.1v-1.1h-1.1
		V95.9z M312.1,105.8v1.1h1.1v-1.1H312.1z M291.5,105.8v-1.1h-1.1v1.1H291.5z M291.5,115.7h-1.1v1.1h1.1V115.7z M306.9,115.7
		l1.1,0.1l0.1-1.2h-1.2V115.7z M306.1,126v1.1h1.1l0.1-1.1L306.1,126z M291.5,126v-1.1h-1.1v1.1H291.5z M291.5,136.3h-1.1v1.1h1.1
		V136.3z M312.1,136.3h1.1v-1.1h-1.1V136.3z M312.1,145h-32.3v2.3h32.3V145z M280.9,146.1V95.9h-2.3v50.2H280.9z M279.7,97h32.3
		v-2.3h-32.3V97z M310.9,95.9v9.9h2.3v-9.9H310.9z M312.1,104.6h-20.6v2.3h20.6V104.6z M290.3,105.8v9.9h2.3v-9.9H290.3z
		 M291.5,116.8h15.4v-2.3h-15.4V116.8z M305.7,115.6l-0.7,10.3l2.3,0.2l0.7-10.3L305.7,115.6z M306.1,124.9h-14.7v2.3h14.7V124.9z
		 M290.3,126v10.3h2.3V126H290.3z M291.5,137.4h20.6v-2.3h-20.6V137.4z M310.9,136.3v9.8h2.3v-9.8H310.9z"/>
</g>
</svg>
