<svg width="322" height="45" viewBox="0 0 322 45" fill="none" xmlns="http://www.w3.org/2000/svg">
<path d="M28.706 31.2711C28.706 37.9051 23.188 44.1051 13.64 44.1051C8.06 44.1051 3.348 42.1211 0 39.6411L3.1 33.2551C5.518 35.3631 9.92 37.2851 13.764 37.2851C17.608 37.2851 20.212 34.9291 20.212 31.7671C20.212 22.9011 0.868 27.3031 0.868 12.5471C0.868 6.22307 5.828 1.01508 15.624 1.01508C20.522 1.01508 24.676 2.06908 28.086 3.86708L25.358 10.3771C23.064 9.01307 19.344 8.08308 15.5 8.08308C11.718 8.08308 9.238 9.32308 9.238 12.4231C9.238 19.9251 28.706 17.0111 28.706 31.2711ZM54.3086 42.0591C52.5106 43.1131 49.3486 44.1051 46.1246 44.1051C40.7306 44.1051 37.1966 41.5631 37.1966 33.9371V18.8711H32.6706V13.1051H37.1966V7.83508L45.1946 5.23108V13.1051H53.3166V18.8711H45.1946V33.7511C45.1946 35.8591 46.2486 37.2231 48.4186 37.2231C50.0926 37.2231 51.8286 36.7271 53.0686 36.1071L54.3086 42.0591ZM70.991 12.4851C80.167 12.4851 85.251 19.3051 85.251 28.2331C85.251 38.5871 80.043 44.1051 70.991 44.1051C61.877 44.1051 56.731 38.6491 56.731 28.2331C56.731 19.3051 61.691 12.4851 70.991 12.4851ZM70.991 38.1531C74.959 38.1531 76.943 35.4871 76.943 28.2331C76.943 20.9171 74.773 18.3751 70.991 18.3751C67.209 18.3751 65.101 20.9791 65.101 28.2331C65.101 35.3011 67.023 38.1531 70.991 38.1531ZM108.754 12.9811L108.568 19.8631C107.576 19.5531 106.15 19.3671 104.786 19.3671C102.616 19.3671 100.694 20.2971 99.33 21.4131V43.4851H91.2703V13.1051H96.9123L97.78 17.1971H97.966C98.896 15.0271 101.624 12.5471 105.22 12.5471C106.832 12.5471 108.072 12.7951 108.754 12.9811ZM124.032 43.4851H115.972V18.9331L112.438 18.1891V13.1051H124.032V43.4851ZM115.724 8.08308V0.705078H123.908V8.08308H115.724ZM157.268 30.4651H138.358C138.358 35.3011 141.086 37.9671 146.17 37.9671C149.27 37.9671 152.432 36.7891 155.098 35.4251L156.648 41.1291C154.106 42.4931 149.952 44.1051 145.178 44.1051C135.816 44.1051 130.236 38.2771 130.236 28.2331C130.236 18.8711 134.762 12.4851 144.496 12.4851C153.672 12.4851 157.268 19.3051 157.268 26.9311V30.4651ZM149.456 25.6911C149.456 21.7851 148.278 18.4371 144.062 18.4371C140.032 18.4371 138.358 22.0951 138.358 25.6911H149.456ZM174.543 18.3131C171.753 18.3131 170.389 19.3671 170.389 21.1031C170.389 25.8151 183.533 24.3891 183.533 34.3091C183.533 39.8271 179.441 44.1051 171.567 44.1051C167.909 44.1051 164.499 43.0511 162.453 41.8731L164.127 36.2311C165.553 37.2231 168.529 38.3391 171.319 38.3391C173.985 38.3391 175.783 36.8511 175.783 34.9911C175.783 29.5351 162.825 31.3331 162.825 20.9791C162.825 16.5151 166.235 12.4851 174.419 12.4851C177.581 12.4851 180.867 13.1051 182.975 13.9731L181.859 19.8631C179.813 18.9331 177.209 18.3131 174.543 18.3131ZM232.976 39.8271C229.752 42.0591 225.598 44.1051 220.204 44.1051C208.982 44.1051 203.588 34.9911 203.588 22.2811C203.588 8.51707 210.346 1.01508 220.39 1.01508C225.164 1.01508 229.814 2.25508 232.666 4.36308L231.364 6.84308C228.822 4.85908 224.358 3.74308 220.328 3.74308C211.028 3.74308 206.75 11.4931 206.75 22.0951C206.75 33.4411 211.276 41.3771 220.204 41.3771C225.04 41.3771 229.008 39.6411 231.984 37.3471L232.976 39.8271ZM242.302 43.4851H239.264V0.705078H242.302V13.6631L242.054 16.7631C243.728 15.0891 246.952 12.4851 251.478 12.4851C258.298 12.4851 261.584 16.4531 261.584 24.0791V43.4851H258.484V24.9471C258.484 18.5611 256.624 14.9651 250.796 14.9651C247.076 14.9651 244.348 17.0731 242.302 19.1191V43.4851ZM274.626 43.4851H271.712V15.7711L268.426 15.1511V13.1051H274.626V43.4851ZM271.216 5.10708V1.32507H274.626V5.10708H271.216ZM290.04 44.1051C285.762 44.1051 283.592 41.8731 283.592 38.1531V0.705078H286.568V37.7811C286.568 40.2611 287.56 41.6871 290.412 41.7491L292.458 41.8111V43.7331C292.458 43.7331 291.218 44.1051 290.04 44.1051ZM321.973 29.1631H300.707C300.707 37.9671 305.109 41.6871 311.247 41.6871C315.587 41.6871 319.183 39.5171 320.981 38.2771L321.973 40.5091C319.369 42.1211 315.587 44.1051 311.061 44.1051C303.187 44.1051 297.731 38.7111 297.731 28.0471C297.731 18.2511 302.381 12.4851 310.255 12.4851C318.501 12.4851 321.973 19.3671 321.973 26.9931V29.1631ZM318.997 26.7451C318.997 20.7931 316.889 14.8411 310.069 14.8411C303.435 14.8411 300.707 20.7931 300.707 26.7451H318.997Z" fill="white"/>
</svg>
