<svg width="50.2" height="55" xmlns="http://www.w3.org/2000/svg" xml:space="preserve" version="1.1">

 <g>
  <title>Layer 1</title>
  <g id="Grupo_83_5_">
   <path fill="#939393" d="m44.719,28.564l-0.8,0l0,-13.3l-13.6,-15.1l-23,0c-4,0 -7.2,3.2 -7.2,7.2l0,40.3c0,4 3.2,7.2 7.2,7.2l29.4,0c4,0 7.2,-3.2 7.2,-7.2l0,0l0.8,0c2.9,0 5.3,-2.4 5.3,-5.3l0,-8.4c-0.1,-3 -2.4,-5.4 -5.3,-5.4zm-13.4,-22.3l7,7.9l-7,0l0,-7.9zm9.1,41.3c0,2.1 -1.7,3.8 -3.8,3.8l-29.3,0c-2.1,0 -3.8,-1.7 -3.8,-3.8l0,-40.3c0,-2.1 1.7,-3.8 3.8,-3.8l20.6,0l0,14l12.6,0l0,11l-18,0c-2.9,0 -5.3,2.4 -5.3,5.3l0,8.4c0,2.9 2.4,5.3 5.3,5.3l17.9,0.1l0,0zm6.1,-5.3c0,1 -0.8,1.9 -1.9,1.9l-22.1,0c-1,0 -1.9,-0.8 -1.9,-1.9l0,-8.4c0,-1 0.8,-1.9 1.9,-1.9l22.2,0c1,0 1.9,0.8 1.9,1.9l-0.1,8.4z" class="st0" id="Trazado_17_5_"/>
  </g>
  <g id="svg_1">
   <path id="svg_2" fill="#939393" d="m30.7,36.8c0,0.8 -0.2,1.4 -0.7,1.8c-0.5,0.4 -1.1,0.6 -1.9,0.6l-0.5,0l0,2.3l-1.9,0l0,-6.9l2.3,0c0.9,0 1.5,0.2 2,0.6c0.4,0.4 0.7,0.9 0.7,1.6zm-3.2,0.9l0.3,0c0.3,0 0.5,-0.1 0.7,-0.2c0.2,-0.2 0.2,-0.4 0.2,-0.7c0,-0.5 -0.3,-0.7 -0.8,-0.7l-0.5,0l0,1.6l0.1,0z" class="st0"/>
   <path id="svg_3" fill="#939393" d="m37.3,37.9c0,1.2 -0.3,2 -1,2.7c-0.6,0.6 -1.5,0.9 -2.7,0.9l-2.2,0l0,-6.9l2.4,0c1.1,0 2,0.3 2.6,0.9c0.6,0.6 0.9,1.4 0.9,2.4zm-2,0.1c0,-0.6 -0.1,-1.1 -0.4,-1.4c-0.3,-0.3 -0.6,-0.5 -1.1,-0.5l-0.5,0l0,3.9l0.4,0c0.6,0 1,-0.2 1.3,-0.5c0.2,-0.3 0.3,-0.8 0.3,-1.5z" class="st0"/>
   <path id="svg_4" fill="#939393" d="m40,41.6l-1.8,0l0,-6.9l4.1,0l0,1.5l-2.3,0l0,1.3l2,0l0,1.5l-2,0l0,2.6z" class="st0"/>
  </g>
  <rect stroke-width="0" stroke-dasharray="5,2,2,2,2,2" id="svg_7" height="7.71083" width="19.99996" y="33.88553" x="23.89519" stroke="#000" fill="#fff"/>
  <text font-style="normal" font-weight="bold" xml:space="preserve" text-anchor="start" font-family="'Poppins'" font-size="12" stroke-width="0" id="svg_8" y="42.56021" x="27.7506" stroke-dasharray="5,2,2,2,2,2" fill="#939393">Ai</text>
 </g>
</svg>