<?xml version="1.0" encoding="utf-8"?>
<!-- Generator: Adobe Illustrator 24.2.3, SVG Export Plug-In . SVG Version: 6.00 Build 0)  -->
<svg version="1.1" id="Capa_1" xmlns="http://www.w3.org/2000/svg" xmlns:xlink="http://www.w3.org/1999/xlink" x="0px" y="0px"
	 viewBox="0 0 50.2 55" style="enable-background:new 0 0 50.2 55;" xml:space="preserve">
<style type="text/css">
	.st0{fill:#939393;}
</style>
<g>
	<g id="Grupo_83_5_" transform="translate(-28.281 -24.036)">
		<path id="Trazado_17_5_" class="st0" d="M73,52.6h-0.8V39.3L58.6,24.2h-23c-4,0-7.2,3.2-7.2,7.2v40.3c0,4,3.2,7.2,7.2,7.2h29.4
			c4,0,7.2-3.2,7.2-7.2v0H73c2.9,0,5.3-2.4,5.3-5.3v-8.4C78.2,55,75.9,52.6,73,52.6z M59.6,30.3l7,7.9h-7V30.3z M68.7,71.6
			c0,2.1-1.7,3.8-3.8,3.8H35.6c-2.1,0-3.8-1.7-3.8-3.8V31.3c0-2.1,1.7-3.8,3.8-3.8h20.6v14h12.6v11H50.8c-2.9,0-5.3,2.4-5.3,5.3v8.4
			c0,2.9,2.4,5.3,5.3,5.3L68.7,71.6L68.7,71.6z M74.8,66.3c0,1-0.8,1.9-1.9,1.9H50.8c-1,0-1.9-0.8-1.9-1.9v-8.4c0-1,0.8-1.9,1.9-1.9
			H73c1,0,1.9,0.8,1.9,1.9L74.8,66.3z"/>
	</g>
	<g>
		<path class="st0" d="M27.1,42.2c-0.3,0-0.6,0-1-0.1v-1.5c0.1,0,0.2,0,0.3,0.1c0.1,0,0.2,0,0.4,0c0.3,0,0.5-0.1,0.7-0.3
			c0.1-0.2,0.2-0.5,0.2-1v-4.4h1.9v4.2c0,0.9-0.2,1.6-0.6,2.1S27.9,42.2,27.1,42.2z"/>
		<path class="st0" d="M35.7,37.3c0,0.8-0.2,1.4-0.7,1.8s-1.1,0.6-1.9,0.6h-0.5V42h-1.9V35h2.4c0.9,0,1.5,0.2,2,0.6
			C35.5,36,35.7,36.6,35.7,37.3z M32.5,38.2h0.3c0.3,0,0.5-0.1,0.7-0.2c0.2-0.2,0.2-0.4,0.2-0.7c0-0.5-0.3-0.7-0.8-0.7h-0.5V38.2z"
			/>
		<path class="st0" d="M39.2,37.9h3v3.7c-0.8,0.3-1.7,0.4-2.7,0.4c-1.1,0-1.9-0.3-2.5-0.9c-0.6-0.6-0.9-1.5-0.9-2.7
			c0-1.1,0.3-2,1-2.6c0.6-0.6,1.5-0.9,2.7-0.9c0.4,0,0.8,0,1.2,0.1s0.7,0.2,1,0.3l-0.6,1.5c-0.5-0.2-1-0.4-1.6-0.4
			c-0.5,0-1,0.2-1.3,0.5c-0.3,0.4-0.4,0.9-0.4,1.5c0,0.6,0.1,1.1,0.4,1.5c0.3,0.3,0.7,0.5,1.2,0.5c0.3,0,0.5,0,0.8-0.1v-1.1h-1.2
			V37.9z"/>
	</g>
</g>
</svg>
