<?xml version="1.0" encoding="utf-8"?>
<!-- Generator: Adobe Illustrator 24.2.3, SVG Export Plug-In . SVG Version: 6.00 Build 0)  -->
<svg version="1.1" id="Capa_1" xmlns="http://www.w3.org/2000/svg" xmlns:xlink="http://www.w3.org/1999/xlink" x="0px" y="0px"
	 viewBox="0 0 50.2 55" style="enable-background:new 0 0 50.2 55;" xml:space="preserve">
<style type="text/css">
	.st0{fill:#939393;}
</style>
<g id="Grupo_83_5_" transform="translate(-28.281 -24.036)">
	<path id="Trazado_17_5_" class="st0" d="M73,52.6h-0.8V39.3L58.6,24.2h-23c-4,0-7.2,3.2-7.2,7.2v40.3c0,4,3.2,7.2,7.2,7.2h29.4
		c4,0,7.2-3.2,7.2-7.2v0H73c2.9,0,5.3-2.4,5.3-5.3v-8.4C78.2,55,75.9,52.6,73,52.6z M59.6,30.3l7,7.9h-7V30.3z M68.7,71.6
		c0,2.1-1.7,3.8-3.8,3.8H35.6c-2.1,0-3.8-1.7-3.8-3.8V31.3c0-2.1,1.7-3.8,3.8-3.8h20.6v14h12.6v11H50.8c-2.9,0-5.3,2.4-5.3,5.3v8.4
		c0,2.9,2.4,5.3,5.3,5.3L68.7,71.6L68.7,71.6z M74.8,66.3c0,1-0.8,1.9-1.9,1.9H50.8c-1,0-1.9-0.8-1.9-1.9v-8.4c0-1,0.8-1.9,1.9-1.9
		H73c1,0,1.9,0.8,1.9,1.9L74.8,66.3z"/>
</g>
<g>
	<path class="st0" d="M25.9,41.9l-1.4-5h0c0.1,0.9,0.1,1.5,0.1,2v3h-1.7v-6.9h2.5l1.4,4.9h0l1.4-4.9h2.5v6.9h-1.7v-3
		c0-0.2,0-0.3,0-0.5c0-0.2,0-0.7,0.1-1.4h0l-1.4,5H25.9z"/>
	<path class="st0" d="M38.4,38.4c0,1.2-0.3,2.1-0.9,2.7C37,41.7,36.1,42,35,42c-1.1,0-1.9-0.3-2.5-0.9c-0.6-0.6-0.9-1.5-0.9-2.7
		c0-1.2,0.3-2,0.9-2.6c0.6-0.6,1.4-0.9,2.5-0.9c1.1,0,1.9,0.3,2.5,0.9C38.1,36.3,38.4,37.2,38.4,38.4z M33.6,38.4c0,1.3,0.5,2,1.4,2
		c0.5,0,0.8-0.2,1.1-0.5c0.2-0.3,0.3-0.8,0.3-1.5c0-0.7-0.1-1.2-0.3-1.5c-0.2-0.3-0.6-0.5-1-0.5C34.1,36.4,33.6,37,33.6,38.4z"/>
	<path class="st0" d="M43.2,34.9h2.1L43,41.9h-2.2l-2.3-6.9h2.1l0.9,3.5c0.2,0.8,0.3,1.3,0.3,1.6c0-0.2,0.1-0.5,0.1-0.8
		c0.1-0.3,0.1-0.6,0.2-0.8L43.2,34.9z"/>
</g>
</svg>
