<?xml version="1.0" encoding="utf-8"?>
<!-- Generator: Adobe Illustrator 24.2.3, SVG Export Plug-In . SVG Version: 6.00 Build 0)  -->
<svg version="1.1" id="Capa_1" xmlns="http://www.w3.org/2000/svg" xmlns:xlink="http://www.w3.org/1999/xlink" x="0px" y="0px"
	 viewBox="0 0 50.2 55" style="enable-background:new 0 0 50.2 55;" xml:space="preserve">
<style type="text/css">
	.st0{fill:#939393;}
</style>
<g id="Grupo_83_5_" transform="translate(-28.281 -24.036)">
	<path id="Trazado_17_5_" class="st0" d="M73,52.6h-0.8V39.3L58.6,24.2h-23c-4,0-7.2,3.2-7.2,7.2v40.3c0,4,3.2,7.2,7.2,7.2h29.4
		c4,0,7.2-3.2,7.2-7.2v0H73c2.9,0,5.3-2.4,5.3-5.3v-8.4C78.2,55,75.9,52.6,73,52.6z M59.6,30.3l7,7.9h-7V30.3z M68.7,71.6
		c0,2.1-1.7,3.8-3.8,3.8H35.6c-2.1,0-3.8-1.7-3.8-3.8V31.3c0-2.1,1.7-3.8,3.8-3.8h20.6v14h12.6v11H50.8c-2.9,0-5.3,2.4-5.3,5.3v8.4
		c0,2.9,2.4,5.3,5.3,5.3L68.7,71.6L68.7,71.6z M74.8,66.3c0,1-0.8,1.9-1.9,1.9H50.8c-1,0-1.9-0.8-1.9-1.9v-8.4c0-1,0.8-1.9,1.9-1.9
		H73c1,0,1.9,0.8,1.9,1.9L74.8,66.3z"/>
</g>
<g>
	<path class="st0" d="M30.6,37.1c0,0.8-0.2,1.4-0.7,1.8c-0.5,0.4-1.1,0.6-1.9,0.6h-0.5v2.3h-1.9v-6.9H28c0.9,0,1.5,0.2,2,0.6
		C30.4,35.9,30.6,36.4,30.6,37.1z M27.4,38h0.3c0.3,0,0.5-0.1,0.7-0.2c0.2-0.2,0.2-0.4,0.2-0.7c0-0.5-0.3-0.7-0.8-0.7h-0.5V38z"/>
	<path class="st0" d="M36.3,37.1c0,0.8-0.2,1.4-0.7,1.8s-1.1,0.6-1.9,0.6h-0.5v2.3h-1.9v-6.9h2.4c0.9,0,1.5,0.2,2,0.6
		C36.1,35.9,36.3,36.4,36.3,37.1z M33.2,38h0.3c0.3,0,0.5-0.1,0.7-0.2c0.2-0.2,0.2-0.4,0.2-0.7c0-0.5-0.3-0.7-0.8-0.7h-0.5V38z"/>
	<path class="st0" d="M40.1,41.9h-1.9v-5.4h-1.7v-1.5h5.3v1.5h-1.7V41.9z"/>
</g>
</svg>
