<svg width="17" height="17" viewBox="0 0 17 17" fill="none" xmlns="http://www.w3.org/2000/svg">
<path fill-rule="evenodd" clip-rule="evenodd" d="M0.442693 13.2808H7.35812C7.60271 13.2808 7.80081 13.0827 7.80081 12.8381C7.80081 12.5935 7.60271 12.3954 7.35812 12.3954H0.885385V0.885385H13.9985V9.29654C13.9985 9.54113 14.1966 9.73923 14.4412 9.73923C14.6858 9.73923 14.8839 9.54113 14.8839 9.29654V0.442692C14.8839 0.198105 14.6858 0 14.4412 0H0.442693C0.198105 0 0 0.198105 0 0.442692V12.8381C0 13.0827 0.198105 13.2808 0.442693 13.2808ZM8.25569 5.9133C8.34202 6.03947 8.48147 6.10808 8.62313 6.10808C8.70835 6.10808 8.79467 6.08263 8.87103 6.03172C9.07357 5.89559 9.12669 5.62002 8.98946 5.41748C8.79135 5.1242 8.68621 4.78222 8.68621 4.42807C8.68621 3.45082 9.48084 2.65619 10.457 2.65619C11.4331 2.65619 12.2277 3.45082 12.2277 4.42807C12.2277 4.67265 12.4259 4.87076 12.6704 4.87076C12.915 4.87076 13.1131 4.67265 13.1131 4.42807C13.1131 2.96276 11.9212 1.77081 10.457 1.77081C8.99277 1.77081 7.80083 2.96276 7.80083 4.42807C7.80083 4.9604 7.95798 5.47393 8.25569 5.9133ZM8.24343 9.73922C8.13054 9.73922 8.01655 9.69606 7.93022 9.60973L5.58728 7.26678L3.68702 9.16704C3.51437 9.33969 3.23326 9.33969 3.06061 9.16704C2.88796 8.99439 2.88796 8.71439 3.06061 8.54063L5.27407 6.32717C5.44672 6.15452 5.72783 6.15452 5.90048 6.32717L8.55663 8.98332C8.72928 9.15597 8.72928 9.43598 8.55663 9.60973C8.47031 9.69606 8.35742 9.73922 8.24343 9.73922ZM10.7538 9.76218C10.7042 9.7666 10.6571 9.78596 10.6188 9.8177C10.5805 9.84943 10.5527 9.89248 10.5391 9.94028C10.5255 9.98808 10.5267 10.0389 10.5425 10.086L12.7275 16.5868C12.7428 16.6321 12.771 16.672 12.8086 16.7016C12.8462 16.7312 12.8916 16.7492 12.9393 16.7533C12.9869 16.7575 13.0348 16.7477 13.077 16.7251C13.1192 16.7025 13.1538 16.6681 13.1768 16.6262L14.398 14.3837L16.8286 13.6034C16.8743 13.5888 16.9148 13.5612 16.945 13.524C16.9752 13.4867 16.9939 13.4415 16.9988 13.3938C17.0036 13.3461 16.9945 13.298 16.9724 13.2554C16.9503 13.2128 16.9162 13.1776 16.8744 13.1542L10.8966 9.79294C10.8532 9.76849 10.8034 9.75776 10.7538 9.76218Z" fill="#FFFFFF"/>
</svg>
