<svg width="17" height="21" viewBox="0 0 17 21" fill="none" xmlns="http://www.w3.org/2000/svg">
<path fill-rule="evenodd" clip-rule="evenodd" d="M7.46223 1.65584C7.46223 1.96079 7.70923 2.20779 8.01418 2.20779C8.31913 2.20779 8.56613 1.96079 8.56613 1.65584V1.10389H9.11807C9.42302 1.10389 9.67002 0.856897 9.67002 0.551947C9.67002 0.246996 9.42302 0 9.11807 0H8.01418C7.70923 0 7.46223 0.246996 7.46223 0.551947V1.65584ZM15.6311 1.65584C15.6311 1.96079 15.8781 2.20779 16.183 2.20779C16.488 2.20779 16.735 1.96079 16.735 1.65584V0.551947C16.735 0.246996 16.488 0 16.183 0H15.0791C14.7742 0 14.5272 0.246996 14.5272 0.551947C14.5272 0.856897 14.7742 1.10389 15.0791 1.10389H15.6311V1.65584ZM15.3441 16.2052H16.448C16.7529 16.2052 16.9999 15.9582 16.9999 15.6532V14.5493C16.9999 14.2444 16.7529 13.9974 16.448 13.9974C16.143 13.9974 15.896 14.2444 15.896 14.5493V15.1013H15.3441C15.0391 15.1013 14.7921 15.3483 14.7921 15.6532C14.7921 15.9582 15.0391 16.2052 15.3441 16.2052ZM16.4482 5.96102C16.1432 5.96102 15.8962 5.71402 15.8962 5.40907V4.30518C15.8962 4.00023 16.1432 3.75323 16.4482 3.75323C16.7531 3.75323 17.0001 4.00023 17.0001 4.30518V5.40907C17.0001 5.71402 16.7531 5.96102 16.4482 5.96102ZM15.8962 8.72079C15.8962 9.02575 16.1432 9.27274 16.4482 9.27274C16.7531 9.27274 17.0001 9.02575 17.0001 8.72079V7.6169C17.0001 7.31195 16.7531 7.06495 16.4482 7.06495C16.1432 7.06495 15.8962 7.31195 15.8962 7.6169V8.72079ZM8.27941 5.96105C7.97446 5.96105 7.72746 5.71406 7.72746 5.40911V4.30521C7.72746 4.00026 7.97446 3.75327 8.27941 3.75327C8.58436 3.75327 8.83136 4.00026 8.83136 4.30521V5.40911C8.83136 5.71406 8.58436 5.96105 8.27941 5.96105ZM7.72746 8.72076C7.72746 9.02571 7.97446 9.27271 8.27941 9.27271C8.58436 9.27271 8.83136 9.02571 8.83136 8.72076V7.61687C8.83136 7.31192 8.58436 7.06492 8.27941 7.06492C7.97446 7.06492 7.72746 7.31192 7.72746 7.61687V8.72076ZM16.4482 12.8935C16.1432 12.8935 15.8962 12.6465 15.8962 12.3415V11.2376C15.8962 10.9327 16.1432 10.6857 16.4482 10.6857C16.7531 10.6857 17.0001 10.9327 17.0001 11.2376V12.3415C17.0001 12.6465 16.7531 12.8935 16.4482 12.8935ZM12.0324 16.2052H13.1363C13.4412 16.2052 13.6882 15.9582 13.6882 15.6532C13.6882 15.3483 13.4412 15.1013 13.1363 15.1013H12.0324C11.7274 15.1013 11.4804 15.3483 11.4804 15.6532C11.4804 15.9582 11.7274 16.2052 12.0324 16.2052ZM12.8713 1.10389H11.7674C11.4625 1.10389 11.2155 0.856897 11.2155 0.551947C11.2155 0.246996 11.4625 0 11.7674 0H12.8713C13.1763 0 13.4233 0.246996 13.4233 0.551947C13.4233 0.856897 13.1763 1.10389 12.8713 1.10389ZM10.0454 20.0908H0.551947C0.246996 20.0908 0 19.8439 0 19.5389V12.0324C0 11.7275 0.246996 11.4805 0.551947 11.4805H7.72746V10.9285C7.72746 10.6236 7.97446 10.3766 8.27941 10.3766C8.58436 10.3766 8.83136 10.6236 8.83136 10.9285V11.4805H10.0454C10.3504 11.4805 10.5974 11.7275 10.5974 12.0324V19.5389C10.5974 19.8439 10.3504 20.0908 10.0454 20.0908ZM1.10389 18.987H9.49348V12.5844H1.10389V18.987ZM3.86364 5.96101C3.72289 5.96101 3.58076 5.90719 3.47313 5.79956C3.25787 5.5843 3.25787 5.2352 3.47313 5.01856L4.73844 3.75325H1.10389V8.72077C1.10389 9.02572 0.856897 9.27272 0.551947 9.27272C0.246996 9.27272 0 9.02572 0 8.72077V3.2013C0 2.89635 0.246996 2.64936 0.551947 2.64936H4.7385L3.47313 1.38399C3.25787 1.16873 3.25787 0.819625 3.47313 0.602986C3.68839 0.387727 4.03888 0.387727 4.25414 0.602986L6.46192 2.81077C6.57221 2.92106 6.62599 3.06648 6.62327 3.21122C6.62143 3.31588 6.5905 3.4134 6.53821 3.49607C6.51681 3.53 6.49139 3.56213 6.46192 3.59178L4.25414 5.79956C4.14651 5.90719 4.00576 5.96101 3.86364 5.96101Z" fill="#E4032C"/>
</svg>
