<svg width="8" height="9" viewBox="0 0 8 9" fill="none" xmlns="http://www.w3.org/2000/svg">
<path fill-rule="evenodd" clip-rule="evenodd" d="M4 0C4.11786 0 4.23089 0.0442818 4.31423 0.123104C4.39756 0.201926 4.44438 0.308832 4.44438 0.420303V7.56434L7.24043 4.91895C7.32388 4.84003 7.43705 4.79569 7.55506 4.79569C7.67306 4.79569 7.78624 4.84003 7.86968 4.91895C7.95312 4.99787 8 5.10491 8 5.21652C8 5.32814 7.95312 5.43518 7.86968 5.5141L4.31462 8.87652C4.27334 8.91566 4.22431 8.94672 4.17032 8.9679C4.11633 8.98909 4.05845 9 4 9C3.94155 9 3.88367 8.98909 3.82968 8.9679C3.7757 8.94672 3.72666 8.91566 3.68538 8.87652L0.130321 5.5141C0.0468777 5.43518 -2.78032e-09 5.32814 0 5.21652C2.78032e-09 5.10491 0.0468777 4.99787 0.130321 4.91895C0.213764 4.84003 0.326937 4.79569 0.444943 4.79569C0.56295 4.79569 0.676123 4.84003 0.759566 4.91895L3.55562 7.56434V0.420303C3.55562 0.308832 3.60244 0.201926 3.68578 0.123104C3.76911 0.0442818 3.88214 0 4 0Z" fill="#0B3067"/>
</svg>
