<svg width="21" height="21" viewBox="0 0 21 21" fill="none" xmlns="http://www.w3.org/2000/svg">
<path fill-rule="evenodd" clip-rule="evenodd" d="M10.1379 0C9.33805 0 8.68966 0.648415 8.68966 1.44828V10.8621C8.68966 11.662 9.33805 12.3103 10.1379 12.3103H19.5517C20.3516 12.3103 21 11.662 21 10.8621V1.44828C21 0.648416 20.3516 0 19.5517 0H10.1379ZM6.67757 7.07427C6.67757 6.92652 6.61889 6.78485 6.51442 6.68039C6.40995 6.57593 6.26828 6.51724 6.12054 6.51724H1.67109C1.22788 6.51724 0.802837 6.69329 0.489446 7.00669C0.176052 7.32009 0 7.74509 0 8.18833V19.3289C0 19.7722 0.176052 20.1971 0.489446 20.5106C0.802837 20.824 1.22788 21 1.67109 21H12.8117C13.2549 21 13.6799 20.824 13.9933 20.5106C14.3067 20.1971 14.4828 19.7722 14.4828 19.3289V14.8805C14.4828 14.7327 14.4241 14.591 14.3196 14.4865C14.2151 14.3821 14.0735 14.3234 13.9258 14.3234C13.778 14.3234 13.6363 14.3821 13.5318 14.4865C13.4274 14.591 13.3687 14.7327 13.3687 14.8805V19.3289C13.3687 19.4766 13.31 19.6183 13.2055 19.7228C13.1011 19.8273 12.9594 19.8859 12.8117 19.8859H1.67109C1.52335 19.8859 1.38167 19.8273 1.27721 19.7228C1.17274 19.6183 1.11406 19.4766 1.11406 19.3289V8.18833C1.11406 8.04061 1.17274 7.8989 1.27721 7.79448C1.38167 7.68998 1.52335 7.63133 1.67109 7.63133H6.12054C6.26828 7.63133 6.40995 7.5726 6.51442 7.46818C6.61889 7.36369 6.67757 7.22202 6.67757 7.07427Z" fill="white"/>
</svg>
