<svg width="12" height="8" viewBox="0 0 12 8" fill="none" xmlns="http://www.w3.org/2000/svg">
<path fill-rule="evenodd" clip-rule="evenodd" d="M0.000183468 2.5025C0.0176784 3.86429 1.14044 4.95847 2.50196 4.94097H2.50299C3.86451 4.92347 4.95846 3.80048 4.94097 2.43868C4.92347 1.07688 3.80071 -0.0172915 2.43919 0.000206993C1.07767 0.0177055 -0.0162824 1.13967 0.000183468 2.5025ZM0.824505 2.49117C0.812156 1.58331 1.5418 0.83499 2.44948 0.823667C3.35716 0.811316 4.1043 1.54111 4.11665 2.44897C4.129 3.35684 3.39935 4.10413 2.49167 4.11648C1.58399 4.12883 0.836855 3.39904 0.824505 2.49117ZM9.20834 4.94097C7.84654 4.95847 6.72355 3.8643 6.70605 2.5025C6.68855 1.1407 7.78273 0.0177055 9.14452 0.000206993C10.5063 -0.0172915 11.6293 1.07688 11.6468 2.43868C11.6643 3.80048 10.5701 4.92347 9.20834 4.94097ZM9.15585 0.823667C8.24798 0.83499 7.51819 1.58331 7.53054 2.49117C7.54289 3.39904 8.29018 4.12883 9.19805 4.11648C10.1059 4.10413 10.8357 3.35684 10.8234 2.44897C10.811 1.54111 10.0637 0.811316 9.15585 0.823667ZM12 7.05882C12 7.25382 11.819 7.41177 11.5956 7.41177H0.404412C0.180974 7.41177 0 7.25382 0 7.05882C0 6.86382 0.180974 6.70588 0.404412 6.70588H11.5956C11.819 6.70588 12 6.86382 12 7.05882Z" fill="#FFFFFF"/>
</svg>
