<svg width="17" height="14" viewBox="0 0 17 14" fill="none" xmlns="http://www.w3.org/2000/svg">
<path fill-rule="evenodd" clip-rule="evenodd" d="M0.495643 13.3824H16.3562C16.6301 13.3824 16.8519 13.1606 16.8519 12.8867V0.495643C16.8519 0.2218 16.6301 0 16.3562 0H0.495643C0.2218 0 0 0.2218 0 0.495643V12.8867C0 13.1606 0.2218 13.3824 0.495643 13.3824ZM15.8606 12.3911H0.991285V0.991285H15.8606V12.3911ZM6.19929 10.0963C6.27487 10.139 6.35913 10.1607 6.44339 10.1607C6.53198 10.1607 6.61996 10.1371 6.69864 10.0901L11.6551 7.1162C11.8044 7.02637 11.8955 6.86528 11.8955 6.69119C11.8955 6.5171 11.8044 6.35601 11.6551 6.26618L6.69864 3.29232C6.54561 3.20063 6.3548 3.19815 6.19929 3.28612C6.04378 3.3741 5.94775 3.5389 5.94775 3.71733V9.66505C5.94775 9.84348 6.04378 10.0083 6.19929 10.0963ZM6.93903 8.78962V4.59276L10.4364 6.69119L6.93903 8.78962Z" fill="#FFFFFF"/>
</svg>
