<svg width="13" height="9" viewBox="0 0 13 9" fill="none" xmlns="http://www.w3.org/2000/svg">
<path fill-rule="evenodd" clip-rule="evenodd" d="M12.9215 4.15586C10.2513 -1.38663 2.74706 -1.38407 0.0785174 4.15625C-0.0261725 4.37254 -0.0261725 4.62773 0.0785174 4.84412C2.74875 10.3866 10.2529 10.3841 12.9215 4.84382C13.0262 4.62753 13.0262 4.37234 12.9215 4.15596V4.15586ZM6.49999 7.89388C4.27354 7.89388 2.23228 6.59763 1.13001 4.49994C3.44808 -0.000489806 9.55299 0.000984189 11.87 4.49994C10.7679 6.59763 8.72675 7.89388 6.49999 7.89388ZM4.08504 3.76365C3.28591 7.15603 7.87512 8.54058 8.93029 5.22259C9.49049 3.25308 7.67801 1.35667 5.79492 1.97804C6.41168 3.12962 5.18838 4.4079 4.08504 3.76365Z" fill="#0B3067"/>
</svg>
