<svg width="14" height="17" viewBox="0 0 14 17" fill="none" xmlns="http://www.w3.org/2000/svg">
<path fill-rule="evenodd" clip-rule="evenodd" d="M13.5883 4.14634H10.2942C10.0667 4.14634 9.8824 3.9608 9.8824 3.73171V0.414634C9.8824 0.185549 10.0667 0 10.2942 0C12.3376 0 14.0001 1.67409 14.0001 3.73171C14.0001 3.9608 13.8158 4.14634 13.5883 4.14634ZM10.7059 3.31708H13.1472C12.966 2.04778 11.9664 1.04125 10.7059 0.858812V3.31708ZM8.23534 9.53656C6.19195 9.53656 4.52945 7.86247 4.52945 5.80485C4.52945 3.74722 6.19195 2.07314 8.23534 2.07314C8.46284 2.07314 8.6471 2.25869 8.6471 2.48777V5.39021H11.5295C11.757 5.39021 11.9412 5.57576 11.9412 5.80485C11.9412 7.86247 10.2787 9.53656 8.23534 9.53656ZM7.82357 2.93195C6.42871 3.13357 5.35298 4.34534 5.35298 5.80485C5.35298 7.40534 6.64592 8.70729 8.23534 8.70729C9.68475 8.70729 10.8881 7.62406 11.0884 6.21948H8.23534C8.00783 6.21948 7.82357 6.03393 7.82357 5.80485V2.93195ZM0.411766 17H2.47059C2.69809 17 2.88236 16.8144 2.88236 16.5853V9.95118C2.88236 9.72209 2.69809 9.53654 2.47059 9.53654H0.411766C0.184265 9.53654 0 9.72209 0 9.95118V16.5853C0 16.8144 0.184265 17 0.411766 17ZM2.05883 16.1707H0.823531V10.3658H2.05883V16.1707ZM7.00004 17H4.94121C4.71371 17 4.52945 16.8144 4.52945 16.5854V11.6097C4.52945 11.3806 4.71371 11.1951 4.94121 11.1951H7.00004C7.22754 11.1951 7.4118 11.3806 7.4118 11.6097V16.5854C7.4118 16.8144 7.22754 17 7.00004 17ZM5.35298 16.1707H6.58827V12.0244H5.35298V16.1707ZM9.47066 17H11.5295C11.757 17 11.9412 16.8144 11.9412 16.5853V13.2683C11.9412 13.0392 11.757 12.8536 11.5295 12.8536H9.47066C9.24316 12.8536 9.05889 13.0392 9.05889 13.2683V16.5853C9.05889 16.8144 9.24316 17 9.47066 17ZM11.1177 16.1707H9.88242V13.6829H11.1177V16.1707Z" fill="#FFFFFF"/>
</svg>
