<svg width="17" height="15" viewBox="0 0 17 15" fill="none" xmlns="http://www.w3.org/2000/svg">
<path fill-rule="evenodd" clip-rule="evenodd" d="M6.35621 6.38235H0.495643C0.2218 6.38235 0 6.16055 0 5.88671V0.495643C0 0.2218 0.2218 0 0.495643 0H6.35621C6.63005 0 6.85185 0.2218 6.85185 0.495643V5.88671C6.85185 6.16055 6.63005 6.38235 6.35621 6.38235ZM0.991285 5.39107H5.86057V0.991285H0.991285V5.39107ZM0.495643 14.3824H6.35621C6.63005 14.3824 6.85185 14.1606 6.85185 13.8867V8.49564C6.85185 8.2218 6.63005 8 6.35621 8H0.495643C0.2218 8 0 8.2218 0 8.49564V13.8867C0 14.1606 0.2218 14.3824 0.495643 14.3824ZM5.86057 13.3911H0.991285V8.99129H5.86057V13.3911ZM10.4956 14.3824H16.3562C16.6301 14.3824 16.8519 14.1606 16.8519 13.8867V8.49564C16.8519 8.2218 16.6301 8 16.3562 8H10.4956C10.2218 8 10 8.2218 10 8.49564V13.8867C10 14.1606 10.2218 14.3824 10.4956 14.3824ZM15.8606 13.3911H10.9913V8.99129H15.8606V13.3911ZM10.4956 6.38235H16.3562C16.6301 6.38235 16.8519 6.16055 16.8519 5.88671V0.495643C16.8519 0.2218 16.6301 0 16.3562 0H10.4956C10.2218 0 10 0.2218 10 0.495643V5.88671C10 6.16055 10.2218 6.38235 10.4956 6.38235ZM15.8606 5.39107H10.9913V0.991285H15.8606V5.39107Z" fill="#E4032C"/>
</svg>
