<svg width="17" height="15" viewBox="0 0 17 15" fill="none" xmlns="http://www.w3.org/2000/svg">
<path fill-rule="evenodd" clip-rule="evenodd" d="M0 13.324C0 14.2483 0.751676 15 1.67598 15H7.03911C7.96341 15 8.71508 14.2483 8.71508 13.324V12.4022C8.71508 12.217 8.56508 12.067 8.37989 12.067C8.19469 12.067 8.04469 12.217 8.04469 12.4022V13.324C8.04469 13.8788 7.59385 14.3296 7.03911 14.3296H1.67598C1.12123 14.3296 0.670391 13.8788 0.670391 13.324V1.67598C0.670391 1.12123 1.12123 0.670391 1.67598 0.670391H7.03911C7.59385 0.670391 8.04469 1.12123 8.04469 1.67598V2.34637C8.04469 2.53156 8.19469 2.68156 8.37989 2.68156C8.56508 2.68156 8.71508 2.53156 8.71508 2.34637V1.67598C8.71508 0.751676 7.96341 0 7.03911 0H1.67598C0.751676 0 0 0.751676 0 1.67598V13.324ZM4.35754 11.3966H15.7542C15.9394 11.3966 16.0894 11.2466 16.0894 11.0614V3.68712C16.0894 3.50193 15.9394 3.35193 15.7542 3.35193H4.35754C4.17235 3.35193 4.02235 3.50193 4.02235 3.68712V11.0614C4.02235 11.2466 4.17235 11.3966 4.35754 11.3966ZM15.419 10.7262H4.69274V4.02232H15.419V10.7262Z" fill="#E4032C"/>
</svg>
