<svg width="10" height="16" viewBox="0 0 10 16" fill="none" xmlns="http://www.w3.org/2000/svg">
<path fill-rule="evenodd" clip-rule="evenodd" d="M2.05895 3.82353C1.89645 3.82353 1.76483 3.69191 1.76483 3.52941V1.76471C1.76483 1.60221 1.89645 1.47059 2.05895 1.47059H3.26005C3.40049 0.637132 4.12733 0 5.00013 0C5.87292 0 6.59976 0.637132 6.7402 1.47059H7.9413C8.1038 1.47059 8.23542 1.60221 8.23542 1.76471V3.52941C8.23542 3.69191 8.1038 3.82353 7.9413 3.82353H2.05895ZM2.35307 3.23529H7.64718V2.05882H6.47071C6.30821 2.05882 6.1766 1.92721 6.1766 1.76471C6.1766 1.11618 5.64865 0.588235 5.00013 0.588235C4.3516 0.588235 3.82365 1.11618 3.82365 1.76471C3.82365 1.92721 3.69204 2.05882 3.52954 2.05882H2.35307V3.23529ZM9.70588 15.5147H0.294118C0.131618 15.5147 0 15.3831 0 15.2206V3.52941C0 3.36691 0.131618 3.23529 0.294118 3.23529H0.882353C1.04485 3.23529 1.17647 3.36691 1.17647 3.52941C1.17647 3.69191 1.04485 3.82353 0.882353 3.82353H0.588235V14.9265H9.41177V3.82353H9.11765C8.95515 3.82353 8.82353 3.69191 8.82353 3.52941C8.82353 3.36691 8.95515 3.23529 9.11765 3.23529H9.70588C9.86838 3.23529 10 3.36691 10 3.52941V15.2206C10 15.3831 9.86838 15.5147 9.70588 15.5147ZM7.94127 6.7647H4.41185C4.24935 6.7647 4.11774 6.63308 4.11774 6.47058C4.11774 6.30808 4.24935 6.17647 4.41185 6.17647H7.94127C8.10377 6.17647 8.23538 6.30808 8.23538 6.47058C8.23538 6.63308 8.10377 6.7647 7.94127 6.7647ZM4.41185 9.99999H7.94127C8.10377 9.99999 8.23538 9.86837 8.23538 9.70587C8.23538 9.54337 8.10377 9.41175 7.94127 9.41175H4.41185C4.24935 9.41175 4.11774 9.54337 4.11774 9.70587C4.11774 9.86837 4.24935 9.99999 4.41185 9.99999ZM7.94127 13.2353H4.41185C4.24935 13.2353 4.11774 13.1037 4.11774 12.9412C4.11774 12.7787 4.24935 12.6471 4.41185 12.6471H7.94127C8.10377 12.6471 8.23538 12.7787 8.23538 12.9412C8.23538 13.1037 8.10377 13.2353 7.94127 13.2353ZM2.64718 6.7647C2.80968 6.7647 2.9413 6.63308 2.9413 6.47058C2.9413 6.30808 2.80968 6.17647 2.64718 6.17647H2.05895C1.89645 6.17647 1.76483 6.30808 1.76483 6.47058C1.76483 6.63308 1.89645 6.7647 2.05895 6.7647H2.64718ZM2.05895 9.99999C1.89645 9.99999 1.76483 9.86837 1.76483 9.70587C1.76483 9.54337 1.89645 9.41175 2.05895 9.41175H2.64718C2.80968 9.41175 2.9413 9.54337 2.9413 9.70587C2.9413 9.86837 2.80968 9.99999 2.64718 9.99999H2.05895ZM2.64718 13.2353C2.80968 13.2353 2.9413 13.1037 2.9413 12.9412C2.9413 12.7787 2.80968 12.6471 2.64718 12.6471H2.05895C1.89645 12.6471 1.76483 12.7787 1.76483 12.9412C1.76483 13.1037 1.89645 13.2353 2.05895 13.2353H2.64718ZM5.44107 1.91175C5.44107 2.15541 5.24355 2.35293 4.99989 2.35293C4.75624 2.35293 4.55872 2.15541 4.55872 1.91175C4.55872 1.6681 4.75624 1.47058 4.99989 1.47058C5.24355 1.47058 5.44107 1.6681 5.44107 1.91175Z" fill="#E4032C"/>
</svg>
