<svg width="9" height="7" viewBox="0 0 9 7" fill="none" xmlns="http://www.w3.org/2000/svg">
<path fill-rule="evenodd" clip-rule="evenodd" d="M0 0.475342C0 0.21283 0.212891 0 0.475342 0H8.52466C8.78711 0 9 0.21283 9 0.475281C9 0.737793 8.78711 0.950623 8.52466 0.950623H0.475342C0.212891 0.950623 0 0.737793 0 0.475342ZM0 3.49982C0 3.23737 0.212891 3.02454 0.475342 3.02454H8.52466C8.78711 3.02454 9 3.23737 9 3.49982C9 3.76233 8.78711 3.97516 8.52466 3.97516H0.475342C0.212891 3.97516 0 3.76233 0 3.49982ZM0.475342 6.04938C0.212891 6.04938 0 6.26221 0 6.52466C0 6.6535 0.0512695 6.77039 0.134521 6.85602C0.220947 6.94482 0.341797 7 0.475342 7H8.52466C8.78711 7 9 6.78717 9 6.52466C9 6.26221 8.78711 6.04938 8.52466 6.04938H0.475342Z" fill="#2A2F31"/>
</svg>
