<svg width="15" height="16" viewBox="0 0 15 16" fill="none" xmlns="http://www.w3.org/2000/svg">
<path fill-rule="evenodd" clip-rule="evenodd" d="M14.5588 15.4412H0.441176C0.197426 15.4412 0 15.2438 0 15V0.441176C0 0.197426 0.197426 0 0.441176 0H14.5588C14.8026 0 15 0.197426 15 0.441176V15C15 15.2438 14.8026 15.4412 14.5588 15.4412ZM0.882353 14.5588H14.1176V13.4185L11.0294 10.3302L8.69446 12.6651C8.5224 12.8372 8.2428 12.8372 8.07074 12.6651L3.97111 8.56551L0.882353 11.6543V14.5588ZM0.882353 10.4068V0.882353H14.1176V12.1705L11.6536 9.7065C11.4871 9.53941 11.2654 9.44787 11.0299 9.44787C10.7945 9.44787 10.5728 9.53996 10.4062 9.7065L8.38288 11.7298L4.59482 7.9418C4.42828 7.7747 4.20659 7.68316 3.97111 7.68316C3.73563 7.68316 3.51394 7.77525 3.3474 7.9418L0.882353 10.4068ZM9.26471 7.05877C8.04816 7.05877 7.05882 6.06943 7.05882 4.85289C7.05882 3.63634 8.04816 2.64701 9.26471 2.64701C10.4812 2.64701 11.4706 3.63634 11.4706 4.85289C11.4706 6.06943 10.4812 7.05877 9.26471 7.05877ZM9.26471 3.52936C8.53511 3.52936 7.94118 4.12329 7.94118 4.85289C7.94118 5.58248 8.53511 6.17642 9.26471 6.17642C9.9943 6.17642 10.5882 5.58248 10.5882 4.85289C10.5882 4.12329 9.9943 3.52936 9.26471 3.52936Z" fill="#2A2F31"/>
</svg>
