<svg width="20" height="13" viewBox="0 0 20 13" fill="none" xmlns="http://www.w3.org/2000/svg">
<path d="M19.5709 1.98986C19.4514 1.89348 19.3185 1.82686 19.1783 1.82686H14.7892C14.3647 1.82686 13.9582 1.98804 13.6579 2.27496L13.207 2.70627H3.28978C3.02511 2.70627 2.79419 2.86421 2.72813 3.09079L1.49777 7.29811V1.5784C1.49777 1.29998 1.72868 1.07441 2.01323 1.07441H8.2599V1.0171C8.2599 0.455398 7.77674 0 7.18071 0H1.09765C0.501836 0 0.0184714 0.455398 0.0184714 1.0171C0.0184714 1.0171 0.00790945 12.3132 0.000246861 12.4648C-0.00140991 12.4956 0.00542429 12.5318 0.0161933 12.5689C0.0669321 12.7412 0.201752 12.8781 0.373436 12.9411C0.476984 12.9789 0.590473 13 0.709554 13H16.4483C16.842 13 17.1878 12.7445 17.2953 12.3741L19.701 4.08927L19.952 3.23051C20.0837 2.77977 19.9406 2.28853 19.5709 1.98986Z" fill="#E4032C"/>
</svg>
