<svg width="13" height="13" viewBox="0 0 13 13" fill="none" xmlns="http://www.w3.org/2000/svg">
<path d="M1.625 0C1.19402 0 0.780698 0.171205 0.475951 0.475951C0.171205 0.780698 0 1.19402 0 1.625L0 11.375C0 11.806 0.171205 12.2193 0.475951 12.524C0.780698 12.8288 1.19402 13 1.625 13H11.375C11.806 13 12.2193 12.8288 12.524 12.524C12.8288 12.2193 13 11.806 13 11.375V1.625C13 1.19402 12.8288 0.780698 12.524 0.475951C12.2193 0.171205 11.806 0 11.375 0L1.625 0ZM6.5 3.25C6.93469 3.25 7.27512 3.62537 7.23125 4.05844L6.94688 6.90788C6.93732 7.01981 6.8861 7.12409 6.80335 7.20008C6.7206 7.27607 6.61235 7.31823 6.5 7.31823C6.38765 7.31823 6.2794 7.27607 6.19665 7.20008C6.1139 7.12409 6.06268 7.01981 6.05312 6.90788L5.76875 4.05844C5.75854 3.95625 5.76984 3.85306 5.80194 3.75551C5.83403 3.65796 5.8862 3.56821 5.95509 3.49205C6.02398 3.41589 6.10806 3.35501 6.20191 3.31332C6.29576 3.27163 6.39731 3.25006 6.5 3.25ZM6.50163 8.125C6.71711 8.125 6.92378 8.2106 7.07615 8.36298C7.22852 8.51535 7.31413 8.72201 7.31413 8.9375C7.31413 9.15299 7.22852 9.35965 7.07615 9.51202C6.92378 9.6644 6.71711 9.75 6.50163 9.75C6.28614 9.75 6.07947 9.6644 5.9271 9.51202C5.77473 9.35965 5.68913 9.15299 5.68913 8.9375C5.68913 8.72201 5.77473 8.51535 5.9271 8.36298C6.07947 8.2106 6.28614 8.125 6.50163 8.125Z" fill="#E4032C"/>
</svg>
