<svg width="10" height="7" viewBox="0 0 10 7" fill="none" xmlns="http://www.w3.org/2000/svg">
<path fill-rule="evenodd" clip-rule="evenodd" d="M0 0.475306C0 0.212802 0.212802 0 0.475306 0H9.03081C9.29331 0 9.50612 0.212802 9.50612 0.475306C9.50612 0.73781 9.29331 0.950612 9.03081 0.950612H0.475306C0.212802 0.950612 0 0.73781 0 0.475306ZM1.55554 3.49982C1.55554 3.23731 1.76834 3.02451 2.03085 3.02451H7.47526C7.73776 3.02451 7.95056 3.23731 7.95056 3.49982C7.95056 3.76232 7.73776 3.97512 7.47526 3.97512H2.03085C1.76834 3.97512 1.55554 3.76232 1.55554 3.49982ZM3.58639 6.04939C3.32388 6.04939 3.11108 6.2622 3.11108 6.5247C3.11108 6.7872 3.32388 7 3.58639 7H5.91971C6.18221 7 6.39501 6.7872 6.39501 6.5247C6.39501 6.2622 6.18221 6.04939 5.91971 6.04939H3.58639Z" fill="#2A2F31"/>
</svg>
