<svg width="24" height="24" viewBox="0 0 24 24" fill="none" xmlns="http://www.w3.org/2000/svg">
<path d="M10.1249 4.74585C8.60431 5.1381 7.27044 5.98935 6.28381 7.15072L10.1249 9.49897V4.74585Z" fill="#3F51B5"/>
<path d="M6.22681 16.7866C7.21831 17.9809 8.57618 18.8547 10.1249 19.2544V14.4038L6.22681 16.7866Z" fill="#3F51B5"/>
<path d="M4.74597 13.875C4.75085 13.8945 4.75572 13.9136 4.76097 13.9331L4.85547 13.875H4.74597Z" fill="white"/>
<path d="M17.841 7.30072C16.8435 6.06285 15.4605 5.1546 13.875 4.74585V9.72472L17.841 7.30072Z" fill="#3F51B5"/>
<path d="M13.875 19.2539C15.4886 18.8376 16.8904 17.9028 17.8916 16.6311L13.875 14.1764V19.2539Z" fill="#3F51B5"/>
<path d="M4.78235 9.98291C4.76922 10.0298 4.75797 10.0778 4.74597 10.125H5.01485L4.78235 9.98291Z" fill="white"/>
<path d="M19.4067 10.875C19.371 10.6387 19.3249 10.4066 19.2679 10.1782L18.1283 10.875H19.4067Z" fill="white"/>
<path d="M5.01488 10.125H4.74601C4.68263 10.3706 4.63201 10.6204 4.59338 10.875H6.24188L5.01488 10.125Z" fill="white"/>
<path d="M19.29 13.7359C19.3377 13.5352 19.3755 13.3312 19.4067 13.125H18.2903L19.29 13.7359Z" fill="white"/>
<path d="M6.08251 13.125H4.59338C4.63163 13.3796 4.68263 13.6294 4.74601 13.875H4.85588L6.08251 13.125Z" fill="white"/>
<path d="M10.875 9.95738V4.59338C10.6204 4.63163 10.3706 4.68263 10.125 4.74601V9.49913L10.875 9.95738Z" fill="white"/>
<path d="M13.125 13.7183V19.4066C13.3796 19.3684 13.6294 19.3174 13.875 19.254V14.1765L13.125 13.7183Z" fill="white"/>
<path d="M10.125 14.4038V19.2541C10.3706 19.3174 10.6204 19.3681 10.875 19.4067V13.9456L10.125 14.4038Z" fill="white"/>
<path d="M13.1944 10.0103L13.3009 10.0755L13.875 9.72451V4.74601C13.6294 4.68263 13.3796 4.63201 13.125 4.59338V10.1239L13.1944 10.0103Z" fill="white"/>
<path d="M6.24186 10.8749H9.76311L10.875 10.1954V9.95763L10.125 9.49901L6.28386 7.15076C5.96361 7.52801 5.67898 7.93601 5.43711 8.37213L8.26873 10.1249H6.22273L4.98786 9.35726C4.91061 9.56201 4.84161 9.77013 4.78198 9.98276L5.01486 10.1249L6.24186 10.8749Z" fill="white"/>
<path d="M13.3009 10.0755L14.6089 10.875H18.1283L19.2679 10.1783C19.146 9.69078 18.9773 9.22315 18.765 8.77878L16.6043 10.125H14.5583L18.2378 7.83753C18.1137 7.65228 17.9802 7.47415 17.8407 7.3009L13.875 9.72453L13.3009 10.0755Z" fill="white"/>
<path d="M8.26878 10.1251L5.43753 8.37231C5.26316 8.68694 5.11653 9.01731 4.98828 9.35744L6.22278 10.1251H8.26878Z" fill="#E53935"/>
<path d="M16.6042 10.1249L18.7654 8.77864C18.6097 8.45239 18.4376 8.13589 18.2381 7.83777L14.5582 10.1249H16.6042Z" fill="#E53935"/>
<path d="M13.125 13.125V13.7183L13.875 14.1765L17.8916 16.6316C18.1811 16.2638 18.4376 15.8693 18.6551 15.4504L16.1141 13.875H18.1601L19.0823 14.4503C19.1629 14.217 19.2322 13.9792 19.2896 13.7362L18.2902 13.125H13.125Z" fill="white"/>
<path d="M14.6089 10.875L13.3009 10.0755L13.1944 10.0103L13.125 10.1239V10.875H14.6089Z" fill="white"/>
<path d="M10.875 13.9455V13.125H6.0825L4.8555 13.875L4.76062 13.9331C4.89262 14.4285 5.07262 14.9033 5.29799 15.3529L7.62337 13.875H9.66937L5.85112 16.2874C5.97037 16.4584 6.09412 16.6264 6.22687 16.7865L10.125 14.4037L10.875 13.9455Z" fill="white"/>
<path d="M9.76318 10.8751H10.8751V10.1956L9.76318 10.8751Z" fill="white"/>
<path d="M16.1141 13.875L18.6548 15.45C18.8213 15.1298 18.9626 14.7953 19.0823 14.4499L18.1601 13.875H16.1141Z" fill="#E53935"/>
<path d="M7.62335 13.875L5.29797 15.3529C5.4611 15.6784 5.6441 15.9911 5.8511 16.2874L9.66935 13.875H7.62335Z" fill="#E53935"/>
<path d="M14.6089 10.875H13.125V13.125H18.2902H19.4066C19.4621 12.7571 19.5 12.3832 19.5 12C19.5 11.6168 19.4621 11.2429 19.4066 10.875H18.1282H14.6089Z" fill="#E53935"/>
<path d="M10.875 13.125V10.875H9.76312H6.24187H4.59338C4.53788 11.2429 4.5 11.6168 4.5 12C4.5 12.3832 4.53788 12.7571 4.59338 13.125H6.0825H10.875Z" fill="#E53935"/>
<path d="M13.125 19.4066V13.7182V13.125V10.875V10.1239V4.59338C12.7571 4.53788 12.3832 4.5 12 4.5C11.6168 4.5 11.2429 4.53788 10.875 4.59338V9.95737V10.1951V10.875V13.125V13.9455V19.4066C11.2429 19.4621 11.6168 19.5 12 19.5C12.3832 19.5 12.7571 19.4621 13.125 19.4066Z" fill="#E53935"/>
</svg>
