<svg width="24" height="24" viewBox="0 0 24 24" fill="none" xmlns="http://www.w3.org/2000/svg">
<path d="M12 19.5C16.1421 19.5 19.5 16.1421 19.5 12C19.5 7.85786 16.1421 4.5 12 4.5C7.85786 4.5 4.5 7.85786 4.5 12C4.5 16.1421 7.85786 19.5 12 19.5Z" fill="#4CAF50"/>
<path d="M18.75 12L12 16.5L5.25 12L12 7.5L18.75 12Z" fill="#FFEB3B"/>
<path d="M14.625 12C14.625 13.4501 13.4501 14.625 12 14.625C10.5499 14.625 9.375 13.4501 9.375 12C9.375 10.5499 10.5499 9.375 12 9.375C13.4501 9.375 14.625 10.5499 14.625 12Z" fill="#3F51B5"/>
<path d="M9.6768 10.7798C9.5493 11.0216 9.46155 11.2853 9.41467 11.5635C10.2599 11.4596 12.5568 11.3524 14.4903 12.8291C14.5765 12.5685 14.6249 12.2899 14.6249 12C14.6249 12 14.6249 11.9985 14.6249 11.997C12.772 10.7419 10.7459 10.692 9.6768 10.7798Z" fill="white"/>
</svg>
