<svg width="96" height="96" viewBox="0 0 96 96" fill="none" xmlns="http://www.w3.org/2000/svg">
<path fill-rule="evenodd" clip-rule="evenodd" d="M58.2959 63.936L63.9512 58.2805L87.9975 82.326L82.3422 87.9815L58.2959 63.936Z" fill="#616161"/>
<path fill-rule="evenodd" clip-rule="evenodd" d="M39.938 7.95996C31.4511 7.95996 23.3117 11.3314 17.3106 17.3325C11.3094 23.3337 7.93799 31.473 7.93799 39.96C7.93799 48.4469 11.3094 56.5862 17.3106 62.5874C23.3117 68.5885 31.4511 71.96 39.938 71.96C48.4249 71.96 56.5642 68.5885 62.5654 62.5874C68.5666 56.5862 71.938 48.4469 71.938 39.96C71.938 31.473 68.5666 23.3337 62.5654 17.3325C56.5642 11.3314 48.4249 7.95996 39.938 7.95996Z" fill="#616161"/>
<path fill-rule="evenodd" clip-rule="evenodd" d="M64.8481 70.6426L70.5035 64.987L87.8972 82.3801L82.2419 88.0357L64.8481 70.6426Z" fill="#36474F"/>
<path fill-rule="evenodd" clip-rule="evenodd" d="M39.938 13.96C36.5236 13.96 33.1427 14.6325 29.9882 15.9391C26.8338 17.2457 23.9675 19.1609 21.5532 21.5752C19.1389 23.9895 17.2237 26.8557 15.9171 30.0102C14.6105 33.1647 13.938 36.5456 13.938 39.96C13.938 43.3743 14.6105 46.7553 15.9171 49.9097C17.2237 53.0642 19.1389 55.9304 21.5532 58.3447C23.9675 60.7591 26.8338 62.6742 29.9882 63.9808C33.1427 65.2875 36.5236 65.96 39.938 65.96C43.3524 65.96 46.7333 65.2875 49.8878 63.9808C53.0422 62.6742 55.9084 60.7591 58.3228 58.3447C60.7371 55.9304 62.6522 53.0642 63.9589 49.9097C65.2655 46.7553 65.938 43.3743 65.938 39.96C65.938 36.5456 65.2655 33.1647 63.9589 30.0102C62.6522 26.8557 60.7371 23.9895 58.3228 21.5752C55.9084 19.1609 53.0422 17.2457 49.8878 15.9391C46.7333 14.6325 43.3524 13.96 39.938 13.96Z" fill="#5FB3F9"/>
<path fill-rule="evenodd" clip-rule="evenodd" d="M53.5278 50.572C50.1998 46.464 45.3018 44 40.0138 44C34.7258 44 29.8298 46.464 26.4998 50.572C25.7118 51.398 25.9098 52.836 26.6918 53.452C27.4798 54.272 28.8478 54.062 29.4378 53.244C32.1758 49.952 35.8538 48.024 39.9718 48.024C44.0898 48.024 47.8478 49.952 50.5878 53.244C50.9858 53.652 52.1858 54.464 53.3358 53.652C54.2598 53.004 54.1178 51.4 53.5278 50.572Z" fill="#F5F5F5"/>
<path fill-rule="evenodd" clip-rule="evenodd" d="M29 30C28.2044 30 27.4413 30.3161 26.8787 30.8787C26.3161 31.4413 26 32.2044 26 33C26 33.7956 26.3161 34.5587 26.8787 35.1213C27.4413 35.6839 28.2044 36 29 36C29.7956 36 30.5587 35.6839 31.1213 35.1213C31.6839 34.5587 32 33.7956 32 33C32 32.2044 31.6839 31.4413 31.1213 30.8787C30.5587 30.3161 29.7956 30 29 30ZM51 30C50.2044 30 49.4413 30.3161 48.8787 30.8787C48.3161 31.4413 48 32.2044 48 33C48 33.7956 48.3161 34.5587 48.8787 35.1213C49.4413 35.6839 50.2044 36 51 36C51.7956 36 52.5587 35.6839 53.1213 35.1213C53.6839 34.5587 54 33.7956 54 33C54 32.2044 53.6839 31.4413 53.1213 30.8787C52.5587 30.3161 51.7956 30 51 30Z" fill="#F5F5F5"/>
</svg>
