<?xml version="1.0" encoding="utf-8"?>
<!-- Generator: Adobe Illustrator 27.2.0, SVG Export Plug-In . SVG Version: 6.00 Build 0)  -->
<svg version="1.1" id="Capa_1" xmlns="http://www.w3.org/2000/svg" xmlns:xlink="http://www.w3.org/1999/xlink" x="0px" y="0px"
	 viewBox="0 0 42 42" style="enable-background:new 0 0 42 42;" xml:space="preserve">
<style type="text/css">
	.st0{fill:#606060;}
	.st1{fill:#2A2F31;}
</style>
<g>
	<path class="st0" d="M42,21c0,11.6-9.4,21-21,21S0,32.6,0,21C0,9.4,9.4,0,21,0S42,9.4,42,21z M0.6,21c0,11.3,9.1,20.4,20.4,20.4
		S41.4,32.3,41.4,21C41.4,9.7,32.3,0.6,21,0.6S0.6,9.7,0.6,21z"/>
	<path class="st1" d="M25.8,15.1c-1.3,0-1.5,1.9-0.2,2.1C27.1,17.5,27.4,15.2,25.8,15.1z M29.9,17.3c0-1.4-0.4-2.8-1.5-3.8
		c-1-1-2.4-1.4-3.8-1.5C24,12,18,12,17.3,12.1c-1.4,0-2.8,0.4-3.8,1.5c-1,1-1.4,2.4-1.5,3.8C12,18,12,24,12.1,24.7
		c0,1.4,0.4,2.8,1.5,3.8c1,1,2.4,1.4,3.8,1.5c0.7,0.1,6.7,0.1,7.4,0c1.4,0,2.8-0.4,3.8-1.5c1-1,1.4-2.4,1.5-3.8
		C30,24,30,18,29.9,17.3z M28.3,24.6c0,1-0.3,2-1,2.7c-0.7,0.7-1.7,1-2.7,1c-0.7,0.1-6.5,0.1-7.2,0c-0.6,0-1.2-0.1-1.7-0.3
		c-0.4-0.2-0.7-0.4-1-0.7c-0.3-0.3-0.5-0.6-0.7-1c-0.2-0.5-0.3-1.1-0.4-1.7c0-0.7-0.1-6.5,0-7.2c0-0.6,0.1-1.2,0.3-1.7
		c0.2-0.4,0.4-0.7,0.7-1c0.3-0.3,0.6-0.6,1-0.7c0.5-0.2,1.1-0.3,1.7-0.3c0.9,0,1.2-0.1,3.6-0.1c2.4,0,2.7,0,3.6,0.1
		c1,0,2.1,0.3,2.7,1c0.3,0.3,0.5,0.6,0.7,1c0.2,0.5,0.3,1.1,0.3,1.7C28.4,18.1,28.4,23.9,28.3,24.6L28.3,24.6z M21,16.4
		c-2.8,0-5.1,2.7-4.5,5.5c0.8,4,6.1,5.1,8.4,1.7C26.9,20.5,24.7,16.4,21,16.4L21,16.4z M21,24c-1.8,0-3.3-1.8-2.9-3.6
		c0.5-2.6,4-3.3,5.4-1.1C24.8,21.3,23.4,24,21,24z"/>
</g>
</svg>
