<?xml version="1.0" encoding="utf-8"?>
<!-- Generator: Adobe Illustrator 27.2.0, SVG Export Plug-In . SVG Version: 6.00 Build 0)  -->
<svg version="1.1" id="Capa_1" xmlns="http://www.w3.org/2000/svg" xmlns:xlink="http://www.w3.org/1999/xlink" x="0px" y="0px"
	 viewBox="0 0 113.4 113.4" style="enable-background:new 0 0 113.4 113.4;" xml:space="preserve">
<style type="text/css">
	.st0{fill:#E4032C;}
	.st1{fill:#000100;}
	.st2{fill-rule:evenodd;clip-rule:evenodd;}
	.st3{fill:none;stroke:#E4032C;stroke-width:0.8;}
</style>
<g>
	<path class="st0" d="M70,21.3H43.4c-2.9,0-5.2,2.3-5.2,5.2V87c0,2.9,2.3,5.2,5.2,5.2H70c2.9,0,5.2-2.3,5.2-5.2V26.4
		C75.1,23.6,72.8,21.3,70,21.3z M74.4,87c0,2.4-2,4.4-4.4,4.4H43.4c-2.4,0-4.4-2-4.4-4.4V26.4c0-2.4,2-4.4,4.4-4.4h4.3
		c0.4,0.3,0.7,0.7,0.7,1.2v1.5c0,0.8,0.7,1.5,1.5,1.5h13.3c0.8,0,1.5-0.7,1.5-1.5v-1.5c0-0.5,0.3-1,0.7-1.2H70c2.4,0,4.4,2,4.4,4.4
		V87L74.4,87z"/>
	<path class="st1" d="M63.1,85.3H50.3c-0.2,0-0.4,0.2-0.4,0.5c0,0.3,0.2,0.5,0.4,0.5h12.8c0.2,0,0.4-0.2,0.4-0.5
		C63.5,85.5,63.3,85.3,63.1,85.3z"/>
	<path class="st2" d="M56.7,72.7c0.1,0,0.2,0,0.3,0.1c0.1,0.1,0.1,0.2,0.1,0.3v10.6l2.7-2.8c0.1-0.1,0.2-0.1,0.3-0.1
		c0.1,0,0.2,0,0.3,0.1c0.1,0.1,0.1,0.2,0.1,0.3c0,0.1,0,0.2-0.1,0.3L57,85.2c0,0-0.1,0.1-0.1,0.1c-0.1,0-0.1,0-0.2,0
		c-0.1,0-0.1,0-0.2,0c-0.1,0-0.1-0.1-0.1-0.1l-3.5-3.6c-0.1-0.1-0.1-0.2-0.1-0.3c0-0.1,0-0.2,0.1-0.3c0.1-0.1,0.2-0.1,0.3-0.1
		c0.1,0,0.2,0,0.3,0.1l2.7,2.8V73.2c0-0.1,0-0.2,0.1-0.3C56.5,72.8,56.6,72.7,56.7,72.7z"/>
	<path class="st3" d="M70.3,32.9H43.1v25.2h27.2V32.9z"/>
</g>
</svg>
