<?xml version="1.0" encoding="utf-8"?>
<!-- Generator: Adobe Illustrator 27.2.0, SVG Export Plug-In . SVG Version: 6.00 Build 0)  -->
<svg version="1.1" id="Capa_1" xmlns="http://www.w3.org/2000/svg" xmlns:xlink="http://www.w3.org/1999/xlink" x="0px" y="0px"
	 viewBox="0 0 49.2 56.7" style="enable-background:new 0 0 49.2 56.7;" xml:space="preserve">
<style type="text/css">
	.st0{fill-rule:evenodd;clip-rule:evenodd;fill:#E4032C;}
	.st1{fill-rule:evenodd;clip-rule:evenodd;fill:#262626;}
</style>
<g>
	<g>
		<path class="st0" d="M21.1,19.1h-17H3.6v0.5v34v0.5h0.5h34h0.5v-0.5v-17h-1v16.5h-33v-33h16.5V19.1z"/>
		<path class="st1" d="M25.6,18c0-5.5,4.5-9.9,10-9.9s10,4.4,10,9.9v0.1c0,3.7-2.1,6.9-5.2,8.6v1c0,0.6-0.3,1-0.8,1.3v1.5
			c0,0.7-0.4,1.4-1,1.6c-0.2,1.2-1.6,2.1-3,2.1s-2.7-0.8-3-2.1c-0.6-0.2-1-0.9-1-1.6V29c-0.5-0.2-0.8-0.7-0.8-1.3v-1
			C27.7,25,25.6,21.7,25.6,18z M33.1,31.1h5c0.2,0,0.5-0.2,0.5-0.7v-1.3h-6v1.3C32.6,30.9,32.9,31.1,33.1,31.1L33.1,31.1z
			 M33.7,32.1c0.3,0.5,0.9,1,1.9,1s1.6-0.5,1.9-1H33.7z M39.4,27.7c0,0.2-0.2,0.4-0.4,0.4h-6.7c-0.3,0-0.4-0.2-0.4-0.4v-1.3
			c0-0.2-0.1-0.4-0.3-0.4c-3-1.6-5-4.6-5-8c0-4.9,4-8.9,9-8.9s9,3.9,9,8.8c0,0,0,0,0,0.1c0,3.5-2,6.5-4.9,7.9
			c-0.2,0.1-0.3,0.3-0.3,0.4V27.7z"/>
	</g>
</g>
<g>
</g>
<g>
</g>
</svg>
