<?xml version="1.0" encoding="utf-8"?>
<!-- Generator: Adobe Illustrator 27.2.0, SVG Export Plug-In . SVG Version: 6.00 Build 0)  -->
<svg version="1.1" id="Capa_1" xmlns="http://www.w3.org/2000/svg" xmlns:xlink="http://www.w3.org/1999/xlink" x="0px" y="0px"
	 viewBox="0 0 40 40" style="enable-background:new 0 0 40 40;" xml:space="preserve">
<style type="text/css">
	.st0{fill:#3367CD;fill-opacity:0.2;}
	.st1{fill:#3267CE;}
</style>
<g>
	<circle class="st0" cx="20" cy="20" r="20"/>
	<path class="st1" d="M15.1,30.2h-4v-13h4V30.2z M13.1,15.4c-0.5,0-0.9-0.1-1.3-0.4c-0.4-0.3-0.7-0.6-0.9-1.1
		c-0.2-0.4-0.2-0.9-0.1-1.4s0.3-0.9,0.6-1.2c0.3-0.3,0.7-0.6,1.2-0.7c0.5-0.1,0.9,0,1.4,0.1s0.8,0.5,1.1,0.9
		c0.3,0.4,0.4,0.8,0.4,1.3c0,0.3-0.1,0.6-0.2,0.9c-0.1,0.3-0.3,0.5-0.5,0.8c-0.2,0.2-0.5,0.4-0.8,0.5C13.7,15.4,13.4,15.4,13.1,15.4
		z M30.2,30.2h-4v-6.3c0-1.5,0-3.4-2.1-3.4c-2.1,0-2.4,1.6-2.4,3.3v6.5h-4v-13h3.9V19h0.1c0.4-0.7,0.9-1.2,1.6-1.6
		c0.7-0.4,1.4-0.6,2.2-0.6c4.1,0,4.9,2.7,4.9,6.2V30.2z"/>
</g>
</svg>
