<?xml version="1.0" encoding="utf-8"?>
<!-- Generator: Adobe Illustrator 27.2.0, SVG Export Plug-In . SVG Version: 6.00 Build 0)  -->
<svg version="1.1" id="Capa_1" xmlns="http://www.w3.org/2000/svg" xmlns:xlink="http://www.w3.org/1999/xlink" x="0px" y="0px"
	 viewBox="0 0 113.4 113.4" style="enable-background:new 0 0 113.4 113.4;" xml:space="preserve">
<style type="text/css">
	.st0{fill:#E4032C;}
	.st1{fill:#000100;}
</style>
<g>
	<path class="st0" d="M72.7,57l-0.5-0.8l-0.1,1.5c-0.2,0.3-0.6,0.7-1.1,1c0.4-0.1,0.7-0.1,0.9,0c-0.1,0.5-0.2,1-0.4,1.4l0.9-1.5
		l0.7-0.1l-0.3-1l0.7-1.6C73.4,56.3,73.1,56.7,72.7,57z"/>
	<path class="st0" d="M71.5,49.1c0.6,0.6,1.1,1.5,1.5,2.4c-0.3,1.2-0.7,2.1-1.3,2.8l1.8-1.3c0,0,0.5,1.5,0.5,2.3
		c0.3-0.9,0.4-1.9,0.4-3.3l1.1-1.5L74.5,50c-0.1-1.4-0.3-2.6-0.7-3.5c0,1.1-0.3,3.1-0.3,3.1C72.9,49.4,72.2,49.2,71.5,49.1z"/>
	<path class="st0" d="M68.1,45.2c0.1,0.8,0.1,1.7,0.1,2.3l-1.7,0.6l1.7,1L68,51.5l1.3-1.7l1.5,1.2l-0.8-2.3l1.1-1.7l-1.6,0.4
		L68.1,45.2z"/>
	<path class="st0" d="M71.1,43.6l0.5,1.6l0.2-0.9l0.9,0.7l-0.7-1.6l0.3-1.1l-0.9,0.2l-1.1-1.2l0.7,1.3l-1.1,0.3L71.1,43.6z"/>
	<path class="st0" d="M64,44.9l0.6,1.6l0.3-1c0.5,0.3,1,0.6,1.4,1L64.9,45l0.2-0.8h-0.9L62.8,43l0.8,1.3h-1.2L64,44.9z"/>
	<path class="st0" d="M64.8,35.1l-1.2,1.3c-1-0.6-2-1.1-3.1-1.5c0.9,0.8,1.7,1.7,2.3,2.8L61,40.1l3.3-0.3l2,3.8l-0.2-3.9l2.5,0.2
		c-1-0.9-1.9-1.7-2.9-2.3L64.8,35.1z"/>
	<path class="st0" d="M57.1,53.5h-1.7v6.4h1.7V53.5z"/>
	<path class="st0" d="M58.4,59.8h1.7v-9.6l-1.7,0.7V59.8z"/>
	<path class="st0" d="M57.1,51.5l-1.7,0.7v0.7h1.7V51.5z"/>
	<path class="st0" d="M51.2,52.8c-0.9,0-1.7,0.3-2,0.8v-3.4l-1.7,0.7v8.9h1.7v-4.1c0-1.2,0.6-1.7,1.7-1.7s1.7,0.5,1.7,1.9v3.9h1.7
		v-4C54.2,53.8,53.1,52.8,51.2,52.8z"/>
	<path class="st0" d="M42.6,58.6c-1.9,0-2.9-1.3-2.9-3.4c0-2,1.1-3.4,2.9-3.4c1.2,0,1.7,0.4,2.2,1.1l1.5-0.8
		c-0.8-1.2-1.9-1.7-3.8-1.7c-2.8,0-4.7,1.9-4.7,4.8c0,2.8,1.8,4.8,4.7,4.8c1.7,0,3-0.7,3.8-1.7l-1.4-0.8
		C44.5,58.2,43.8,58.6,42.6,58.6z"/>
	<path class="st0" d="M68.1,56.2c0-1.8-1.2-3.5-3.5-3.5c-2.1,0-3.6,1.3-3.6,3.6c0,2.3,1.7,3.6,3.6,3.6c1.3,0,2.1-0.3,2.8-0.9l-1-0.9
		c-0.6,0.3-1.1,0.6-1.8,0.6c-1,0-1.9-0.6-2-1.9h5.5C68.1,56.7,68.1,56.5,68.1,56.2z M62.6,55.7c0.1-1.1,0.8-1.7,1.9-1.7
		c1.4,0,1.8,0.8,1.9,1.7H62.6z"/>
	<path class="st1" d="M26.6,21.3V78h60.2V21.3H26.6z M85.9,77.2H27.6v-55h58.3V77.2z"/>
	<path class="st0" d="M86.8,85.6h-5v5h5V85.6z"/>
	<path class="st1" d="M29.6,86.5c-1,0-1.6,0.9-1.6,1.9c0,0.8,0.4,1.2,1,1.2c0.7,0,1.1-0.3,1.3-0.6c0,0.1,0.1,0.4,0.1,0.7
		c0,0.5-0.7,1-1.6,1c-1.2,0-1.9-0.8-1.9-2.1c0-1.7,1.1-3.1,2.7-3.1c0.7,0,1.3,0.3,1.3,0.7c0,0.2-0.1,0.5-0.2,0.7
		C30.5,86.7,30.1,86.5,29.6,86.5z"/>
	<path class="st1" d="M34,87.2c0,0.1-0.1,0.7-0.2,0.8c-0.1-0.2-0.3-0.3-0.5-0.3c-0.3,0-0.7,0.4-0.9,0.7l-0.3,2.1H31l0.6-3.6
		c0.2,0,0.5-0.1,0.7-0.1c0.2,0,0.4,0,0.4,0l-0.1,0.8l0,0c0.2-0.4,0.6-0.9,1-0.9C33.9,86.9,34,87.1,34,87.2z"/>
	<path class="st1" d="M37.3,89.4c0.1,0.1,0.1,0.4,0.1,0.5c0,0.4-0.8,0.9-1.7,0.9c-0.9,0-1.6-0.4-1.6-1.6c0-1.3,1-2.2,2.2-2.2
		c0.8,0,1.3,0.3,1.3,0.9c0,0.8-1.1,1.3-2.3,1.3c0,0.1,0,0.1,0,0.2c0,0.5,0.3,0.7,0.7,0.7C36.6,89.9,37.1,89.5,37.3,89.4z M35.3,88.6
		c1,0,1.4-0.3,1.4-0.6c0-0.2-0.2-0.3-0.4-0.3C35.8,87.8,35.4,88.1,35.3,88.6z"/>
	<path class="st1" d="M41.9,87l-0.6,3.7h-1l0.1-0.8l0,0c-0.3,0.5-0.7,0.9-1.3,0.9c-0.6,0-1.1-0.5-1.1-1.4c0-1.4,0.9-2.5,2.1-2.5
		c0.3,0,0.6,0.1,0.8,0.2h0.1c0.1,0,0.3-0.1,0.5-0.1C41.7,86.9,41.9,87,41.9,87z M40.5,89.1l0.2-1.3c-0.1-0.1-0.3-0.1-0.5-0.1
		c-0.7,0-1.1,0.7-1.1,1.4c0,0.6,0.2,0.7,0.5,0.7C39.9,89.8,40.2,89.6,40.5,89.1z"/>
	<path class="st1" d="M45.1,87L45,87.7c0,0.1-0.1,0.1-0.1,0.1h-1c-0.2,1.3-0.3,1.6-0.3,1.7c0,0.3,0.1,0.4,0.4,0.4
		c0.3,0,0.5-0.2,0.6-0.3c0,0.1,0,0.3,0,0.4c0,0.5-0.4,0.8-1.1,0.8s-1.1-0.4-1.1-1.1c0-0.3,0-0.6,0.3-1.9h-0.5l0.1-0.7
		c0-0.1,0-0.1,0.1-0.1h0.4c0-0.1,0-0.3,0.1-0.5c0.2-0.2,0.7-0.4,1-0.4c0.1,0,0.1,0,0.2,0c0,0.3-0.1,0.6-0.1,0.9L45.1,87L45.1,87z"/>
	<path class="st1" d="M46,87c0.2,0,0.5-0.1,0.7-0.1c0.2,0,0.4,0,0.4,0.1l-0.6,3.6h-1.2L46,87z M46.1,85.9c0-0.4,0.3-0.6,0.7-0.6
		c0.3,0,0.5,0.1,0.5,0.4c0,0.4-0.3,0.6-0.7,0.6C46.3,86.3,46.1,86.2,46.1,85.9z"/>
	<path class="st1" d="M51.5,87.8c0,0.3-0.4,2.8-0.4,2.9h-1.2c0-0.1,0.4-2.2,0.4-2.4c0-0.3-0.1-0.5-0.4-0.5s-0.7,0.3-0.8,0.7
		l-0.3,2.1h-1.3l0.6-3.6c0.2,0,0.5-0.1,0.7-0.1c0.2,0,0.4,0,0.4,0.1l-0.1,0.8l0,0c0.2-0.4,0.7-0.9,1.5-0.9
		C51.1,86.9,51.5,87.3,51.5,87.8z"/>
	<path class="st1" d="M55.9,87l-0.6,3.4c-0.2,1.1-0.9,1.7-2.2,1.7c-0.6,0-1.3-0.2-1.3-0.7c0-0.2,0.1-0.6,0.2-0.7
		c0.1,0.1,0.5,0.4,1,0.4c0.7,0,1-0.3,1.2-0.9l0.1-0.5c-0.3,0.4-0.7,0.7-1.2,0.7c-0.6,0-1.1-0.4-1.1-1.4c0-1.3,0.9-2.3,2.2-2.3
		c0.3,0,0.5,0,0.7,0.1c0.2,0,0.4,0,0.6,0C55.7,87,55.9,87,55.9,87z M54.5,89l0.2-1.3c-0.1,0-0.3-0.1-0.4-0.1c-0.7,0-1.1,0.7-1.1,1.3
		c0,0.5,0.2,0.7,0.5,0.7C53.9,89.7,54.2,89.5,54.5,89z"/>
	<path class="st1" d="M61.3,85.6c0,0,0,0.2,0,0.4c0,0.4,0,0.6-0.1,0.6h-1.9v1.3h1.7c0,0.4,0,0.9-0.1,0.9h-1.6v1.8c0,0-0.4,0-0.8,0
		c-0.3,0-0.4,0-0.4,0v-5L61.3,85.6L61.3,85.6z"/>
	<path class="st1" d="M61.6,89.6V87c0,0,0.7,0,1.1,0c0.1,0,0.1,0,0.1,0v2.2c0,0.4,0.2,0.6,0.5,0.6c0.4,0,0.7-0.3,0.7-0.4V87
		c0,0,0.8,0,1.1,0c0.1,0,0.1,0,0.1,0v3.6c0,0-0.3,0-0.8,0c-0.2,0-0.4,0-0.4,0v-0.5c-0.1,0.2-0.6,0.6-1.3,0.6
		C62.1,90.8,61.6,90.3,61.6,89.6z"/>
	<path class="st1" d="M68.7,90.1c0,0.4-0.5,0.7-1.2,0.7s-1.3-0.4-1.3-1.3v-1.7h-0.5v-0.7c0-0.1,0-0.1,0.1-0.1h0.4v-0.7
		c0,0,0.5-0.3,1-0.3c0.2,0,0.2,0,0.2,0.1V87h1.2v0.7c0,0.1,0,0.1-0.1,0.1h-1.1v1.4c0,0.4,0.2,0.5,0.5,0.5c0.3,0,0.5-0.1,0.6-0.2
		C68.6,89.6,68.7,89.9,68.7,90.1z"/>
	<path class="st1" d="M69.4,89.6V87c0,0,0.7,0,1.1,0c0.1,0,0.1,0,0.1,0v2.2c0,0.4,0.2,0.6,0.5,0.6c0.4,0,0.7-0.3,0.7-0.4V87
		c0,0,0.8,0,1.1,0c0.1,0,0.1,0,0.1,0v3.6c0,0-0.3,0-0.8,0c-0.2,0-0.4,0-0.4,0v-0.5c-0.1,0.2-0.6,0.6-1.3,0.6
		C69.8,90.8,69.4,90.3,69.4,89.6z"/>
	<path class="st1" d="M73.8,87c0,0,0.2-0.1,0.7-0.1c0.3,0,0.5,0.1,0.5,0.3s0,0.4,0,0.5c0.2-0.4,0.6-0.7,1.3-0.7v1
		c0,0.1,0,0.1-0.1,0.1c-0.7,0-1.1,0.4-1.1,1.1v1.6c-0.3,0-0.6,0-0.8,0c-0.1,0-0.2,0-0.3,0V87H73.8z"/>
	<path class="st1" d="M80.1,89.9c0,0.4-0.8,0.8-1.7,0.8c-1,0-1.9-0.6-1.9-1.9c0-1.3,0.9-1.9,1.9-1.9c1,0,1.6,0.5,1.6,1.4
		c0,0.3,0,0.7,0,0.7s-1.2,0.1-2.3,0.1c0.1,0.6,0.5,0.9,1,0.9c0.5,0,1-0.2,1.3-0.5C80,89.5,80.1,89.7,80.1,89.9z M77.7,88.4
		c0.8,0,1.3,0,1.3,0s0-0.1,0-0.2c0-0.3-0.2-0.5-0.5-0.5C78.1,87.7,77.8,88,77.7,88.4z"/>
</g>
</svg>
