<svg width="18" height="18" viewBox="0 0 18 18" fill="none" xmlns="http://www.w3.org/2000/svg">
<path d="M17.7735 16.6842L13.9322 12.8427C16.4671 9.75856 16.2955 5.17964 13.4143 2.2983C10.35 -0.766101 5.36248 -0.766101 2.2982 2.2983C-0.766068 5.36271 -0.766068 10.3504 2.2982 13.4148C3.83034 14.947 5.84302 15.7137 7.85675 15.7137C9.62812 15.7137 11.3995 15.1197 12.8432 13.9328L16.6845 17.7743C16.8353 17.9251 17.0319 18 17.2295 18C17.4271 18 17.6237 17.9251 17.7745 17.7743C18.0751 17.4737 18.0751 16.9858 17.7745 16.6842H17.7735ZM3.38724 12.3247C0.92313 9.8605 0.92313 5.8516 3.38724 3.38738C4.61877 2.1558 6.23724 1.54 7.85571 1.54C9.47418 1.54 11.0926 2.1558 12.3242 3.38738C14.7883 5.8516 14.7883 9.8605 12.3242 12.3247C9.86007 14.7889 5.85135 14.7889 3.38724 12.3247Z" fill="#C4C4C4"/>
</svg>
