<?xml version="1.0" encoding="utf-8"?>
<!-- Generator: Adobe Illustrator 27.2.0, SVG Export Plug-In . SVG Version: 6.00 Build 0)  -->
<svg version="1.1" id="Capa_1" xmlns="http://www.w3.org/2000/svg" xmlns:xlink="http://www.w3.org/1999/xlink" x="0px" y="0px"
	 viewBox="0 0 42 42" style="enable-background:new 0 0 42 42;" xml:space="preserve">
<style type="text/css">
	.st0{fill:#FFFFFF;}
	.st1{fill:#0B3067;}
</style>
<g>
	<circle class="st0" cx="21" cy="21" r="21"/>
	<path class="st1" d="M15.7,20l-2.2,2.1c-0.9,0.9-1.4,2-1.4,3.3c0,1.2,0.5,2.4,1.4,3.3s2.1,1.4,3.4,1.4s2.5-0.5,3.4-1.4l3-2.8
		c0.5-0.5,1-1.2,1.2-1.9c0.2-0.7,0.3-1.5,0.2-2.2c-0.1-0.7-0.4-1.4-0.9-2s-1.1-1.1-1.8-1.4l-1,0.9c-0.1,0.1-0.2,0.2-0.2,0.3
		c0.5,0.1,1,0.4,1.4,0.8s0.7,0.9,0.8,1.4c0.1,0.5,0.1,1.1,0,1.6s-0.4,1-0.8,1.4l-3,2.8c-0.6,0.6-1.4,0.9-2.3,0.9s-1.7-0.3-2.3-0.9
		s-0.9-1.4-0.9-2.2c0-0.8,0.3-1.6,0.9-2.2l1.3-1.2C15.7,21.3,15.6,20.6,15.7,20z"/>
	<path class="st1" d="M18.7,17.3c-0.5,0.5-1,1.2-1.2,1.9c-0.2,0.7-0.3,1.5-0.2,2.2c0.1,0.7,0.4,1.4,0.9,2s1.1,1.1,1.8,1.4l1.3-1.2
		c-0.5-0.1-1-0.4-1.4-0.8s-0.7-0.9-0.8-1.4c-0.1-0.5-0.1-1.1,0-1.6s0.4-1,0.8-1.4l3-2.8c0.6-0.6,1.4-0.9,2.3-0.9s1.7,0.3,2.3,0.9
		c0.6,0.6,0.9,1.4,0.9,2.2s-0.3,1.6-0.9,2.2l-1.3,1.2c0.2,0.6,0.3,1.3,0.2,2l2.2-2.1c0.9-0.9,1.4-2,1.4-3.3c0-1.2-0.5-2.4-1.4-3.3
		c-0.9-0.9-2.1-1.4-3.4-1.4s-2.5,0.5-3.4,1.4L18.7,17.3z"/>
</g>
</svg>
