<svg width="12" height="12" viewBox="0 0 12 12" fill="none" xmlns="http://www.w3.org/2000/svg">
<path fill-rule="evenodd" clip-rule="evenodd" d="M7.7894 9.15149C5.96057 10.4682 3.41974 10.3853 1.66902 8.80854C-0.37574 6.96688 -0.568369 3.78467 1.23877 1.70088C3.04592 -0.382913 6.1685 -0.579219 8.21327 1.26242C10.1622 3.01774 10.4285 5.99089 8.88447 8.07008L11.7432 10.6448C12.0578 10.9282 12.0875 11.4178 11.8094 11.7383C11.5314 12.0589 11.051 12.0891 10.7365 11.8058L7.7894 9.15149ZM7.50422 7.34397C6.25316 8.78661 4.09137 8.92251 2.67576 7.64749C1.26016 6.37254 1.1268 4.16948 2.3779 2.72686C3.62899 1.28423 5.79079 1.14832 7.20635 2.42331C8.622 3.69829 8.75535 5.90135 7.50422 7.34397Z" fill="#000100"/>
</svg>
