<?xml version="1.0" encoding="utf-8"?>
<!-- Generator: Adobe Illustrator 27.2.0, SVG Export Plug-In . SVG Version: 6.00 Build 0)  -->
<svg version="1.1" id="Capa_1" xmlns="http://www.w3.org/2000/svg" xmlns:xlink="http://www.w3.org/1999/xlink" x="0px" y="0px"
	 viewBox="0 0 56.6 56.7" style="enable-background:new 0 0 56.6 56.7;" xml:space="preserve">
<style type="text/css">
	.st0{fill-rule:evenodd;clip-rule:evenodd;fill:#E4032C;}
	.st1{fill:#000100;}
</style>
<g>
	<g>
		<path class="st0" d="M21.1,19.1h-17H3.6v0.5v34v0.5h0.5h34h0.5v-0.5v-17h-1v16.5h-33v-33h16.5V19.1z"/>
		<g>
			<path class="st1" d="M29.9,29.6c-0.1,0-0.2,0-0.3-0.1c-0.2-0.1-0.2-0.3-0.2-0.5l1.6-9.1l-6.8-6.5c-0.1-0.1-0.2-0.3-0.1-0.5
				s0.2-0.3,0.4-0.3l9.4-1.3L38.1,3c0.1-0.3,0.3-0.4,0.5-0.4l0,0c0.2,0,0.4,0.1,0.4,0.3l4.2,8.3l9.4,1.3c0.2,0,0.3,0.2,0.4,0.3
				c0.1,0.2,0,0.4-0.1,0.5l-6.8,6.5l1.6,9.1c0,0.2,0,0.4-0.2,0.5s-0.4,0.1-0.5,0l-8.4-4.2l-8.4,4.3C30.1,29.6,30,29.6,29.9,29.6z
				 M38.6,24.2c0.1,0,0.2,0,0.2,0.1l7.8,4l-1.5-8.4c0-0.2,0-0.3,0.1-0.4l6.3-5.9l-8.6-1.2c-0.2,0-0.3-0.1-0.4-0.3l-3.9-7.9l-3.9,7.7
				c-0.1,0.1-0.2,0.2-0.4,0.3l-8.6,1.2l6.2,5.9c0.1,0.1,0.2,0.3,0.1,0.4l-1.4,8.5l7.8-4C38.4,24.2,38.5,24.2,38.6,24.2z M34.3,11.7
				L34.3,11.7L34.3,11.7z"/>
		</g>
	</g>
</g>
<g>
</g>
</svg>
