<?xml version="1.0" encoding="utf-8"?>
<!-- Generator: Adobe Illustrator 27.2.0, SVG Export Plug-In . SVG Version: 6.00 Build 0)  -->
<svg version="1.1" id="Capa_1" xmlns="http://www.w3.org/2000/svg" xmlns:xlink="http://www.w3.org/1999/xlink" x="0px" y="0px"
	 viewBox="0 0 59.2 56.7" style="enable-background:new 0 0 59.2 56.7;" xml:space="preserve">
<style type="text/css">
	.st0{fill-rule:evenodd;clip-rule:evenodd;fill:#E4032C;}
	.st1{fill-rule:evenodd;clip-rule:evenodd;fill:#000100;}
</style>
<g>
	<path class="st0" d="M21.1,19.1h-17H3.6v0.5v34v0.5h0.5h34h0.5v-0.5v-17h-1v16.5h-33v-33h16.5V19.1z"/>
	<path class="st1" d="M36.6,15.6c0,1.9-1.6,3.5-3.5,3.5c-1.9,0-3.5-1.6-3.5-3.5s1.6-3.5,3.5-3.5C35,12.1,36.6,13.7,36.6,15.6z
		 M37.6,15.6c0,2.5-2,4.5-4.5,4.5s-4.5-2-4.5-4.5s2-4.5,4.5-4.5S37.6,13.1,37.6,15.6z M25.6,31.1h10v1h-10h-1v-1v-3c0-2.8,2.2-5,5-5
		h7c-0.2,0.3-0.4,0.6-0.6,1h-6.4c-2.2,0-4,1.8-4,4V31.1z M46.1,19.1c1.9,0,3.5-1.6,3.5-3.5s-1.6-3.5-3.5-3.5s-3.5,1.6-3.5,3.5
		S44.2,19.1,46.1,19.1z M46.1,20.1c2.5,0,4.5-2,4.5-4.5s-2-4.5-4.5-4.5s-4.5,2-4.5,4.5S43.6,20.1,46.1,20.1z M42.6,24.1h8
		c2.2,0,4,1.8,4,4v3h-16v-3C38.6,25.9,40.4,24.1,42.6,24.1z M37.6,28.1c0-2.8,2.2-5,5-5h8c2.8,0,5,2.2,5,5v3v1h-1h-16h-1v-1V28.1z"
		/>
</g>
<g>
</g>
<g>
</g>
</svg>
