<?xml version="1.0" encoding="utf-8"?>
<!-- Generator: Adobe Illustrator 27.2.0, SVG Export Plug-In . SVG Version: 6.00 Build 0)  -->
<svg version="1.1" id="Capa_1" xmlns="http://www.w3.org/2000/svg" xmlns:xlink="http://www.w3.org/1999/xlink" x="0px" y="0px"
	 viewBox="0 0 42 42" style="enable-background:new 0 0 42 42;" xml:space="preserve">
<style type="text/css">
	.st0{display:none;}
	.st1{fill:#606060;}
	.st2{fill:#2A2F31;}
</style>
<g id="Capa_2_00000028308567605341356760000005093920663532876200_" class="st0">
</g>
<path class="st1" d="M42,21c0,11.6-9.4,21-21,21S0,32.6,0,21S9.4,0,21,0S42,9.4,42,21z M0.6,21c0,11.3,9.1,20.4,20.4,20.4
	S41.4,32.3,41.4,21S32.3,0.6,21,0.6S0.6,9.7,0.6,21z"/>
<g id="Capa_3">
</g>
<g>
	<path class="st2" d="M29.9,13.1c-1-1-2.2-1.8-3.6-2.4c-1.3-0.6-2.8-0.8-4.2-0.8c-6.1,0-11,4.9-11,11c0,1.9,0.5,3.8,1.5,5.5L11,32.1
		l5.8-1.5c1.6,0.9,3.4,1.3,5.3,1.3l0,0c6.1,0,11-4.9,11-11c0-1.4-0.3-2.9-0.8-4.2C31.7,15.4,30.9,14.2,29.9,13.1z M22.1,30
		c-1.6,0-3.3-0.4-4.7-1.3l-0.3-0.2l-3.5,0.9l0.9-3.4l-0.2-0.3c-0.9-1.5-1.4-3.1-1.4-4.9c0-5,4.1-9.1,9.2-9.1c1.2,0,2.4,0.2,3.5,0.7
		s2.1,1.1,3,2c0.9,0.8,1.5,1.9,2,3s0.7,2.3,0.7,3.5C31.3,25.9,27.1,30,22.1,30z M27.1,23.2c-0.3-0.1-1.6-0.8-1.9-0.9
		s-0.4-0.1-0.6,0.1c-0.2,0.3-0.7,0.9-0.9,1.1c-0.2,0.2-0.3,0.2-0.6,0.1c-0.3-0.1-1.2-0.4-2.2-1.4c-0.8-0.7-1.4-1.6-1.5-1.9
		c-0.2-0.3,0-0.4,0.1-0.6c0.1-0.1,0.3-0.3,0.4-0.5s0.2-0.3,0.3-0.5c0.1-0.2,0-0.3,0-0.5c-0.1-0.1-0.6-1.5-0.9-2
		c-0.2-0.5-0.4-0.5-0.6-0.5s-0.3,0-0.5,0c-0.1,0-0.3,0-0.4,0.1s-0.2,0.1-0.3,0.2c-0.3,0.3-1,0.9-1,2.3s1,2.7,1.1,2.8
		c0.1,0.2,1.9,3,4.7,4.1c0.7,0.3,1.2,0.5,1.6,0.6c0.7,0.2,1.3,0.2,1.7,0.1c0.5-0.1,1.6-0.7,1.9-1.3c0.2-0.6,0.2-1.2,0.2-1.3
		C27.6,23.4,27.4,23.3,27.1,23.2z"/>
</g>
</svg>
