<?xml version="1.0" encoding="utf-8"?>
<!-- Generator: Adobe Illustrator 27.2.0, SVG Export Plug-In . SVG Version: 6.00 Build 0)  -->
<svg version="1.1" id="Capa_1" xmlns="http://www.w3.org/2000/svg" xmlns:xlink="http://www.w3.org/1999/xlink" x="0px" y="0px"
	 viewBox="0 0 40 40" style="enable-background:new 0 0 40 40;" xml:space="preserve">
<style type="text/css">
	.st0{fill:#349800;}
	.st1{fill:#FFFFFF;}
</style>
<g>
	<circle class="st0" cx="20" cy="20" r="20"/>
	<path class="st1" d="M28.2,12.7c-0.9-0.9-2.1-1.7-3.3-2.2C23.7,10,22.4,9.8,21,9.8c-5.6,0-10.2,4.6-10.2,10.1
		c0,1.8,0.5,3.5,1.4,5.1l-1.4,5.3l5.4-1.4c1.5,0.8,3.2,1.2,4.9,1.2h0c5.6,0,10.2-4.6,10.2-10.2c0-1.3-0.3-2.7-0.8-3.9
		C29.9,14.8,29.2,13.7,28.2,12.7z M21,28.3c-1.5,0-3-0.4-4.3-1.2L16.4,27l-3.2,0.8l0.9-3.1l-0.2-0.3c-0.8-1.3-1.3-2.9-1.3-4.5
		c0-4.6,3.8-8.4,8.5-8.4c1.1,0,2.2,0.2,3.2,0.6c1,0.4,2,1,2.7,1.8c0.8,0.8,1.4,1.7,1.8,2.7c0.4,1,0.6,2.1,0.6,3.2
		C29.5,24.6,25.7,28.3,21,28.3z M25.7,22c-0.3-0.1-1.5-0.7-1.7-0.8c-0.2-0.1-0.4-0.1-0.6,0.1c-0.2,0.3-0.7,0.8-0.8,1
		c-0.1,0.2-0.3,0.2-0.6,0.1c-0.3-0.1-1.1-0.4-2-1.3c-0.8-0.7-1.3-1.5-1.4-1.8c-0.1-0.3,0-0.4,0.1-0.5c0.1-0.1,0.3-0.3,0.4-0.4
		c0.1-0.1,0.2-0.3,0.3-0.4c0.1-0.2,0-0.3,0-0.4c-0.1-0.1-0.6-1.4-0.8-1.9c-0.2-0.5-0.4-0.4-0.6-0.4c-0.1,0-0.3,0-0.5,0
		c-0.1,0-0.3,0-0.4,0.1c-0.1,0.1-0.2,0.1-0.3,0.2c-0.2,0.3-0.9,0.9-0.9,2.1c0,1.3,0.9,2.5,1,2.6c0.1,0.2,1.8,2.7,4.4,3.8
		c0.6,0.3,1.1,0.4,1.5,0.5c0.6,0.2,1.2,0.2,1.6,0.1c0.5-0.1,1.5-0.6,1.7-1.2c0.2-0.6,0.2-1.1,0.1-1.2C26.1,22.2,25.9,22.2,25.7,22z"
		/>
</g>
</svg>
