<?xml version="1.0" encoding="utf-8"?>
<!-- Generator: Adobe Illustrator 27.2.0, SVG Export Plug-In . SVG Version: 6.00 Build 0)  -->
<svg version="1.1" id="Capa_1" xmlns="http://www.w3.org/2000/svg" xmlns:xlink="http://www.w3.org/1999/xlink" x="0px" y="0px"
	 viewBox="0 0 113.4 113.4" style="enable-background:new 0 0 113.4 113.4;" xml:space="preserve">
<style type="text/css">
	.st0{fill:#E4032C;}
	.st1{fill-rule:evenodd;clip-rule:evenodd;fill:#000100;}
</style>
<g>
	<path class="st0" d="M76.3,36.9H42l-0.4,9.8h1.9c1.1-6.2,3-7.2,10.8-7.4h1.7v31.5c0,2.6-0.6,3.2-5.2,3.7v2h16.3v-2
		c-4.7-0.4-5.3-1.1-5.3-3.7V39.3h1.7c7.8,0.2,9.7,1.2,10.8,7.4h1.9L76.3,36.9z"/>
	<path class="st1" d="M93.2,23.8H27.7V48c3.6,0.8,6.2,4.1,6.2,8s-2.6,7.2-6.2,8v25.6h65.5V23.8z M25.2,64.3v25.3v2.5h2.5h65.5h2.5
		v-2.5V23.8v-2.5h-2.5H27.7h-2.5v2.5v24c-4.2,0.4-7.6,3.8-7.6,8.2S21,63.9,25.2,64.3z M31.6,56.1c0,3.1-2.5,5.6-5.6,5.6
		s-5.6-2.5-5.6-5.6c0-3.1,2.5-5.6,5.6-5.6C29.1,50.3,31.6,53,31.6,56.1z"/>
</g>
</svg>
