<?xml version="1.0" encoding="utf-8"?>
<!-- Generator: Adobe Illustrator 27.2.0, SVG Export Plug-In . SVG Version: 6.00 Build 0)  -->
<svg version="1.1" id="Capa_1" xmlns="http://www.w3.org/2000/svg" xmlns:xlink="http://www.w3.org/1999/xlink" x="0px" y="0px"
	 viewBox="0 0 18 18" style="enable-background:new 0 0 18 18;" xml:space="preserve">
<style type="text/css">
	.st0{fill:#E4032C;}
</style>
<path class="st0" d="M17.8,16.7l-3.8-3.8c2.5-3.1,2.4-7.7-0.5-10.5c-3.1-3.1-8.1-3.1-11.1,0c-3.1,3.1-3.1,8.1,0,11.1
	c1.5,1.5,3.5,2.3,5.6,2.3c1.8,0,3.5-0.6,5-1.8l3.8,3.8c0.2,0.2,0.3,0.2,0.5,0.2s0.4-0.1,0.5-0.2C18.1,17.5,18.1,17,17.8,16.7
	L17.8,16.7z M3.4,12.3c-2.5-2.5-2.5-6.5,0-8.9c1.2-1.2,2.8-1.8,4.5-1.8s3.2,0.6,4.5,1.8c2.5,2.5,2.5,6.5,0,8.9
	C9.9,14.8,5.9,14.8,3.4,12.3z"/>
</svg>
