<?xml version="1.0" encoding="utf-8"?>
<!-- Generator: Adobe Illustrator 27.2.0, SVG Export Plug-In . SVG Version: 6.00 Build 0)  -->
<svg version="1.1" id="Capa_1" xmlns="http://www.w3.org/2000/svg" xmlns:xlink="http://www.w3.org/1999/xlink" x="0px" y="0px"
	 viewBox="0 0 38 23" style="enable-background:new 0 0 38 23;" xml:space="preserve">
<style type="text/css">
	.st0{fill-rule:evenodd;clip-rule:evenodd;fill:#00349A;}
</style>
<path class="st0" d="M32.3,10.8c-5.5-11.1-21.1-11.1-26.6,0c-0.2,0.4-0.2,0.9,0,1.4c5.5,11.1,21.1,11.1,26.7,0
	C32.6,11.8,32.6,11.2,32.3,10.8L32.3,10.8z M19,18.3c-4.6,0-8.9-2.6-11.2-6.8c4.8-9,17.5-9,22.3,0C27.9,15.7,23.6,18.3,19,18.3z
	 M14,10c-1.7,6.8,7.9,9.6,10.1,2.9c1.2-3.9-2.6-7.7-6.5-6.5C18.8,8.8,16.3,11.3,14,10z"/>
</svg>
