<?xml version="1.0" encoding="utf-8"?>
<!-- Generator: Adobe Illustrator 27.2.0, SVG Export Plug-In . SVG Version: 6.00 Build 0)  -->
<svg version="1.1" id="Capa_1" xmlns="http://www.w3.org/2000/svg" xmlns:xlink="http://www.w3.org/1999/xlink" x="0px" y="0px"
	 viewBox="0 0 40 40" style="enable-background:new 0 0 40 40;" xml:space="preserve">
<style type="text/css">
	.st0{fill:#606060;}
	.st1{fill:#2A2F31;}
</style>
<g>
	<path class="st0" d="M40,20c0,11-9,20-20,20S0,31,0,20S9,0,20,0S40,9,40,20z M0.6,20c0,10.8,8.7,19.4,19.4,19.4S39.4,30.8,39.4,20
		S30.8,0.6,20,0.6S0.6,9.2,0.6,20z"/>
	<path class="st1" d="M11.4,12.3l6.6,8.9l-6.7,7.3h1.5l5.8-6.4l4.7,6.4h5.1l-7-9.4l6.2-6.8h-1.5l-5.4,5.9l-4.3-5.9H11.4z M13.6,13.5
		h2.3l10.3,14h-2.3L13.6,13.5z"/>
</g>
</svg>
