<?xml version="1.0" encoding="utf-8"?>
<!-- Generator: Adobe Illustrator 27.2.0, SVG Export Plug-In . SVG Version: 6.00 Build 0)  -->
<svg version="1.1" id="Capa_1" xmlns="http://www.w3.org/2000/svg" xmlns:xlink="http://www.w3.org/1999/xlink" x="0px" y="0px"
	 viewBox="0 0 42 42" style="enable-background:new 0 0 42 42;" xml:space="preserve">
<style type="text/css">
	.st0{fill:#F5F5F5;stroke:#0B3067;}
	.st1{fill:#0B3067;}
</style>
<g>
	<circle class="st0" cx="21" cy="21" r="21"/>
	<path class="st1" d="M15.7,32.1h-4.4V18h4.4V32.1z M13.5,16.1c-0.5,0-1-0.1-1.4-0.4c-0.4-0.3-0.7-0.7-0.9-1.1
		C11,14,10.9,13.5,11,13c0.1-0.5,0.3-0.9,0.7-1.3c0.4-0.4,0.8-0.6,1.3-0.7c0.5-0.1,1-0.1,1.5,0.1c0.5,0.2,0.9,0.5,1.1,0.9
		c0.3,0.4,0.4,0.9,0.4,1.4c0,0.3-0.1,0.7-0.2,1c-0.1,0.3-0.3,0.6-0.5,0.8c-0.2,0.2-0.5,0.4-0.8,0.6C14.2,16,13.9,16.1,13.5,16.1z
		 M32.1,32.1h-4.4v-6.9c0-1.6,0-3.7-2.3-3.7c-2.3,0-2.6,1.8-2.6,3.6v7h-4.4V18h4.2v1.9h0.1c0.4-0.7,1-1.3,1.7-1.7
		c0.7-0.4,1.6-0.6,2.4-0.6c4.4,0,5.2,2.9,5.2,6.7V32.1z"/>
</g>
</svg>
