<?xml version="1.0" encoding="utf-8"?>
<!-- Generator: Adobe Illustrator 27.2.0, SVG Export Plug-In . SVG Version: 6.00 Build 0)  -->
<svg version="1.1" id="Capa_1" xmlns="http://www.w3.org/2000/svg" xmlns:xlink="http://www.w3.org/1999/xlink" x="0px" y="0px"
	 viewBox="0 0 65.2 56.7" style="enable-background:new 0 0 65.2 56.7;" xml:space="preserve">
<style type="text/css">
	.st0{fill-rule:evenodd;clip-rule:evenodd;fill:#E4032C;}
	.st1{fill-rule:evenodd;clip-rule:evenodd;fill:#000100;}
</style>
<g>
	<path class="st0" d="M21.1,19.1h-17H3.6v0.5v34v0.5h0.5h34h0.5v-0.5v-17h-1v16.5h-33v-33h16.5V19.1z"/>
	<path class="st1" d="M50.5,9.1c-1.8,0-3.6,0.5-5,1.3c-0.1-0.1-0.2-0.2-0.4-0.4c-0.1-0.1-0.2-0.2-0.4-0.4c1.7-1,3.7-1.6,5.8-1.6
		c6.1,0.1,11.1,5.1,11.1,11.2s-5,11.1-11.1,11.1s-11.1-5-11.1-11.1c0-2.4,0.8-4.6,2.1-6.4c0.1,0.1,0.3,0.3,0.4,0.4
		c0.1,0.1,0.2,0.2,0.2,0.2c-1.1,1.7-1.7,3.7-1.7,5.8c0,5.6,4.5,10.1,10.1,10.1s10.1-4.5,10.1-10.1S56.1,9.1,50.5,9.1z M36.7,29.3
		c1.8,0,3.6-0.5,5-1.3c0.1,0.1,0.2,0.2,0.4,0.4c0.1,0.1,0.2,0.2,0.4,0.4c-1.7,1-3.7,1.6-5.8,1.6c-6.1,0-11.1-5-11.1-11.1
		c0-6.2,5-11.2,11.1-11.2s11.1,5,11.1,11.1c0,2.4-0.8,4.6-2.1,6.4c-0.2-0.1-0.3-0.3-0.5-0.5C45.1,25,45,24.9,45,24.9
		c1.1-1.6,1.8-3.6,1.8-5.7c0-5.6-4.5-10.1-10.1-10.1s-10.1,4.5-10.1,10.1S31.1,29.3,36.7,29.3z"/>
</g>
</svg>
