<svg width="43" height="43" viewBox="0 0 43 43" fill="none" xmlns="http://www.w3.org/2000/svg">
<rect width="43" height="43" rx="21.5" fill="#0F3EB6"/>
<rect x="3.5" y="3.5" width="36" height="36" rx="18" fill="#0F3EB6" stroke="white"/>
<path d="M28.7852 13.6996C28.4306 13.2509 27.7604 13.1607 27.2885 13.4979L23.0706 16.5124C23.0706 16.5124 23.0288 16.5374 22.9512 16.5736C22.9018 16.6044 22.851 16.6336 22.7993 16.6614C23.313 16.2887 23.6447 15.7011 23.6447 15.0393C23.6447 13.913 22.6844 13 21.4997 13C20.3151 13 19.3547 13.913 19.3547 15.0393C19.3547 15.7009 19.6865 16.2887 20.2 16.6611C20.1329 16.6251 20.0675 16.5869 20.0044 16.5457C19.9557 16.5252 19.9289 16.5122 19.9289 16.5122L15.7112 13.4981C15.2393 13.1607 14.5692 13.2512 14.2145 13.6996C13.8599 14.1482 13.9548 14.7853 14.4267 15.1225L19.3771 18.6604C19.4152 18.6876 19.4549 18.7111 19.4954 18.7329V21.8459C19.4625 21.8924 19.4331 21.9414 19.4078 21.9929L16.206 28.4141C16.0732 28.6835 16.0588 28.9857 16.1655 29.2654C16.272 29.545 16.4868 29.7685 16.7699 29.8947C16.8985 29.9519 17.0349 29.9864 17.1756 29.9967C17.6588 30.0324 18.1217 29.776 18.3273 29.3586L21.1451 23.7077C21.1451 23.7077 21.2786 23.4727 21.5705 23.4727C21.8623 23.4727 21.9958 23.7077 21.9958 23.7077L24.8133 29.3586C25.0189 29.776 25.4819 30.0324 25.9651 29.9967C26.1055 29.9862 26.2419 29.9519 26.3707 29.8947C26.6542 29.7685 26.8687 29.545 26.9752 29.2654C27.0816 28.9857 27.0672 28.6835 26.9344 28.4141L23.7325 21.9929C23.7023 21.9316 23.666 21.8744 23.6255 21.8204V18.6584L28.5733 15.1222C29.0452 14.7851 29.1399 14.1482 28.7852 13.6996Z" fill="white"/>
</svg>
