<svg width="13" height="13" viewBox="0 0 13 13" fill="none" xmlns="http://www.w3.org/2000/svg">
<path d="M6.5 13C2.91589 13 0 10.0841 0 6.5C0 2.91589 2.91589 0 6.5 0C10.0841 0 13 2.91589 13 6.5C13 10.0841 10.0841 13 6.5 13ZM11.5927 3.05176C11.5884 3.05392 11.5845 3.05643 11.5802 3.05823C11.5658 3.06362 10.7495 3.37815 9.57692 3.64774C9.86089 4.39935 10.0651 5.29116 10.0963 6.32566L12.6499 6.32566C12.6161 5.11503 12.2311 3.99101 11.5931 3.0514L11.5927 3.05176ZM1.40762 3.05176C0.76959 3.99101 0.384615 5.11538 0.350827 6.32602H2.90439C2.9353 5.29116 3.13947 4.39971 3.4238 3.64809C2.25162 3.3785 1.43494 3.06398 1.42056 3.05859C1.41589 3.05679 1.41229 3.05428 1.40798 3.05212L1.40762 3.05176ZM1.40762 9.94788C1.41193 9.94572 1.41589 9.94321 1.4202 9.94141C1.43422 9.93602 2.23364 9.62832 3.38569 9.36053C3.10424 8.60712 2.90978 7.71244 2.90043 6.67398H0.350467C0.384256 7.88461 0.769231 9.00863 1.40726 9.94824L1.40762 9.94788ZM6.67434 8.97088C7.59166 8.98634 8.49461 9.12042 9.27103 9.28433C9.54853 8.55607 9.74263 7.68727 9.75198 6.67398H6.67398V8.97124L6.67434 8.97088ZM6.67434 9.31884L6.67434 12.5802C6.93422 12.4101 7.55859 11.9594 8.1729 11.1988C8.49748 10.7965 8.84867 10.2685 9.13731 9.61143C8.39576 9.45794 7.54134 9.33393 6.67434 9.31919V9.31884ZM6.32638 9.31884C5.45938 9.33393 4.6046 9.45758 3.86341 9.61107C4.15205 10.2682 4.50323 10.7965 4.82782 11.1984C5.44213 11.959 6.0665 12.4098 6.32638 12.5798L6.32638 9.31884ZM6.32638 8.97088V6.67362L3.24838 6.67362C3.25809 7.68728 3.45183 8.55607 3.72933 9.28397C4.50575 9.12006 5.4087 8.98598 6.32602 8.97088H6.32638ZM3.25234 6.32566L6.32638 6.32566V4.0284C5.4238 4.0133 4.53523 3.88354 3.76743 3.72322C3.48706 4.44968 3.28361 5.31596 3.25198 6.32566H3.25234ZM6.32638 3.68045L6.32638 0.421998C6.07045 0.594895 5.46657 1.04457 4.86521 1.80014C4.54385 2.20417 4.1941 2.73508 3.90223 3.39648C4.63444 3.54637 5.47412 3.66607 6.32602 3.68081L6.32638 3.68045ZM6.67434 3.68045C7.52624 3.66571 8.36592 3.54601 9.09813 3.39612C8.80625 2.73508 8.45651 2.20381 8.13515 1.79978C7.53415 1.04421 6.93027 0.594537 6.67398 0.421639L6.67398 3.68009L6.67434 3.68045ZM6.67434 4.0284V6.32566H9.74838C9.71675 5.31596 9.5133 4.44968 9.23293 3.72322C8.46513 3.88354 7.57656 4.0133 6.67398 4.0284H6.67434ZM10.1003 6.67362C10.0909 7.71244 9.89612 8.60676 9.61502 9.36017C10.7671 9.62797 11.5665 9.93566 11.5805 9.94105C11.5852 9.94285 11.5891 9.94536 11.5935 9.94752C12.2315 9.00827 12.6165 7.8839 12.6503 6.67326L10.1003 6.67326V6.67362ZM11.3825 10.2387C11.1607 10.1574 10.4428 9.90654 9.48382 9.68656C9.17326 10.4116 8.78864 10.9917 8.4335 11.4292C7.99533 11.9694 7.55787 12.3573 7.23436 12.6075C8.91948 12.4062 10.3976 11.5212 11.3825 10.2383V10.2387ZM5.766 12.6082C5.44249 12.3577 5.00503 11.9702 4.56686 11.4299C4.21208 10.9921 3.8271 10.4123 3.51654 9.68728C2.55787 9.9069 1.83968 10.1582 1.6179 10.2394C2.6028 11.5216 4.08088 12.4069 5.766 12.6082ZM1.61826 2.76096C1.84292 2.84328 2.57728 3.09993 3.55536 3.32171C3.86916 2.59274 4.25198 2.01042 4.6028 1.57117C5.03595 1.02912 5.46549 0.640547 5.78145 0.390007C4.08986 0.587707 2.60604 1.47412 1.61826 2.76096ZM7.21891 0.390007C7.53487 0.640547 7.96441 1.02912 8.39756 1.57117C8.74838 2.01042 9.1312 2.59274 9.445 3.32171C10.4231 3.09993 11.1574 2.84292 11.3821 2.76096C10.3943 1.47412 8.9105 0.587707 7.21891 0.390007Z" fill="white"/>
</svg>
