<?xml version="1.0" encoding="utf-8"?>
<!-- Generator: Adobe Illustrator 27.2.0, SVG Export Plug-In . SVG Version: 6.00 Build 0)  -->
<svg version="1.1" id="Capa_1" xmlns="http://www.w3.org/2000/svg" xmlns:xlink="http://www.w3.org/1999/xlink" x="0px" y="0px"
	 viewBox="0 0 42 42" style="enable-background:new 0 0 42 42;" xml:space="preserve">
<style type="text/css">
	.st0{fill:#606060;}
	.st1{fill:#2A2F31;}
</style>
<g>
	<path class="st0" d="M42,21c0,11.6-9.4,21-21,21S0,32.6,0,21C0,9.4,9.4,0,21,0S42,9.4,42,21z M0.6,21c0,11.3,9.1,20.4,20.4,20.4
		S41.4,32.3,41.4,21C41.4,9.7,32.3,0.6,21,0.6S0.6,9.7,0.6,21z"/>
	<path class="st1" d="M21.7,11h2.4c0.2,0.8,0.7,1.9,1.5,3c0.8,1,1.9,1.8,3.4,1.8v2.4c-2.1,0-3.7-1-4.9-2.2v8.1c0,1.2-0.4,2.3-1,3.3
		c-0.7,1-1.6,1.7-2.7,2.2c-1.1,0.4-2.3,0.6-3.5,0.3c-1.2-0.2-2.3-0.8-3.1-1.6c-0.8-0.8-1.4-1.9-1.7-3c-0.2-1.2-0.1-2.3,0.3-3.4
		c0.5-1.1,1.2-2,2.2-2.7c1-0.7,2.2-1,3.4-1v2.4c-0.7,0-1.4,0.2-2,0.6c-0.6,0.4-1.1,0.9-1.3,1.6c-0.3,0.7-0.3,1.4-0.2,2.1
		c0.1,0.7,0.5,1.3,1,1.8c0.5,0.5,1.2,0.8,1.9,1c0.7,0.1,1.4,0.1,2.1-0.2c0.7-0.3,1.2-0.7,1.6-1.3c0.4-0.6,0.6-1.3,0.6-2V11z"/>
</g>
</svg>
