<?xml version="1.0" encoding="utf-8"?>
<!-- Generator: Adobe Illustrator 27.2.0, SVG Export Plug-In . SVG Version: 6.00 Build 0)  -->
<svg version="1.1" id="Capa_1" xmlns="http://www.w3.org/2000/svg" xmlns:xlink="http://www.w3.org/1999/xlink" x="0px" y="0px"
	 viewBox="0 0 43 43" style="enable-background:new 0 0 43 43;" xml:space="preserve">
<style type="text/css">
	.st0{fill:#0F3EB6;}
	.st1{fill:#0F3EB6;stroke:#FFFFFF;}
	.st2{fill-rule:evenodd;clip-rule:evenodd;fill:#FFFFFF;}
</style>
<path class="st0" d="M21.5,0L21.5,0C33.4,0,43,9.6,43,21.5l0,0C43,33.4,33.4,43,21.5,43l0,0C9.6,43,0,33.4,0,21.5l0,0
	C0,9.6,9.6,0,21.5,0z"/>
<path class="st1" d="M21.5,3.5L21.5,3.5c9.9,0,18,8.1,18,18l0,0c0,9.9-8.1,18-18,18l0,0c-9.9,0-18-8.1-18-18l0,0
	C3.5,11.6,11.6,3.5,21.5,3.5z"/>
<path class="st2" d="M20,21.7l-7.1,7.1l1.4,1.4l7.1-7.1l7.3,7.3l1.4-1.4l-7.3-7.3l7.8-7.8l-1.4-1.4l-7.8,7.8l-7.5-7.5l-1.4,1.4
	L20,21.7z"/>
</svg>
