<?xml version="1.0" encoding="utf-8"?>
<!-- Generator: Adobe Illustrator 27.2.0, SVG Export Plug-In . SVG Version: 6.00 Build 0)  -->
<svg version="1.1" id="Capa_1" xmlns="http://www.w3.org/2000/svg" xmlns:xlink="http://www.w3.org/1999/xlink" x="0px" y="0px"
	 viewBox="0 0 38 23" style="enable-background:new 0 0 38 23;" xml:space="preserve">
<style type="text/css">
	.st0{fill:#0F3EB6;}
</style>
<path class="st0" d="M7.5,2.9c0-0.7,0.3-1.4,0.7-1.9C8.7,0.4,9.3,0.1,10,0c0.7-0.1,1.4,0.1,2,0.5c0.6,0.4,1,1,1.2,1.7h11.7
	c0.1-0.5,0.4-0.9,0.7-1.3c0.4-0.4,0.8-0.6,1.3-0.8c0.5-0.1,1-0.1,1.5,0c0.5,0.1,0.9,0.4,1.3,0.7c0.4,0.4,0.6,0.8,0.7,1.3
	s0.1,1,0,1.5c-0.1,0.5-0.4,0.9-0.8,1.3c-0.4,0.4-0.8,0.6-1.3,0.7v11.7c0.5,0.1,0.9,0.4,1.3,0.7c0.4,0.4,0.6,0.8,0.8,1.3
	c0.1,0.5,0.1,1,0,1.5c-0.1,0.5-0.4,0.9-0.7,1.3c-0.4,0.4-0.8,0.6-1.3,0.7c-0.5,0.1-1,0.1-1.5,0c-0.5-0.1-0.9-0.4-1.3-0.8
	c-0.4-0.4-0.6-0.8-0.7-1.3H13.2c-0.1,0.5-0.4,0.9-0.7,1.3s-0.8,0.6-1.3,0.8c-0.5,0.1-1,0.1-1.5,0c-0.5-0.1-0.9-0.4-1.3-0.7
	c-0.4-0.4-0.6-0.8-0.7-1.3c-0.1-0.5-0.1-1,0-1.5c0.1-0.5,0.4-0.9,0.8-1.3c0.4-0.4,0.8-0.6,1.3-0.7V5.7C9,5.5,8.5,5.1,8.1,4.6
	C7.7,4.1,7.5,3.5,7.5,2.9z M11.1,5.7v11.7c1,0.3,1.8,1.1,2.1,2.1h11.7c0.1-0.5,0.4-1,0.8-1.3c0.4-0.4,0.8-0.6,1.3-0.8V5.7
	c-0.5-0.1-1-0.4-1.3-0.8c-0.4-0.4-0.6-0.8-0.8-1.3H13.2c-0.1,0.5-0.4,1-0.8,1.3C12,5.3,11.6,5.5,11.1,5.7z"/>
</svg>
