<?xml version="1.0" encoding="utf-8"?>
<!-- Generator: Adobe Illustrator 27.2.0, SVG Export Plug-In . SVG Version: 6.00 Build 0)  -->
<svg version="1.1" id="Capa_1" xmlns="http://www.w3.org/2000/svg" xmlns:xlink="http://www.w3.org/1999/xlink" x="0px" y="0px"
	 viewBox="0 0 42 42" style="enable-background:new 0 0 42 42;" xml:space="preserve">
<style type="text/css">
	.st0{fill:#2A2F31;}
</style>
<g>
	<path class="st0" d="M30.9,15c-0.6,0.3-1.3,0.5-2,0.6c0.3-0.1,0.8-0.7,1-0.9c0.3-0.4,0.5-0.8,0.7-1.3v-0.1h-0.1
		c-0.8,0.4-1.6,0.7-2.4,0.9c-0.1,0-0.1,0-0.2,0c-0.1-0.1-0.1-0.2-0.2-0.2c-0.4-0.3-0.7-0.6-1.2-0.7c-0.6-0.2-1.2-0.3-1.8-0.3
		c-0.6,0-1.2,0.2-1.7,0.5s-1,0.7-1.4,1.1c-0.4,0.5-0.7,1.1-0.8,1.7c-0.1,0.6-0.1,1.2,0,1.8c0,0.1,0,0.1-0.1,0.1
		c-3.3-0.5-6-1.7-8.2-4.3c-0.1-0.1-0.1-0.1-0.2,0c-1,1.5-0.5,3.9,0.7,5.1c0.2,0.2,0.3,0.3,0.5,0.5c-0.1,0-0.9-0.1-1.6-0.5
		c-0.1-0.1-0.1,0-0.2,0.1c0,0.2,0,0.3,0,0.5c0.2,1.5,1.2,2.9,2.6,3.5c0.2,0.1,0.3,0.1,0.5,0.2c-0.3,0.1-0.6,0.1-1.6,0
		c-0.1,0-0.2,0-0.1,0.1c0.7,1.9,2.2,2.5,3.3,2.8c0.1,0,0.3,0,0.4,0.1l0,0c-0.4,0.6-1.6,1-2.2,1.2c-1.1,0.4-2.3,0.6-3.4,0.5
		c-0.2,0-0.2,0-0.3,0s0,0.1,0.1,0.1c0.2,0.2,0.5,0.3,0.7,0.4c0.7,0.4,1.5,0.7,2.3,0.9c4.1,1.2,8.7,0.3,11.7-2.8
		c2.4-2.5,3.3-5.9,3.3-9.3c0-0.1,0.2-0.2,0.2-0.3c0.6-0.5,1.1-1.1,1.6-1.7C31,15.2,31,15.1,30.9,15L30.9,15C31,15,31,15,30.9,15
		L30.9,15z"/>
</g>
</svg>
