<?xml version="1.0" encoding="utf-8"?>
<!-- Generator: Adobe Illustrator 27.2.0, SVG Export Plug-In . SVG Version: 6.00 Build 0)  -->
<svg version="1.1" id="Capa_1" xmlns="http://www.w3.org/2000/svg" xmlns:xlink="http://www.w3.org/1999/xlink" x="0px" y="0px"
	 viewBox="0 0 42 42" style="enable-background:new 0 0 42 42;" xml:space="preserve">
<style type="text/css">
	.st0{fill:#606060;}
	.st1{fill:#2A2F31;}
</style>
<path class="st0" d="M42,21c0,11.6-9.4,21-21,21C9.4,42,0,32.6,0,21C0,9.4,9.4,0,21,0C32.6,0,42,9.4,42,21z M0.6,21
	c0,11.3,9.1,20.4,20.4,20.4c11.3,0,20.4-9.1,20.4-20.4C41.4,9.7,32.3,0.6,21,0.6C9.7,0.6,0.6,9.7,0.6,21z"/>
<path class="st1" d="M24.4,21.7l0.5-3.4H22V16c0-0.9,0.4-1.9,1.7-1.9H25v-2.9c0,0-1.2-0.2-2.4-0.2c-2.4,0-4,1.6-4,4.6v2.6H16v3.4
	h2.7V30H22v-8.3H24.4L24.4,21.7z"/>
</svg>
