<?xml version="1.0" encoding="utf-8"?>
<!-- Generator: Adobe Illustrator 27.2.0, SVG Export Plug-In . SVG Version: 6.00 Build 0)  -->
<svg version="1.1" id="Capa_1" xmlns="http://www.w3.org/2000/svg" xmlns:xlink="http://www.w3.org/1999/xlink" x="0px" y="0px"
	 viewBox="0 0 38 23" style="enable-background:new 0 0 38 23;" xml:space="preserve">
<style type="text/css">
	.st0{fill:#0F3EB6;}
</style>
<path class="st0" d="M19,20.7c2.6,0,5-1,6.8-2.7s2.8-4.1,2.8-6.5s-1-4.8-2.8-6.5S21.6,2.3,19,2.3V20.7z M19,22
	c-2.9,0-5.7-1.1-7.8-3.1C9.2,17,8,14.3,8,11.5S9.2,6,11.2,4.1S16.1,1,19,1s5.7,1.1,7.8,3.1S30,8.7,30,11.5s-1.2,5.5-3.2,7.4
	C24.7,20.9,21.9,22,19,22z"/>
</svg>
