<svg width="28" height="30" viewBox="0 0 28 30" fill="none" xmlns="http://www.w3.org/2000/svg">
<path fill-rule="evenodd" clip-rule="evenodd" d="M6.14312 0H20.9272L28 7.26695V28.3479C28 29.2583 27.2782 30 26.392 30H6.14437C5.257 30 4.5364 29.2583 4.5364 28.3479V20.4825H1.0753C0.481643 20.4825 0 19.9889 0 19.379V11.5455C0 10.9356 0.481643 10.442 1.0753 10.442H4.53516V1.6521C4.53516 0.740378 5.25576 0 6.14312 0ZM4.33727 16.2193C4.40448 16.2193 4.47044 16.218 4.53516 16.2141C4.93342 16.1924 5.29558 16.1093 5.60299 15.9674C5.85314 15.8523 6.06845 15.6988 6.23896 15.5121C6.56378 15.1681 6.72807 14.6861 6.72807 14.1273C6.72807 13.5685 6.53018 13.0851 6.17299 12.7667C6.01618 12.6222 5.82576 12.5071 5.60299 12.4202C5.30429 12.3038 4.94711 12.2412 4.53516 12.2322C4.50031 12.2309 4.46297 12.2309 4.42688 12.2309C3.88799 12.2309 3.39639 12.2706 2.92222 12.3511L2.84754 12.3639V18.6399H3.80212V16.1847C3.97511 16.2154 4.16677 16.2193 4.33727 16.2193ZM26.392 28.9041C26.6895 28.9041 26.9322 28.6548 26.9322 28.3492H26.9309V8.04569H21.776C20.8899 8.04569 20.168 7.30404 20.168 6.39359V1.09714H6.14312C5.84568 1.09714 5.60299 1.34649 5.60299 1.6521V10.4433H18.7355C19.3292 10.4433 19.8108 10.9369 19.8108 11.5468V19.3802C19.8108 19.9902 19.3292 20.4838 18.7355 20.4838H5.60299V28.3492C5.60299 28.6548 5.84568 28.9041 6.14312 28.9041H26.392ZM7.59801 12.3716V18.6117V18.613L7.67642 18.622C8.09583 18.6718 8.57374 18.6961 9.09645 18.6961C10.2937 18.6961 11.2358 18.3803 11.8183 17.7806C12.402 17.1898 12.7106 16.3369 12.7106 15.3126C12.7106 14.3421 12.4157 13.5736 11.8345 13.0263C11.2769 12.4905 10.4605 12.2309 9.3379 12.2309C8.78905 12.2309 8.229 12.2744 7.67393 12.3601L7.59801 12.3716ZM16.7766 15.8433V15.0006V14.9994H14.5003V13.1286H16.9633V12.2757H13.5457V18.6399H14.5003V15.8433H16.7766ZM11.7213 15.3395C11.7251 14.626 11.5346 14.0646 11.1551 13.6721C10.7531 13.2565 10.1532 13.0455 9.37286 13.0455C8.99327 13.0455 8.72444 13.0787 8.55145 13.112V17.8381C8.76054 17.8675 9.04429 17.8701 9.24716 17.8701C10.8414 17.8701 11.7201 16.9711 11.7201 15.3395H11.7213ZM5.77462 14.1656C5.77462 13.892 5.70866 13.6836 5.60288 13.5263C5.35521 13.1542 4.88601 13.0608 4.53505 13.048C4.50393 13.0468 4.47406 13.0468 4.44419 13.0468C4.18284 13.0468 3.95011 13.0634 3.80076 13.0928V15.3497C3.94513 15.3804 4.12683 15.3945 4.35459 15.3945C4.41681 15.3945 4.47655 15.3919 4.53505 15.3881C5.03909 15.3523 5.40499 15.1605 5.60288 14.8382C5.71489 14.6554 5.77462 14.4303 5.77462 14.1669V14.1656Z" fill="#606060"/>
</svg>
