<?xml version="1.0" encoding="utf-8"?>
<!-- Generator: Adobe Illustrator 27.2.0, SVG Export Plug-In . SVG Version: 6.00 Build 0)  -->
<svg version="1.1" id="Capa_1" xmlns="http://www.w3.org/2000/svg" xmlns:xlink="http://www.w3.org/1999/xlink" x="0px" y="0px"
	 viewBox="0 0 13 13" style="enable-background:new 0 0 13 13;" xml:space="preserve">
<style type="text/css">
	.st0{fill:#E4032C;}
</style>
<path class="st0" d="M6.5,13C2.9,13,0,10.1,0,6.5C0,2.9,2.9,0,6.5,0C10.1,0,13,2.9,13,6.5C13,10.1,10.1,13,6.5,13z M11.6,3.1
	C11.6,3.1,11.6,3.1,11.6,3.1c0,0-0.8,0.3-2,0.6c0.3,0.8,0.5,1.6,0.5,2.7h2.6C12.6,5.1,12.2,4,11.6,3.1L11.6,3.1z M1.4,3.1
	C0.8,4,0.4,5.1,0.4,6.3h2.6c0-1,0.2-1.9,0.5-2.7C2.3,3.4,1.4,3.1,1.4,3.1C1.4,3.1,1.4,3.1,1.4,3.1L1.4,3.1z M1.4,9.9
	C1.4,9.9,1.4,9.9,1.4,9.9c0,0,0.8-0.3,2-0.6C3.1,8.6,2.9,7.7,2.9,6.7H0.4C0.4,7.9,0.8,9,1.4,9.9L1.4,9.9z M6.7,9
	c0.9,0,1.8,0.1,2.6,0.3c0.3-0.7,0.5-1.6,0.5-2.6H6.7L6.7,9L6.7,9z M6.7,9.3v3.3c0.3-0.2,0.9-0.6,1.5-1.4c0.3-0.4,0.7-0.9,1-1.6
	C8.4,9.5,7.5,9.3,6.7,9.3L6.7,9.3z M6.3,9.3c-0.9,0-1.7,0.1-2.5,0.3c0.3,0.7,0.6,1.2,1,1.6c0.6,0.8,1.2,1.2,1.5,1.4V9.3z M6.3,9V6.7
	H3.2c0,1,0.2,1.9,0.5,2.6C4.5,9.1,5.4,9,6.3,9L6.3,9z M3.3,6.3h3.1V4C5.4,4,4.5,3.9,3.8,3.7C3.5,4.4,3.3,5.3,3.3,6.3L3.3,6.3z
	 M6.3,3.7V0.4C6.1,0.6,5.5,1,4.9,1.8c-0.3,0.4-0.7,0.9-1,1.6C4.6,3.5,5.5,3.7,6.3,3.7L6.3,3.7z M6.7,3.7c0.9,0,1.7-0.1,2.4-0.3
	c-0.3-0.7-0.6-1.2-1-1.6C7.5,1,6.9,0.6,6.7,0.4L6.7,3.7L6.7,3.7z M6.7,4v2.3h3.1c0-1-0.2-1.9-0.5-2.6C8.5,3.9,7.6,4,6.7,4L6.7,4z
	 M10.1,6.7c0,1-0.2,1.9-0.5,2.7c1.2,0.3,2,0.6,2,0.6c0,0,0,0,0,0c0.6-0.9,1-2.1,1.1-3.3L10.1,6.7L10.1,6.7z M11.4,10.2
	c-0.2-0.1-0.9-0.3-1.9-0.6c-0.3,0.7-0.7,1.3-1.1,1.7C8,12,7.6,12.4,7.2,12.6C8.9,12.4,10.4,11.5,11.4,10.2L11.4,10.2z M5.8,12.6
	C5.4,12.4,5,12,4.6,11.4c-0.4-0.4-0.7-1-1.1-1.7c-1,0.2-1.7,0.5-1.9,0.6C2.6,11.5,4.1,12.4,5.8,12.6z M1.6,2.8
	c0.2,0.1,1,0.3,1.9,0.6c0.3-0.7,0.7-1.3,1-1.8C5,1,5.5,0.6,5.8,0.4C4.1,0.6,2.6,1.5,1.6,2.8z M7.2,0.4C7.5,0.6,8,1,8.4,1.6
	c0.4,0.4,0.7,1,1,1.8c1-0.2,1.7-0.5,1.9-0.6C10.4,1.5,8.9,0.6,7.2,0.4z"/>
</svg>
