<?xml version="1.0" encoding="utf-8"?>
<!-- Generator: Adobe Illustrator 27.2.0, SVG Export Plug-In . SVG Version: 6.00 Build 0)  -->
<svg version="1.1" id="Capa_1" xmlns="http://www.w3.org/2000/svg" xmlns:xlink="http://www.w3.org/1999/xlink" x="0px" y="0px"
	 viewBox="0 0 113.4 113.4" style="enable-background:new 0 0 113.4 113.4;" xml:space="preserve">
<style type="text/css">
	.st0{fill-rule:evenodd;clip-rule:evenodd;fill:#E4032C;}
	.st1{fill:#FFFFFF;stroke:#000100;}
</style>
<g>
	<path class="st0" d="M16.6,28.1v-6.8h86.9v64h-6.7v6.8H9.8v-64H16.6z M94.7,83.1L94.7,83.1v-53H11.8V90h82.8v-6.8H94.7z M96.7,83.1
		h4.7V23.3H18.7v4.8h78.1V83.1z M13.9,32.3h3.8h75.2v55.7h-79V32.3z M60,85.9l1.8-0.6l0,0l2.9-1l2.9-1l11.1-3.9v-3.8h-8.2l1.8-3.2
		l-0.1-0.1l-7.5-7.7L57.1,71l-5.4,4.7l-5.4-5.6l-6.2-6.3l-2-2l-7.7-8L18.5,65.2l-1,1l-1,1l-0.4,0.4l-0.3,0.3v18.2H60V85.9z
		 M85.1,73.3l-5.6-9.7l0,0L74,73.3H85.1z M79.5,58.8l-1.9,3.3l0,0h3.8L79.5,58.8z M90.7,85.9v-2.7v-6.1l-17,6.1l-2.9,1l-2.9,1
		l-1.8,0.6H90.7z M80.8,78.5l10-3.5l0,0V34.4H15.9v30.5l0.6-0.6l1-1l1-1l11.8-11.4l10.6,10.9l2,2l6.5,6.6l2.4,2.5l2.4-2l10.5-9.1
		l8.5,8.9l3.5-6.2h-2.7l5.4-9.5l5.4,9.5h-2.7l6.3,11.1h-7.8L80.8,78.5L80.8,78.5z"/>
	<path class="st1" d="M52.1,63.5c-0.4,0.3-1,0-1-0.6V50.6c0-0.6,0.6-0.9,1-0.6l10,6.2c0.5,0.3,0.5,1.1,0,1.4L52.1,63.5z"/>
</g>
</svg>
