<?xml version="1.0" encoding="utf-8"?>
<!-- Generator: Adobe Illustrator 27.2.0, SVG Export Plug-In . SVG Version: 6.00 Build 0)  -->
<svg version="1.1" id="Capa_1" xmlns="http://www.w3.org/2000/svg" xmlns:xlink="http://www.w3.org/1999/xlink" x="0px" y="0px"
	 viewBox="0 0 40 40" style="enable-background:new 0 0 40 40;" xml:space="preserve">
<style type="text/css">
	.st0{fill:#FFFFFF;stroke:#606060;}
	.st1{fill:#606060;}
</style>
<g>
	<circle class="st0" cx="20" cy="20" r="19.5"/>
	<path class="st1" d="M15.1,19L13,21c-0.8,0.8-1.3,1.9-1.3,3s0.5,2.2,1.3,3s2,1.3,3.2,1.3c1.2,0,2.3-0.5,3.2-1.3l2.7-2.6
		c0.5-0.5,0.9-1.1,1.1-1.7c0.2-0.7,0.3-1.3,0.1-2c-0.1-0.7-0.4-1.3-0.8-1.9c-0.4-0.5-1-1-1.6-1.3L20,18.4c-0.1,0.1-0.2,0.2-0.2,0.3
		c0.5,0.1,1,0.4,1.3,0.8c0.4,0.4,0.6,0.8,0.8,1.3c0.1,0.5,0.1,1,0,1.5c-0.1,0.5-0.4,0.9-0.8,1.3L18.3,26c-0.6,0.5-1.3,0.8-2.1,0.8
		c-0.8,0-1.6-0.3-2.1-0.8c-0.6-0.5-0.9-1.3-0.9-2c0-0.8,0.3-1.5,0.9-2l1.2-1.1C15.1,20.3,15,19.7,15.1,19z"/>
	<path class="st1" d="M17.9,16.5c-0.5,0.5-0.9,1.1-1.1,1.7c-0.2,0.7-0.3,1.3-0.1,2c0.1,0.7,0.4,1.3,0.8,1.9c0.4,0.5,1,1,1.6,1.3
		l1.2-1.1c-0.5-0.1-1-0.4-1.3-0.7c-0.4-0.4-0.6-0.8-0.8-1.3c-0.1-0.5-0.1-1,0-1.5c0.1-0.5,0.4-0.9,0.8-1.3l2.7-2.6
		c0.6-0.5,1.3-0.8,2.1-0.8c0.8,0,1.6,0.3,2.1,0.8c0.6,0.5,0.9,1.3,0.9,2s-0.3,1.5-0.9,2l-1.2,1.1c0.2,0.6,0.2,1.2,0.2,1.8l2.1-2
		c0.8-0.8,1.3-1.9,1.3-3c0-1.1-0.5-2.2-1.3-3c-0.8-0.8-2-1.3-3.2-1.3c-1.2,0-2.3,0.5-3.2,1.3L17.9,16.5z"/>
</g>
</svg>
