<?xml version="1.0" encoding="utf-8"?>
<!-- Generator: Adobe Illustrator 27.2.0, SVG Export Plug-In . SVG Version: 6.00 Build 0)  -->
<svg version="1.1" id="Capa_1" xmlns="http://www.w3.org/2000/svg" xmlns:xlink="http://www.w3.org/1999/xlink" x="0px" y="0px"
	 viewBox="0 0 42 42" style="enable-background:new 0 0 42 42;" xml:space="preserve">
<style type="text/css">
	.st0{display:none;}
	.st1{fill:#606060;}
	.st2{fill:#2A2F31;}
</style>
<g id="Capa_2_00000028308567605341356760000005093920663532876200_" class="st0">
</g>
<g id="Capa_1_00000165942330926631347940000000306260438086290052_">
	<g>
		<path class="st1" d="M42,21c0,11.6-9.4,21-21,21S0,32.6,0,21S9.4,0,21,0S42,9.4,42,21z M0.6,21c0,11.3,9.1,20.4,20.4,20.4
			S41.4,32.3,41.4,21S32.3,0.6,21,0.6S0.6,9.7,0.6,21z"/>
		<path class="st2" d="M12,13l6.9,9.4l-7,7.6h1.6l6.1-6.7l4.9,6.7h5.4l-7.3-9.9l6.5-7.1h-1.6l-5.6,6.1L17.3,13H12z M14.3,14.1h2.5
			l10.9,14.7h-2.5L14.3,14.1z"/>
	</g>
</g>
<g id="Capa_3">
</g>
</svg>
