<?xml version="1.0" encoding="utf-8"?>
<!-- Generator: Adobe Illustrator 27.2.0, SVG Export Plug-In . SVG Version: 6.00 Build 0)  -->
<svg version="1.1" id="Capa_1" xmlns="http://www.w3.org/2000/svg" xmlns:xlink="http://www.w3.org/1999/xlink" x="0px" y="0px"
	 viewBox="0 0 42 42" style="enable-background:new 0 0 42 42;" xml:space="preserve">
<style type="text/css">
	.st0{fill:#606060;}
	.st1{fill:#2A2F31;}
</style>
<g>
	<path class="st0" d="M42,21c0,11.6-9.4,21-21,21S0,32.6,0,21C0,9.4,9.4,0,21,0S42,9.4,42,21z M0.6,21c0,11.3,9.1,20.4,20.4,20.4
		S41.4,32.3,41.4,21C41.4,9.7,32.3,0.6,21,0.6S0.6,9.7,0.6,21z"/>
	<path class="st1" d="M30.1,15.3c-0.5-1-1.1-1.2-2.3-1.2C26.6,14,23.6,14,21,14c-2.6,0-5.6,0-6.8,0.1c-1.2,0.1-1.8,0.2-2.3,1.2
		C11.3,16.3,11,18,11,21c0,0,0,0,0,0c0,0,0,0,0,0v0c0,3,0.3,4.7,0.8,5.6c0.5,1,1.1,1.2,2.3,1.2C15.4,28,18.4,28,21,28
		c2.6,0,5.6,0,6.8-0.1c1.2-0.1,1.8-0.3,2.3-1.2c0.6-1,0.8-2.7,0.8-5.6c0,0,0,0,0,0c0,0,0,0,0,0C31,18,30.7,16.3,30.1,15.3z
		 M18.5,24.8v-7.6l6.2,3.8L18.5,24.8z"/>
</g>
</svg>
