<svg width="12" height="10" viewBox="0 0 12 10" fill="none" xmlns="http://www.w3.org/2000/svg">
<path d="M7.53913 5.02615C7.53913 5.47048 7.36262 5.8966 7.04843 6.21079C6.73425 6.52497 6.30813 6.70148 5.8638 6.70148C5.41948 6.70148 4.99335 6.52497 4.67917 6.21079C4.36498 5.8966 4.18848 5.47048 4.18848 5.02615C4.18848 4.58183 4.36498 4.15571 4.67917 3.84152C4.99335 3.52734 5.41948 3.35083 5.8638 3.35083C6.30813 3.35083 6.73425 3.52734 7.04843 3.84152C7.36262 4.15571 7.53913 4.58183 7.53913 5.02615Z" fill="#606060"/>
<path d="M1.46591 1.53571C1.07713 1.53571 0.704266 1.69751 0.429355 1.98551C0.154444 2.27352 0 2.66413 0 3.07143L0 7.67857C0 8.08587 0.154444 8.47648 0.429355 8.76449C0.704266 9.05249 1.07713 9.21429 1.46591 9.21429H10.2614C10.6501 9.21429 11.023 9.05249 11.2979 8.76449C11.5728 8.47648 11.7273 8.08587 11.7273 7.67857V3.07143C11.7273 2.66413 11.5728 2.27352 11.2979 1.98551C11.023 1.69751 10.6501 1.53571 10.2614 1.53571H9.40234C9.01359 1.53563 8.64079 1.37377 8.36594 1.08575L7.75906 0.449964C7.48421 0.161942 7.11141 8.69789e-05 6.72266 0H5.00461C4.61586 8.69789e-05 4.24306 0.161942 3.96822 0.449964L3.36133 1.08575C3.08648 1.37377 2.71368 1.53563 2.32493 1.53571H1.46591ZM8.42898 4.99107C8.42898 5.70384 8.1587 6.38742 7.67761 6.89142C7.19651 7.39543 6.54401 7.67857 5.86364 7.67857C5.18327 7.67857 4.53076 7.39543 4.04967 6.89142C3.56857 6.38742 3.2983 5.70384 3.2983 4.99107C3.2983 4.2783 3.56857 3.59473 4.04967 3.09072C4.53076 2.58672 5.18327 2.30357 5.86364 2.30357C6.54401 2.30357 7.19651 2.58672 7.67761 3.09072C8.1587 3.59473 8.42898 4.2783 8.42898 4.99107Z" fill="#606060"/>
</svg>
