<?xml version="1.0" encoding="utf-8"?>
<!-- Generator: Adobe Illustrator 27.2.0, SVG Export Plug-In . SVG Version: 6.00 Build 0)  -->
<svg version="1.1" id="Capa_1" xmlns="http://www.w3.org/2000/svg" xmlns:xlink="http://www.w3.org/1999/xlink" x="0px" y="0px"
	 viewBox="0 0 55.7 56.7" style="enable-background:new 0 0 55.7 56.7;" xml:space="preserve">
<style type="text/css">
	.st0{fill-rule:evenodd;clip-rule:evenodd;fill:#E4032C;}
	.st1{fill:#000100;}
</style>
<g>
	<path class="st0" d="M21.1,19.1h-17H3.6v0.5v34v0.5h0.5h34h0.5v-0.5v-17h-1v16.5h-33v-33h16.5V19.1z"/>
	<g>
		<path class="st1" d="M38.1,30.6c-0.1,0-0.3,0-0.3-0.1L26.3,19.4c-1.4-1.4-2.2-3.3-2.2-5.3s0.8-3.9,2.2-5.3c2.9-2.9,7.7-2.9,10.7,0
			l1.1,1.1l1.1-1.1c2.9-2.9,7.6-2.9,10.6-0.1c0,0,0.1,0,0.1,0.1c1.4,1.4,2.2,3.3,2.2,5.3s-0.8,3.9-2.2,5.3L38.4,30.5
			C38.4,30.6,38.2,30.6,38.1,30.6z M31.6,7.6c-1.7,0-3.4,0.6-4.6,1.9c-1.2,1.2-1.9,2.8-1.9,4.6c0,1.7,0.7,3.3,1.9,4.6l11.1,10.8
			l11.1-10.9c1.2-1.2,1.9-2.8,1.9-4.6c0-1.7-0.7-3.3-1.8-4.5c0,0,0,0-0.1-0.1c-2.6-2.5-6.7-2.5-9.3,0l-1.5,1.5
			c-0.2,0.2-0.5,0.2-0.7,0l-1.5-1.5C35,8.2,33.3,7.6,31.6,7.6z"/>
	</g>
</g>
<g>
</g>
<g>
</g>
</svg>
