<?xml version="1.0" encoding="utf-8"?>
<!-- Generator: Adobe Illustrator 27.2.0, SVG Export Plug-In . SVG Version: 6.00 Build 0)  -->
<svg version="1.1" id="Capa_1" xmlns="http://www.w3.org/2000/svg" xmlns:xlink="http://www.w3.org/1999/xlink" x="0px" y="0px"
	 viewBox="0 0 38 23" style="enable-background:new 0 0 38 23;" xml:space="preserve">
<style type="text/css">
	.st0{fill:#0F3EB6;}
</style>
<path class="st0" d="M28.8,1.7C28.9,1.8,29,2,29,2.1c0,0.1,0,0.3-0.1,0.4L20.7,21c-0.1,0.1-0.2,0.2-0.3,0.3
	c-0.1,0.2-0.2,0.2-0.4,0.2c-0.1,0-0.3,0-0.4-0.1s-0.2-0.2-0.3-0.3l-3-6.9l-6.9-3c-0.1-0.1-0.2-0.2-0.3-0.3C9,10.8,9,10.6,9,10.5
	s0-0.3,0.1-0.4C9.2,10,9.3,9.9,9.4,9.8L28,1.6c0.1-0.1,0.3-0.1,0.4-0.1S28.7,1.6,28.8,1.7z"/>
</svg>
