<?xml version="1.0" encoding="utf-8"?>
<!-- Generator: Adobe Illustrator 27.2.0, SVG Export Plug-In . SVG Version: 6.00 Build 0)  -->
<svg version="1.1" id="Capa_1" xmlns="http://www.w3.org/2000/svg" xmlns:xlink="http://www.w3.org/1999/xlink" x="0px" y="0px"
	 viewBox="0 0 42 42" style="enable-background:new 0 0 42 42;" xml:space="preserve">
<style type="text/css">
	.st0{fill:#606060;}
	.st1{fill:#2A2F31;}
</style>
<g>
	<path class="st0" d="M42,21c0,11.6-9.4,21-21,21S0,32.6,0,21C0,9.4,9.4,0,21,0S42,9.4,42,21z M0.6,21c0,11.3,9.1,20.4,20.4,20.4
		S41.4,32.3,41.4,21C41.4,9.7,32.3,0.6,21,0.6S0.6,9.7,0.6,21z"/>
	<path class="st1" d="M15.8,30h-3.5V17.3h3.5V30z M14.1,15.6c-0.4,0-0.8-0.1-1.1-0.4c-0.3-0.3-0.6-0.6-0.8-1
		C12,13.8,12,13.3,12,12.9c0.1-0.4,0.3-0.9,0.6-1.2c0.3-0.3,0.7-0.5,1-0.6c0.4-0.1,0.8,0,1.2,0.1c0.4,0.2,0.7,0.5,0.9,0.8
		s0.4,0.8,0.4,1.3c0,0.3-0.1,0.6-0.2,0.9c-0.1,0.3-0.3,0.5-0.4,0.7c-0.2,0.2-0.4,0.4-0.7,0.5C14.6,15.5,14.3,15.6,14.1,15.6z M29,30
		h-3.5v-6.2c0-1.5,0-3.4-1.8-3.4c-1.8,0-2.1,1.6-2.1,3.3V30H18V17.3h3.4V19h0.1c0.3-0.7,0.8-1.2,1.4-1.6c0.6-0.4,1.3-0.6,1.9-0.5
		c3.6,0,4.2,2.6,4.2,6V30z"/>
</g>
</svg>
