<?xml version="1.0" encoding="utf-8"?>
<!-- Generator: Adobe Illustrator 27.2.0, SVG Export Plug-In . SVG Version: 6.00 Build 0)  -->
<svg version="1.1" id="Capa_1" xmlns="http://www.w3.org/2000/svg" xmlns:xlink="http://www.w3.org/1999/xlink" x="0px" y="0px"
	 viewBox="0 0 42 42" style="enable-background:new 0 0 42 42;" xml:space="preserve">
<style type="text/css">
	.st0{fill:#FFFFFF;}
	.st1{fill:#0B3067;}
</style>
<g>
	<circle class="st0" cx="21" cy="21" r="21"/>
	<path class="st1" d="M32,14.2c-0.7,0.3-1.5,0.5-2.2,0.6c0.4-0.1,0.9-0.7,1.1-1c0.3-0.4,0.6-0.8,0.7-1.3v-0.1h-0.1
		c-0.8,0.4-1.7,0.8-2.7,1c-0.1,0-0.1,0-0.2,0c-0.1-0.1-0.1-0.2-0.2-0.2c-0.4-0.3-0.8-0.6-1.3-0.8c-0.6-0.2-1.3-0.4-2-0.3
		c-0.7,0-1.3,0.2-1.9,0.5s-1.1,0.7-1.5,1.2s-0.7,1.1-0.9,1.8c-0.2,0.6-0.1,1.2,0,1.9c0,0.1,0,0.1-0.1,0.1C17.1,17,14,15.7,11.6,13
		c-0.1-0.1-0.2-0.1-0.3,0c-1.1,1.6-0.6,4.1,0.8,5.4c0.2,0.2,0.4,0.3,0.6,0.5c-0.1,0-1-0.1-1.8-0.5c-0.1-0.1-0.2,0-0.2,0.1
		c0,0.2,0,0.3,0,0.5c0.2,1.6,1.3,3.1,2.9,3.7c0.2,0.1,0.4,0.1,0.6,0.2C13.8,23,13.5,23,12.5,23c-0.1,0-0.2,0-0.1,0.2
		c0.8,2,2.4,2.6,3.6,3c0.2,0,0.3,0,0.5,0.1l0,0c-0.4,0.6-1.8,1.1-2.5,1.3c-1.2,0.4-2.5,0.6-3.8,0.5c-0.2,0-0.2,0-0.3,0
		s0,0.1,0.1,0.1c0.3,0.2,0.5,0.3,0.8,0.5c0.8,0.4,1.6,0.7,2.5,1c4.5,1.2,9.6,0.3,13-3c2.7-2.6,3.6-6.2,3.6-9.8
		c0-0.1,0.2-0.2,0.3-0.3c0.7-0.5,1.3-1.1,1.8-1.8c0.1-0.2,0.1-0.3,0.1-0.3l0,0C32.1,14.1,32.1,14.2,32,14.2L32,14.2z"/>
</g>
</svg>
