<?xml version="1.0" encoding="utf-8"?>
<!-- Generator: Adobe Illustrator 27.2.0, SVG Export Plug-In . SVG Version: 6.00 Build 0)  -->
<svg version="1.1" id="Capa_1" xmlns="http://www.w3.org/2000/svg" xmlns:xlink="http://www.w3.org/1999/xlink" x="0px" y="0px"
	 viewBox="0 0 42 42" style="enable-background:new 0 0 42 42;" xml:space="preserve">
<style type="text/css">
	.st0{fill:#FFFFFF;}
	.st1{fill:#0B3067;}
</style>
<g>
	<circle class="st0" cx="21" cy="21" r="21"/>
	<path class="st1" d="M30.1,15.3c-0.5-1-1.1-1.2-2.3-1.2C26.6,14,23.6,14,21,14s-5.6,0-6.8,0.1s-1.8,0.2-2.3,1.2
		C11.3,16.3,11,18,11,21l0,0l0,0l0,0c0,3,0.3,4.7,0.8,5.6c0.5,1,1.1,1.2,2.3,1.2C15.4,28,18.4,28,21,28s5.6,0,6.8-0.1
		c1.2-0.1,1.8-0.3,2.3-1.2c0.6-1,0.8-2.7,0.8-5.6l0,0l0,0C31,18,30.7,16.3,30.1,15.3z M18.5,24.8v-7.6l6.2,3.8L18.5,24.8z"/>
</g>
</svg>
