<svg width="80" height="80" viewBox="0 0 80 80" fill="none" xmlns="http://www.w3.org/2000/svg">
<g clip-path="url(#clip0_3143_5456)">
<path fill-rule="evenodd" clip-rule="evenodd" d="M66.4705 67.9045H13.5294C12.6153 67.9045 11.875 67.1642 11.875 66.25V11.6544C11.875 10.7403 12.6153 10 13.5294 10H66.4705C67.3848 10 68.125 10.7403 68.125 11.6544V66.25C68.125 67.1642 67.3848 67.9045 66.4705 67.9045ZM15.1838 64.5955H64.816V60.3194L53.2352 48.7382L44.4792 57.4941C43.834 58.1395 42.7855 58.1395 42.1403 57.4941L26.7667 42.1207L15.1838 53.7036V64.5955ZM15.1838 49.0255V13.3088H64.816V55.6394L55.576 46.3994C54.9516 45.7728 54.1202 45.4295 53.2371 45.4295C52.3544 45.4295 51.523 45.7748 50.8983 46.3994L43.3108 53.9867L29.1056 39.7817C28.4811 39.1551 27.6497 38.8118 26.7667 38.8118C25.8836 38.8118 25.0523 39.1572 24.4277 39.7817L15.1838 49.0255ZM46.6177 36.4704C42.0556 36.4704 38.3456 32.7604 38.3456 28.1983C38.3456 23.6363 42.0556 19.9263 46.6177 19.9263C51.1795 19.9263 54.8898 23.6363 54.8898 28.1983C54.8898 32.7604 51.1795 36.4704 46.6177 36.4704ZM46.6177 23.2351C43.8817 23.2351 41.6544 25.4623 41.6544 28.1983C41.6544 30.9343 43.8817 33.1616 46.6177 33.1616C49.3536 33.1616 51.5807 30.9343 51.5807 28.1983C51.5807 25.4623 49.3536 23.2351 46.6177 23.2351Z" fill="#E40E36"/>
</g>
<defs>
<clipPath id="clip0_3143_5456">
<rect width="56.25" height="60" fill="white" transform="translate(11.875 10)"/>
</clipPath>
</defs>
</svg>
