<svg width="80" height="80" viewBox="0 0 80 80" fill="none" xmlns="http://www.w3.org/2000/svg">
<path fill-rule="evenodd" clip-rule="evenodd" d="M37.0345 16.0298C37.0345 16.9011 37.7402 17.6068 38.6115 17.6068C39.4828 17.6068 40.1885 16.9011 40.1885 16.0298V14.4528H41.7655C42.6368 14.4528 43.3425 13.7471 43.3425 12.8758C43.3425 12.0045 42.6368 11.2988 41.7655 11.2988H38.6115C37.7402 11.2988 37.0345 12.0045 37.0345 12.8758V16.0298ZM60.3742 16.0298C60.3742 16.9011 61.0799 17.6068 61.951 17.6068C62.8224 17.6068 63.5282 16.9011 63.5282 16.0298V12.8758C63.5282 12.0045 62.8224 11.2988 61.951 11.2988H58.797C57.9259 11.2988 57.2202 12.0045 57.2202 12.8758C57.2202 13.7471 57.9259 14.4528 58.797 14.4528H60.3742V16.0298ZM59.5542 57.5994H62.7082C63.5793 57.5994 64.285 56.8937 64.285 56.0223V52.8683C64.285 51.9971 63.5793 51.2914 62.7082 51.2914C61.8367 51.2914 61.131 51.9971 61.131 52.8683V54.4454H59.5542C58.6827 54.4454 57.977 55.1511 57.977 56.0223C57.977 56.8937 58.6827 57.5994 59.5542 57.5994ZM62.7087 28.3303C61.8373 28.3303 61.1316 27.6246 61.1316 26.7533V23.5993C61.1316 22.7281 61.8373 22.0223 62.7087 22.0223C63.5799 22.0223 64.2856 22.7281 64.2856 23.5993V26.7533C64.2856 27.6246 63.5799 28.3303 62.7087 28.3303ZM61.1316 36.2154C61.1316 37.0867 61.8373 37.7924 62.7087 37.7924C63.5799 37.7924 64.2856 37.0867 64.2856 36.2154V33.0614C64.2856 32.1901 63.5799 31.4844 62.7087 31.4844C61.8373 31.4844 61.1316 32.1901 61.1316 33.0614V36.2154ZM39.3693 28.3304C38.498 28.3304 37.7923 27.6247 37.7923 26.7534V23.5994C37.7923 22.7281 38.498 22.0225 39.3693 22.0225C40.2406 22.0225 40.9463 22.7281 40.9463 23.5994V26.7534C40.9463 27.6247 40.2406 28.3304 39.3693 28.3304ZM37.7923 36.2153C37.7923 37.0866 38.498 37.7923 39.3693 37.7923C40.2406 37.7923 40.9463 37.0866 40.9463 36.2153V33.0613C40.9463 32.19 40.2406 31.4843 39.3693 31.4843C38.498 31.4843 37.7923 32.19 37.7923 33.0613V36.2153ZM62.7087 48.1374C61.8373 48.1374 61.1316 47.4317 61.1316 46.5603V43.4063C61.1316 42.5351 61.8373 41.8294 62.7087 41.8294C63.5799 41.8294 64.2856 42.5351 64.2856 43.4063V46.5603C64.2856 47.4317 63.5799 48.1374 62.7087 48.1374ZM50.0922 57.5994H53.2462C54.1173 57.5994 54.823 56.8937 54.823 56.0223C54.823 55.1511 54.1173 54.4454 53.2462 54.4454H50.0922C49.2207 54.4454 48.515 55.1511 48.515 56.0223C48.515 56.8937 49.2207 57.5994 50.0922 57.5994ZM52.489 14.4528H49.335C48.4639 14.4528 47.7582 13.7471 47.7582 12.8758C47.7582 12.0045 48.4639 11.2988 49.335 11.2988H52.489C53.3604 11.2988 54.0662 12.0045 54.0662 12.8758C54.0662 13.7471 53.3604 14.4528 52.489 14.4528ZM44.415 68.7011H17.2909C16.4196 68.7011 15.7139 67.9957 15.7139 67.1243V45.6771C15.7139 44.806 16.4196 44.1003 17.2909 44.1003H37.7923V42.5231C37.7923 41.652 38.498 40.9463 39.3693 40.9463C40.2406 40.9463 40.9463 41.652 40.9463 42.5231V44.1003H44.415C45.2864 44.1003 45.9922 44.806 45.9922 45.6771V67.1243C45.9922 67.9957 45.2864 68.7011 44.415 68.7011ZM18.8678 65.5474H42.8381V47.2543H18.8678V65.5474ZM26.7528 28.3303C26.3507 28.3303 25.9446 28.1765 25.6371 27.869C25.0221 27.254 25.0221 26.2565 25.6371 25.6376L29.2523 22.0224H18.8678V36.2153C18.8678 37.0866 18.1621 37.7923 17.2909 37.7923C16.4196 37.7923 15.7139 37.0866 15.7139 36.2153V20.4454C15.7139 19.5741 16.4196 18.8684 17.2909 18.8684H29.2524L25.6371 15.2531C25.0221 14.6381 25.0221 13.6406 25.6371 13.0216C26.2521 12.4066 27.2535 12.4066 27.8686 13.0216L34.1765 19.3296C34.4916 19.6447 34.6453 20.0602 34.6375 20.4737C34.6322 20.7728 34.5439 21.0514 34.3945 21.2876C34.3333 21.3845 34.2607 21.4763 34.1765 21.5611L27.8686 27.869C27.561 28.1765 27.1589 28.3303 26.7528 28.3303Z" fill="#E40E36"/>
</svg>
