<svg width="80" height="80" viewBox="0 0 80 80" fill="none" xmlns="http://www.w3.org/2000/svg">
<path fill-rule="evenodd" clip-rule="evenodd" d="M63.2527 24.6341H51.6264C50.8235 24.6341 50.173 23.9793 50.173 23.1707V11.4634C50.173 10.6549 50.8235 10 51.6264 10C58.8384 10 64.7061 15.9086 64.7061 23.1707C64.7061 23.9793 64.0556 24.6341 63.2527 24.6341ZM53.0795 21.7073H61.6958C61.0563 17.2275 57.5283 13.675 53.0795 13.0311V21.7073ZM44.3599 43.6584C37.1479 43.6584 31.2802 37.7499 31.2802 30.4877C31.2802 23.2255 37.1479 17.317 44.3599 17.317C45.1628 17.317 45.8131 17.9718 45.8131 18.7804V29.0243H55.9863C56.7892 29.0243 57.4394 29.6792 57.4394 30.4877C57.4394 37.7499 51.5717 43.6584 44.3599 43.6584ZM42.9065 20.3481C37.9835 21.0597 34.1868 25.3365 34.1868 30.4877C34.1868 36.1365 38.7501 40.7316 44.3599 40.7316C49.4754 40.7316 53.7225 36.9084 54.4295 31.9511H44.3599C43.5569 31.9511 42.9065 31.2962 42.9065 30.4877V20.3481ZM16.7472 70H24.0137C24.8166 70 25.467 69.3449 25.467 68.5364V45.1218C25.467 44.3133 24.8166 43.6584 24.0137 43.6584H16.7472C15.9443 43.6584 15.2939 44.3133 15.2939 45.1218V68.5364C15.2939 69.3449 15.9443 70 16.7472 70ZM22.5604 67.0731H18.2005V46.5852H22.5604V67.0731ZM40 70H32.7335C31.9306 70 31.2802 69.3449 31.2802 68.5367V50.9754C31.2802 50.1668 31.9306 49.5121 32.7335 49.5121H40C40.8029 49.5121 41.4532 50.1668 41.4532 50.9754V68.5367C41.4532 69.3449 40.8029 70 40 70ZM34.1868 67.0731H38.5467V52.4391H34.1868V67.0731ZM48.7198 70H55.9863C56.7892 70 57.4394 69.3449 57.4394 68.5364V56.8293C57.4394 56.0207 56.7892 55.3656 55.9863 55.3656H48.7198C47.9169 55.3656 47.2665 56.0207 47.2665 56.8293V68.5364C47.2665 69.3449 47.9169 70 48.7198 70ZM54.5329 67.0731H50.1731V58.2926H54.5329V67.0731Z" fill="#E40E36"/>
</svg>
