<svg width="32" height="32" viewBox="0 0 32 32" fill="none" xmlns="http://www.w3.org/2000/svg">
<path d="M13.013 0C5.84152 0 0 5.84152 0 13.013C0 20.1844 5.84152 26.0259 13.013 26.0259C16.1315 26.0259 18.9955 24.9185 21.2401 23.0802L29.0098 30.8499C29.1297 30.9748 29.2733 31.0745 29.4322 31.1432C29.5912 31.2119 29.7622 31.2482 29.9353 31.2499C30.1085 31.2517 30.2802 31.2189 30.4405 31.1535C30.6008 31.088 30.7464 30.9912 30.8688 30.8688C30.9912 30.7464 31.088 30.6008 31.1535 30.4405C31.2189 30.2802 31.2517 30.1085 31.2499 29.9353C31.2482 29.7622 31.2119 29.5912 31.1432 29.4322C31.0745 29.2733 30.9748 29.1297 30.8499 29.0098L23.0802 21.2401C24.9185 18.9955 26.0259 16.1315 26.0259 13.013C26.0259 5.84152 20.1844 0 13.013 0ZM13.013 2.60259C18.7779 2.60259 23.4234 7.24807 23.4234 13.013C23.4234 18.7779 18.7779 23.4234 13.013 23.4234C7.24807 23.4234 2.60259 18.7779 2.60259 13.013C2.60259 7.24807 7.24807 2.60259 13.013 2.60259ZM12.9926 6.4887C12.648 6.49408 12.3195 6.636 12.0793 6.88331C11.8392 7.13061 11.707 7.46309 11.7117 7.80778V11.7117H7.80778C7.63535 11.7092 7.46414 11.7411 7.30413 11.8054C7.14411 11.8697 6.99847 11.9652 6.87566 12.0862C6.75286 12.2073 6.65535 12.3516 6.58879 12.5107C6.52223 12.6698 6.48795 12.8405 6.48795 13.013C6.48795 13.1854 6.52223 13.3562 6.58879 13.5153C6.65535 13.6744 6.75286 13.8186 6.87566 13.9397C6.99847 14.0608 7.14411 14.1562 7.30413 14.2206C7.46414 14.2849 7.63535 14.3167 7.80778 14.3143H11.7117V18.2182C11.7092 18.3906 11.7411 18.5618 11.8054 18.7218C11.8697 18.8818 11.9652 19.0275 12.0862 19.1503C12.2073 19.2731 12.3516 19.3706 12.5107 19.4372C12.6698 19.5037 12.8405 19.538 13.013 19.538C13.1854 19.538 13.3562 19.5037 13.5153 19.4372C13.6744 19.3706 13.8186 19.2731 13.9397 19.1503C14.0608 19.0275 14.1562 18.8818 14.2206 18.7218C14.2849 18.5618 14.3167 18.3906 14.3143 18.2182V14.3143H18.2182C18.3906 14.3167 18.5618 14.2849 18.7218 14.2206C18.8818 14.1562 19.0275 14.0608 19.1503 13.9397C19.2731 13.8186 19.3706 13.6744 19.4372 13.5153C19.5037 13.3562 19.538 13.1854 19.538 13.013C19.538 12.8405 19.5037 12.6698 19.4372 12.5107C19.3706 12.3516 19.2731 12.2073 19.1503 12.0862C19.0275 11.9652 18.8818 11.8697 18.7218 11.8054C18.5618 11.7411 18.3906 11.7092 18.2182 11.7117H14.3143V7.80778C14.3167 7.63368 14.2841 7.46088 14.2185 7.29959C14.1529 7.13831 14.0556 6.99183 13.9323 6.86883C13.8091 6.74583 13.6624 6.64881 13.501 6.58352C13.3396 6.51822 13.1667 6.48598 12.9926 6.4887Z" fill="white"/>
</svg>
