<svg width="32" height="32" viewBox="0 0 32 32" fill="none" xmlns="http://www.w3.org/2000/svg">
<path d="M11.9196 23.0446L23.0446 15.8929L11.9196 8.74107V23.0446ZM15.8929 31.7857C13.6943 31.7857 11.6283 31.3685 9.69464 30.5342C7.76101 29.6998 6.07902 28.5674 4.64866 27.1371C3.2183 25.7067 2.08594 24.0247 1.25156 22.0911C0.417188 20.1574 0 18.0914 0 15.8929C0 13.6943 0.417188 11.6283 1.25156 9.69464C2.08594 7.76101 3.2183 6.07902 4.64866 4.64866C6.07902 3.2183 7.76101 2.08594 9.69464 1.25156C11.6283 0.417188 13.6943 0 15.8929 0C18.0914 0 20.1574 0.417188 22.0911 1.25156C24.0247 2.08594 25.7067 3.2183 27.1371 4.64866C28.5674 6.07902 29.6998 7.76101 30.5342 9.69464C31.3685 11.6283 31.7857 13.6943 31.7857 15.8929C31.7857 18.0914 31.3685 20.1574 30.5342 22.0911C29.6998 24.0247 28.5674 25.7067 27.1371 27.1371C25.7067 28.5674 24.0247 29.6998 22.0911 30.5342C20.1574 31.3685 18.0914 31.7857 15.8929 31.7857Z" fill="white"/>
</svg>
