<svg width="80" height="80" viewBox="0 0 80 80" fill="none" xmlns="http://www.w3.org/2000/svg">
<path fill-rule="evenodd" clip-rule="evenodd" d="M11.5624 57.307H35.9698C36.833 57.307 37.5322 56.6078 37.5322 55.7445C37.5322 54.8812 36.833 54.1821 35.9698 54.1821H13.1249V13.5586H59.4063V43.2449C59.4063 44.1082 60.1055 44.8074 60.9688 44.8074C61.8321 44.8074 62.5313 44.1082 62.5313 43.2449V11.9962C62.5313 11.1329 61.8321 10.4337 60.9688 10.4337H11.5624C10.6992 10.4337 10 11.1329 10 11.9962V55.7445C10 56.6078 10.6992 57.307 11.5624 57.307ZM39.1376 31.3041C39.4423 31.7494 39.9345 31.9916 40.4345 31.9916C40.7353 31.9916 41.0399 31.9018 41.3094 31.7221C42.0243 31.2416 42.2118 30.269 41.7274 29.5542C41.0282 28.5191 40.6571 27.3121 40.6571 26.0622C40.6571 22.613 43.4617 19.8085 46.907 19.8085C50.352 19.8085 53.1565 22.613 53.1565 26.0622C53.1565 26.9254 53.856 27.6246 54.7189 27.6246C55.5822 27.6246 56.2814 26.9254 56.2814 26.0622C56.2814 20.8905 52.0747 16.6836 46.907 16.6836C41.7391 16.6836 37.5323 20.8905 37.5323 26.0622C37.5323 27.941 38.0869 29.7534 39.1376 31.3041ZM39.0944 44.8073C38.6959 44.8073 38.2936 44.655 37.9889 44.3503L29.7198 36.0811L23.013 42.7879C22.4036 43.3972 21.4115 43.3972 20.8021 42.7879C20.1928 42.1785 20.1928 41.1903 20.8021 40.577L28.6143 32.7648C29.2237 32.1555 30.2158 32.1555 30.8252 32.7648L40.1998 42.1395C40.8091 42.7488 40.8091 43.7371 40.1998 44.3503C39.8951 44.655 39.4967 44.8073 39.0944 44.8073ZM47.9545 44.8884C47.7794 44.904 47.6132 44.9723 47.478 45.0843C47.3428 45.1963 47.2447 45.3483 47.1967 45.517C47.1487 45.6857 47.153 45.865 47.2087 46.0313L54.9205 68.9752C54.9745 69.1351 55.074 69.2759 55.2067 69.3804C55.3394 69.4848 55.4996 69.5484 55.668 69.5628C55.836 69.5777 56.005 69.5431 56.154 69.4633C56.3029 69.3835 56.425 69.2621 56.5062 69.1143L60.8163 61.1996L69.3949 58.4456C69.5562 58.394 69.6991 58.2966 69.8057 58.1653C69.9123 58.0337 69.9783 57.8742 69.9956 57.7058C70.0125 57.5375 69.9804 57.3677 69.9024 57.2173C69.8244 57.067 69.7041 56.9428 69.5565 56.8602L48.4585 44.9969C48.3053 44.9106 48.1295 44.8728 47.9545 44.8884Z" fill="#E40E36"/>
</svg>
