<svg width="14" height="14" viewBox="0 0 14 14" fill="none" xmlns="http://www.w3.org/2000/svg">
<path d="M6.85714 6.85714C5.91429 6.85714 5.10714 6.52143 4.43571 5.85C3.76429 5.17857 3.42857 4.37143 3.42857 3.42857C3.42857 2.48571 3.76429 1.67857 4.43571 1.00714C5.10714 0.335714 5.91429 0 6.85714 0C7.8 0 8.60714 0.335714 9.27857 1.00714C9.95 1.67857 10.2857 2.48571 10.2857 3.42857C10.2857 4.37143 9.95 5.17857 9.27857 5.85C8.60714 6.52143 7.8 6.85714 6.85714 6.85714ZM0 13.7143V11.3143C0 10.8286 0.125 10.3821 0.375 9.975C0.625 9.56786 0.957143 9.25714 1.37143 9.04286C2.25714 8.6 3.15714 8.26786 4.07143 8.04643C4.98571 7.825 5.91429 7.71429 6.85714 7.71429C7.8 7.71429 8.72857 7.825 9.64286 8.04643C10.5571 8.26786 11.4571 8.6 12.3429 9.04286C12.7571 9.25714 13.0893 9.56786 13.3393 9.975C13.5893 10.3821 13.7143 10.8286 13.7143 11.3143V13.7143H0Z" fill="#2A2F31"/>
</svg>
