<svg width="91" height="87" viewBox="0 0 91 87" fill="none" xmlns="http://www.w3.org/2000/svg">
<path d="M69.6796 54.17L68.9996 52.99L68.8196 55.15C68.5096 55.63 67.9296 56.09 67.1396 56.59C67.7696 56.47 68.2096 56.46 68.4996 56.52C68.3796 57.3 68.1796 58.01 67.9296 58.67L69.2296 56.46L70.3296 56.27L69.9396 54.84L70.9796 52.54C70.5996 53.13 70.1896 53.66 69.6796 54.17Z" fill="white"/>
<path d="M67.8301 42.23C68.7401 43.15 69.4801 44.39 70.0001 45.91C69.5201 47.71 68.9101 49.16 68.1401 50.22L70.8901 48.27C70.8901 48.27 71.5801 50.54 71.6101 51.81C72.0201 50.44 72.2301 48.78 72.2301 46.85L73.8501 44.62L72.1701 43.64C72.0501 41.54 71.7301 39.74 71.1801 38.31C71.2601 39.9 70.7301 43.05 70.7301 43.05C69.8801 42.62 68.9201 42.35 67.8301 42.23Z" fill="white"/>
<path d="M62.6804 36.28C62.8604 37.52 62.8804 38.74 62.8404 39.89L60.1504 40.83L62.7704 42.31L62.4104 45.93L64.3804 43.29L66.5504 45.1L65.3704 41.57L66.9304 38.89L64.5704 39.44L62.6804 36.28Z" fill="white"/>
<path d="M67.1096 33.79L67.8396 36.1L68.1496 34.74L69.4696 35.84L68.3896 33.48L68.7896 31.91L67.4096 32.27L65.7496 30.55L66.6996 32.48L65.0996 32.94L67.1096 33.79Z" fill="white"/>
<path d="M56.3801 35.76L57.2901 38.08L57.7601 36.64C58.5601 37.09 59.2601 37.57 59.8801 38.09L57.9901 35.86L58.2201 34.65H56.8501L54.6901 32.77L55.8701 34.64L54.0801 34.7L56.3801 35.76Z" fill="white"/>
<path d="M57.7896 20.91L56.0996 22.77C54.6196 21.85 53.0296 21.16 51.3496 20.62C52.7196 21.84 53.8796 23.25 54.8196 24.85L51.8596 28.46L56.8896 27.99L59.9796 33.8L59.6296 27.87L63.4096 28.12C61.9996 26.76 60.5396 25.58 59.0596 24.61L57.7896 20.91Z" fill="white"/>
<path d="M46.0303 48.75H43.5703V58.49H46.0303V48.75Z" fill="white"/>
<path d="M47.9902 58.49H50.4502V43.85L47.9902 44.94V58.49Z" fill="white"/>
<path d="M46.0303 45.88L43.5703 46.97V48H46.0303V45.88Z" fill="white"/>
<path d="M37.0902 47.72C35.8102 47.72 34.5602 48.18 33.9502 48.95V43.85L31.4902 44.93V58.49H33.9502V52.32C33.9502 50.62 34.8802 49.63 36.5302 49.63C38.1502 49.63 39.1002 50.39 39.1002 52.53V58.49H41.5602V52.44C41.5602 49.33 40.0102 47.72 37.0902 47.72Z" fill="white"/>
<path d="M24.1303 56.6C21.2203 56.6 19.6503 54.61 19.6503 51.46C19.6503 48.31 21.2203 46.32 24.1303 46.32C25.8503 46.32 26.7303 46.86 27.5903 48L29.8103 46.84C28.6603 45.13 26.8503 44.21 24.1303 44.21C19.8203 44.21 17.0703 47.2 17.0703 51.46C17.0703 55.72 19.8103 58.71 24.1303 58.71C26.6603 58.71 28.6903 57.74 29.8803 56.02L27.8003 54.85C26.9503 55.99 25.8803 56.6 24.1303 56.6Z" fill="white"/>
<path d="M62.7102 53.01C62.7102 50.16 60.9902 47.72 57.4402 47.72C54.1902 47.72 51.9502 49.65 51.9502 53.22C51.9502 56.72 54.4302 58.71 57.3602 58.71C59.2602 58.71 60.5802 58.21 61.6702 57.32L60.2202 55.99C59.3902 56.51 58.5502 56.83 57.5102 56.83C55.9902 56.83 54.6202 55.97 54.3602 53.94H62.6302C62.6702 53.73 62.7102 53.39 62.7102 53.01ZM54.4102 52.24C54.6202 50.56 55.6302 49.59 57.2702 49.59C59.3002 49.59 60.1102 50.79 60.2302 52.24H54.4102Z" fill="white"/>
<path d="M0 86.47H90.93V0H0V86.47ZM89.56 85.16H1.38V1.31H89.55V85.16H89.56Z" fill="white"/>
</svg>
